M48
;Layer_Color=9474304
;FILE_FORMAT=2:5
INCH,LZ
;TYPE=PLATED
T1F00S00C0.01575
T2F00S00C0.03100
T3F00S00C0.03937
T5F00S00C0.04724
T6F00S00C0.05512
%
T01
X0499Y02935
X0429Y0293
Y03075
X03985Y0303
X0397Y02805
X0393Y0277293
X03915Y0273
X039Y0267
X03955
X0403634Y0261866
X0399Y0234
X04195Y0242
X03555Y0247
X0339Y02715
X03685Y02955
X03715Y03075
X0384047Y0288243
X0382167Y0282167
X0307Y02715
X0305975Y0245975
X02755Y0267
X02385Y0273
X0252295Y0364205
X027Y0372
X02865Y03805
X02825Y03485
X03055Y0341
X02635Y04205
X0339434Y0364205
X03175Y03195
X0399331Y03265
X0425Y03315
X04135Y0439
X039Y04385
X03975Y0447
T02
X02865Y0397
X02965
X03065
T03
X05315Y02815
Y02915
Y03015
Y03115
X02135Y0303
Y0293
Y0263
Y0253
X0214Y0221
Y0211
X02135Y03325
Y03425
Y03805
Y03905
X02655Y0332693
X02755
X02855
Y0322693
X02755
X02655
T05
X0518Y0212
Y0222
Y0232
Y0242
Y0252
Y0262
X03945Y02035
X03845
X03745
X03645
X03545
X03445
X03345
X03245
X0235Y04175
Y04275
X0215
Y04175
T06
X0473445Y0215
X0490768
M30
