G04*
G04 #@! TF.GenerationSoftware,Altium Limited,Altium Designer,22.6.1 (34)*
G04*
G04 Layer_Color=2752767*
%FSTAX25Y25*%
%MOIN*%
G70*
G04*
G04 #@! TF.SameCoordinates,070C6B67-E07D-408F-9274-D07C1108151A*
G04*
G04*
G04 #@! TF.FilePolarity,Positive*
G04*
G01*
G75*
%ADD93C,0.00200*%
%ADD94C,0.00267*%
D93*
X0473045Y02146D02*
Y02142D01*
X0473845D01*
Y02146D01*
X0474245D01*
Y02154D01*
X0473845D01*
Y02158D01*
X0473045D01*
Y02154D01*
X0472645D01*
Y02146D01*
X0473045D01*
X0490368D02*
Y02142D01*
X0491168D01*
Y02146D01*
X0491568D01*
Y02154D01*
X0491168D01*
Y02158D01*
X0490368D01*
Y02154D01*
X0489968D01*
Y02146D01*
X0490368D01*
X0214Y02202D02*
X02144Y02206D01*
X02148D01*
X02144Y0221D01*
X02148Y02214D01*
X02144D01*
X0214Y02218D01*
X02136Y02214D01*
X02132D01*
X02136Y0221D01*
X02132Y02206D01*
X02136D01*
X0214Y02202D01*
Y02102D02*
X02144Y02106D01*
X02148D01*
X02144Y0211D01*
X02148Y02114D01*
X02144D01*
X0214Y02118D01*
X02136Y02114D01*
X02132D01*
X02136Y0211D01*
X02132Y02106D01*
X02136D01*
X0214Y02102D01*
X0235Y04167D02*
X02342Y04183D01*
X02358D01*
X0235Y04167D01*
X0215D02*
X02142Y04183D01*
X02158D01*
X0215Y04167D01*
X0235Y04267D02*
X02342Y04283D01*
X02358D01*
X0235Y04267D01*
X0215D02*
X02142Y04283D01*
X02158D01*
X0215Y04267D01*
X0242322Y04702D02*
X0242722Y0471D01*
X0242322Y04718D01*
X0243122Y04714D01*
X0243922Y04718D01*
X0243522Y0471D01*
X0243922Y04702D01*
X0243122Y04706D01*
X0242322Y04702D01*
X0231495Y0451499D02*
X0231895Y0452299D01*
X0231495Y0453099D01*
X0232295Y0452699D01*
X0233095Y0453099D01*
X0232695Y0452299D01*
X0233095Y0451499D01*
X0232295Y0451899D01*
X0231495Y0451499D01*
X02187Y04702D02*
X02191Y0471D01*
X02187Y04718D01*
X02195Y04714D01*
X02203Y04718D01*
X02199Y0471D01*
X02203Y04702D01*
X02195Y04706D01*
X02187Y04702D01*
X03945Y02027D02*
X03937Y02043D01*
X03953D01*
X03945Y02027D01*
X03845D02*
X03837Y02043D01*
X03853D01*
X03845Y02027D01*
X03745D02*
X03737Y02043D01*
X03753D01*
X03745Y02027D01*
X03645D02*
X03637Y02043D01*
X03653D01*
X03645Y02027D01*
X03545D02*
X03537Y02043D01*
X03553D01*
X03545Y02027D01*
X03445D02*
X03437Y02043D01*
X03453D01*
X03445Y02027D01*
X03345D02*
X03337Y02043D01*
X03353D01*
X03345Y02027D01*
X03245D02*
X03237Y02043D01*
X03253D01*
X03245Y02027D01*
X0518Y02612D02*
X05172Y02628D01*
X05188D01*
X0518Y02612D01*
Y02512D02*
X05172Y02528D01*
X05188D01*
X0518Y02512D01*
Y02412D02*
X05172Y02428D01*
X05188D01*
X0518Y02412D01*
Y02312D02*
X05172Y02328D01*
X05188D01*
X0518Y02312D01*
Y02212D02*
X05172Y02228D01*
X05188D01*
X0518Y02212D01*
Y02112D02*
X05172Y02128D01*
X05188D01*
X0518Y02112D01*
X02755Y0331893D02*
X02759Y0332293D01*
X02763D01*
X02759Y0332693D01*
X02763Y0333093D01*
X02759D01*
X02755Y0333493D01*
X02751Y0333093D01*
X02747D01*
X02751Y0332693D01*
X02747Y0332293D01*
X02751D01*
X02755Y0331893D01*
X02855Y0321893D02*
X02859Y0322293D01*
X02863D01*
X02859Y0322693D01*
X02863Y0323093D01*
X02859D01*
X02855Y0323493D01*
X02851Y0323093D01*
X02847D01*
X02851Y0322693D01*
X02847Y0322293D01*
X02851D01*
X02855Y0321893D01*
Y0331893D02*
X02859Y0332293D01*
X02863D01*
X02859Y0332693D01*
X02863Y0333093D01*
X02859D01*
X02855Y0333493D01*
X02851Y0333093D01*
X02847D01*
X02851Y0332693D01*
X02847Y0332293D01*
X02851D01*
X02855Y0331893D01*
X02755Y0321893D02*
X02759Y0322293D01*
X02763D01*
X02759Y0322693D01*
X02763Y0323093D01*
X02759D01*
X02755Y0323493D01*
X02751Y0323093D01*
X02747D01*
X02751Y0322693D01*
X02747Y0322293D01*
X02751D01*
X02755Y0321893D01*
X02655Y0331893D02*
X02659Y0332293D01*
X02663D01*
X02659Y0332693D01*
X02663Y0333093D01*
X02659D01*
X02655Y0333493D01*
X02651Y0333093D01*
X02647D01*
X02651Y0332693D01*
X02647Y0332293D01*
X02651D01*
X02655Y0331893D01*
Y0321893D02*
X02659Y0322293D01*
X02663D01*
X02659Y0322693D01*
X02663Y0323093D01*
X02659D01*
X02655Y0323493D01*
X02651Y0323093D01*
X02647D01*
X02651Y0322693D01*
X02647Y0322293D01*
X02651D01*
X02655Y0321893D01*
X02135Y02922D02*
X02139Y02926D01*
X02143D01*
X02139Y0293D01*
X02143Y02934D01*
X02139D01*
X02135Y02938D01*
X02131Y02934D01*
X02127D01*
X02131Y0293D01*
X02127Y02926D01*
X02131D01*
X02135Y02922D01*
Y03022D02*
X02139Y03026D01*
X02143D01*
X02139Y0303D01*
X02143Y03034D01*
X02139D01*
X02135Y03038D01*
X02131Y03034D01*
X02127D01*
X02131Y0303D01*
X02127Y03026D01*
X02131D01*
X02135Y03022D01*
Y03897D02*
X02139Y03901D01*
X02143D01*
X02139Y03905D01*
X02143Y03909D01*
X02139D01*
X02135Y03913D01*
X02131Y03909D01*
X02127D01*
X02131Y03905D01*
X02127Y03901D01*
X02131D01*
X02135Y03897D01*
Y03797D02*
X02139Y03801D01*
X02143D01*
X02139Y03805D01*
X02143Y03809D01*
X02139D01*
X02135Y03813D01*
X02131Y03809D01*
X02127D01*
X02131Y03805D01*
X02127Y03801D01*
X02131D01*
X02135Y03797D01*
Y03417D02*
X02139Y03421D01*
X02143D01*
X02139Y03425D01*
X02143Y03429D01*
X02139D01*
X02135Y03433D01*
X02131Y03429D01*
X02127D01*
X02131Y03425D01*
X02127Y03421D01*
X02131D01*
X02135Y03417D01*
Y03317D02*
X02139Y03321D01*
X02143D01*
X02139Y03325D01*
X02143Y03329D01*
X02139D01*
X02135Y03333D01*
X02131Y03329D01*
X02127D01*
X02131Y03325D01*
X02127Y03321D01*
X02131D01*
X02135Y03317D01*
Y02622D02*
X02139Y02626D01*
X02143D01*
X02139Y0263D01*
X02143Y02634D01*
X02139D01*
X02135Y02638D01*
X02131Y02634D01*
X02127D01*
X02131Y0263D01*
X02127Y02626D01*
X02131D01*
X02135Y02622D01*
Y02522D02*
X02139Y02526D01*
X02143D01*
X02139Y0253D01*
X02143Y02534D01*
X02139D01*
X02135Y02538D01*
X02131Y02534D01*
X02127D01*
X02131Y0253D01*
X02127Y02526D01*
X02131D01*
X02135Y02522D01*
X03057Y03962D02*
Y03978D01*
X03073D01*
Y03962D01*
X03057D01*
X02957D02*
Y03978D01*
X02973D01*
Y03962D01*
X02957D01*
X02857D02*
Y03978D01*
X02873D01*
Y03962D01*
X02857D01*
X05315Y03107D02*
X05319Y03111D01*
X05323D01*
X05319Y03115D01*
X05323Y03119D01*
X05319D01*
X05315Y03123D01*
X05311Y03119D01*
X05307D01*
X05311Y03115D01*
X05307Y03111D01*
X05311D01*
X05315Y03107D01*
Y03007D02*
X05319Y03011D01*
X05323D01*
X05319Y03015D01*
X05323Y03019D01*
X05319D01*
X05315Y03023D01*
X05311Y03019D01*
X05307D01*
X05311Y03015D01*
X05307Y03011D01*
X05311D01*
X05315Y03007D01*
Y02907D02*
X05319Y02911D01*
X05323D01*
X05319Y02915D01*
X05323Y02919D01*
X05319D01*
X05315Y02923D01*
X05311Y02919D01*
X05307D01*
X05311Y02915D01*
X05307Y02911D01*
X05311D01*
X05315Y02907D01*
Y02807D02*
X05319Y02811D01*
X05323D01*
X05319Y02815D01*
X05323Y02819D01*
X05319D01*
X05315Y02823D01*
X05311Y02819D01*
X05307D01*
X05311Y02815D01*
X05307Y02811D01*
X05311D01*
X05315Y02807D01*
D94*
X03063Y0341D02*
G03*
X03063Y0341I-00008J0D01*
G01*
X0382967Y0282167D02*
G03*
X0382967Y0282167I-00008J0D01*
G01*
X03938Y0277293D02*
G03*
X03938Y0277293I-00008J0D01*
G01*
X0384847Y0288243D02*
G03*
X0384847Y0288243I-00008J0D01*
G01*
X03078Y02715D02*
G03*
X03078Y02715I-00008J0D01*
G01*
X04258Y03315D02*
G03*
X04258Y03315I-00008J0D01*
G01*
X0400131Y03265D02*
G03*
X0400131Y03265I-00008J0D01*
G01*
X03993Y0303D02*
G03*
X03993Y0303I-00008J0D01*
G01*
X02643Y04205D02*
G03*
X02643Y04205I-00008J0D01*
G01*
X02393Y0273D02*
G03*
X02393Y0273I-00008J0D01*
G01*
X03398Y02715D02*
G03*
X03398Y02715I-00008J0D01*
G01*
X04143Y0439D02*
G03*
X04143Y0439I-00008J0D01*
G01*
X03908Y04385D02*
G03*
X03908Y04385I-00008J0D01*
G01*
X02873Y03805D02*
G03*
X02873Y03805I-00008J0D01*
G01*
X0340234Y0364205D02*
G03*
X0340234Y0364205I-00008J0D01*
G01*
X03998Y0234D02*
G03*
X03998Y0234I-00008J0D01*
G01*
X04203Y0242D02*
G03*
X04203Y0242I-00008J0D01*
G01*
X02708Y0372D02*
G03*
X02708Y0372I-00008J0D01*
G01*
X03983Y0447D02*
G03*
X03983Y0447I-00008J0D01*
G01*
X03723Y03075D02*
G03*
X03723Y03075I-00008J0D01*
G01*
X04298D02*
G03*
X04298Y03075I-00008J0D01*
G01*
Y0293D02*
G03*
X04298Y0293I-00008J0D01*
G01*
X04998Y02935D02*
G03*
X04998Y02935I-00008J0D01*
G01*
X0253095Y0364205D02*
G03*
X0253095Y0364205I-00008J0D01*
G01*
X0404434Y0261866D02*
G03*
X0404434Y0261866I-00008J0D01*
G01*
X03963Y0267D02*
G03*
X03963Y0267I-00008J0D01*
G01*
X03923Y0273D02*
G03*
X03923Y0273I-00008J0D01*
G01*
X03978Y02805D02*
G03*
X03978Y02805I-00008J0D01*
G01*
X03183Y03195D02*
G03*
X03183Y03195I-00008J0D01*
G01*
X03693Y02955D02*
G03*
X03693Y02955I-00008J0D01*
G01*
X02833Y03485D02*
G03*
X02833Y03485I-00008J0D01*
G01*
X02763Y0267D02*
G03*
X02763Y0267I-00008J0D01*
G01*
X03908D02*
G03*
X03908Y0267I-00008J0D01*
G01*
X0306775Y0245975D02*
G03*
X0306775Y0245975I-00008J0D01*
G01*
X03563Y0247D02*
G03*
X03563Y0247I-00008J0D01*
G01*
M02*
