G04*
G04 #@! TF.GenerationSoftware,Altium Limited,Altium Designer,22.6.1 (34)*
G04*
G04 Layer_Physical_Order=1*
G04 Layer_Color=255*
%FSTAX25Y25*%
%MOIN*%
G70*
G04*
G04 #@! TF.SameCoordinates,070C6B67-E07D-408F-9274-D07C1108151A*
G04*
G04*
G04 #@! TF.FilePolarity,Positive*
G04*
G01*
G75*
%ADD14C,0.02000*%
%ADD17C,0.00800*%
%ADD19R,0.03937X0.05512*%
%ADD20R,0.09252X0.06102*%
%ADD21R,0.05315X0.04134*%
%ADD22R,0.03937X0.07087*%
%ADD23R,0.04724X0.05906*%
%ADD24R,0.05906X0.04724*%
%ADD25O,0.05709X0.01181*%
%ADD26O,0.01181X0.05709*%
%ADD27R,0.04724X0.05118*%
%ADD28R,0.04134X0.05315*%
%ADD29R,0.10236X0.26378*%
%ADD30R,0.09055X0.09252*%
%ADD31R,0.06102X0.09252*%
G04:AMPARAMS|DCode=32|XSize=77.56mil|YSize=23.62mil|CornerRadius=2.95mil|HoleSize=0mil|Usage=FLASHONLY|Rotation=0.000|XOffset=0mil|YOffset=0mil|HoleType=Round|Shape=RoundedRectangle|*
%AMROUNDEDRECTD32*
21,1,0.07756,0.01772,0,0,0.0*
21,1,0.07165,0.02362,0,0,0.0*
1,1,0.00591,0.03583,-0.00886*
1,1,0.00591,-0.03583,-0.00886*
1,1,0.00591,-0.03583,0.00886*
1,1,0.00591,0.03583,0.00886*
%
%ADD32ROUNDEDRECTD32*%
%ADD33R,0.08465X0.12795*%
%ADD34R,0.08465X0.03543*%
%ADD35O,0.02362X0.07480*%
%ADD36R,0.14173X0.10236*%
%ADD37O,0.05709X0.02362*%
%ADD38R,0.07874X0.21654*%
%ADD39R,0.06102X0.05118*%
%ADD77C,0.07874*%
G04:AMPARAMS|DCode=78|XSize=70.87mil|YSize=62.99mil|CornerRadius=15.75mil|HoleSize=0mil|Usage=FLASHONLY|Rotation=0.000|XOffset=0mil|YOffset=0mil|HoleType=Round|Shape=RoundedRectangle|*
%AMROUNDEDRECTD78*
21,1,0.07087,0.03150,0,0,0.0*
21,1,0.03937,0.06299,0,0,0.0*
1,1,0.03150,0.01968,-0.01575*
1,1,0.03150,-0.01968,-0.01575*
1,1,0.03150,-0.01968,0.01575*
1,1,0.03150,0.01968,0.01575*
%
%ADD78ROUNDEDRECTD78*%
%ADD79O,0.07087X0.06299*%
G04:AMPARAMS|DCode=80|XSize=70.87mil|YSize=70.87mil|CornerRadius=17.72mil|HoleSize=0mil|Usage=FLASHONLY|Rotation=180.000|XOffset=0mil|YOffset=0mil|HoleType=Round|Shape=RoundedRectangle|*
%AMROUNDEDRECTD80*
21,1,0.07087,0.03543,0,0,180.0*
21,1,0.03543,0.07087,0,0,180.0*
1,1,0.03543,-0.01772,0.01772*
1,1,0.03543,0.01772,0.01772*
1,1,0.03543,0.01772,-0.01772*
1,1,0.03543,-0.01772,-0.01772*
%
%ADD80ROUNDEDRECTD80*%
%ADD81C,0.07087*%
G04:AMPARAMS|DCode=82|XSize=86.61mil|YSize=177.17mil|CornerRadius=21.65mil|HoleSize=0mil|Usage=FLASHONLY|Rotation=0.000|XOffset=0mil|YOffset=0mil|HoleType=Round|Shape=RoundedRectangle|*
%AMROUNDEDRECTD82*
21,1,0.08661,0.13386,0,0,0.0*
21,1,0.04331,0.17717,0,0,0.0*
1,1,0.04331,0.02165,-0.06693*
1,1,0.04331,-0.02165,-0.06693*
1,1,0.04331,-0.02165,0.06693*
1,1,0.04331,0.02165,0.06693*
%
%ADD82ROUNDEDRECTD82*%
%ADD83O,0.17717X0.08661*%
%ADD84O,0.08661X0.17717*%
%ADD85C,0.07480*%
%ADD86O,0.06299X0.07087*%
G04:AMPARAMS|DCode=87|XSize=62.99mil|YSize=70.87mil|CornerRadius=15.75mil|HoleSize=0mil|Usage=FLASHONLY|Rotation=180.000|XOffset=0mil|YOffset=0mil|HoleType=Round|Shape=RoundedRectangle|*
%AMROUNDEDRECTD87*
21,1,0.06299,0.03937,0,0,180.0*
21,1,0.03150,0.07087,0,0,180.0*
1,1,0.03150,-0.01575,0.01968*
1,1,0.03150,0.01575,0.01968*
1,1,0.03150,0.01575,-0.01968*
1,1,0.03150,-0.01575,-0.01968*
%
%ADD87ROUNDEDRECTD87*%
%ADD88C,0.06200*%
%ADD89R,0.06200X0.06200*%
G04:AMPARAMS|DCode=90|XSize=62.99mil|YSize=70.87mil|CornerRadius=15.75mil|HoleSize=0mil|Usage=FLASHONLY|Rotation=270.000|XOffset=0mil|YOffset=0mil|HoleType=Round|Shape=RoundedRectangle|*
%AMROUNDEDRECTD90*
21,1,0.06299,0.03937,0,0,270.0*
21,1,0.03150,0.07087,0,0,270.0*
1,1,0.03150,-0.01968,-0.01575*
1,1,0.03150,-0.01968,0.01575*
1,1,0.03150,0.01968,0.01575*
1,1,0.03150,0.01968,-0.01575*
%
%ADD90ROUNDEDRECTD90*%
%ADD91O,0.07087X0.06299*%
%ADD92C,0.03150*%
G36*
X0574174Y0177325D02*
X0202825D01*
X0202825Y0492174D01*
X0574174D01*
X0574174Y0177325D01*
D02*
G37*
%LPC*%
G36*
X0408Y0471316D02*
X0407688Y0471254D01*
X0407423Y0471077D01*
X0407423Y0471077D01*
X0407162Y0470816D01*
X039258D01*
Y0471095D01*
X0380743D01*
Y0447516D01*
X0380684Y0444516D01*
X0380686Y0444508D01*
X0380684Y04445D01*
X0380714Y0444351D01*
X038074Y0444203D01*
X0380743Y0444198D01*
Y0443117D01*
X039258D01*
Y0443184D01*
X0395665D01*
Y0397957D01*
X0393972D01*
Y0391042D01*
X0399706D01*
Y0397957D01*
X0399335D01*
Y0443184D01*
X0404318D01*
Y0434473D01*
X0404172D01*
Y0423621D01*
X0414828D01*
Y0427212D01*
X0421665D01*
Y0401764D01*
X0418153Y0398253D01*
X0414424D01*
Y0390747D01*
X0415751D01*
Y0374587D01*
X0411503D01*
Y0369444D01*
X0421568D01*
Y0374587D01*
X0419422D01*
Y0390747D01*
X0420749D01*
Y0395657D01*
X0424798Y0399706D01*
X0425196Y0400302D01*
X0425335Y0401004D01*
Y0427212D01*
X0428338D01*
Y0425688D01*
X0434662D01*
Y0432406D01*
X0428338D01*
Y0430883D01*
X0414828D01*
Y0434473D01*
X0407989D01*
Y0443184D01*
X04085D01*
X0408812Y0443246D01*
X0408813Y0443247D01*
X0409316D01*
Y0450753D01*
X0409316D01*
Y0458747D01*
X0409316D01*
Y0466253D01*
X0409316D01*
Y047D01*
X0409316Y047D01*
X0409254Y0470312D01*
X0409077Y0470577D01*
X0409077Y0470577D01*
X0408577Y0471077D01*
X0408312Y0471254D01*
X0408Y0471316D01*
D02*
G37*
G36*
X0375257Y0471489D02*
X0363421D01*
Y0454816D01*
X0356251D01*
X0356077Y0455077D01*
X0355812Y0455254D01*
X03555Y0455316D01*
X0352351D01*
Y0456127D01*
X0344649D01*
Y0455316D01*
X0342428D01*
X0342363Y0455303D01*
X0342297Y0455305D01*
X0342208Y0455272D01*
X0342115Y0455254D01*
X0342061Y0455217D01*
X0341999Y0455194D01*
X034193Y0455129D01*
X0341851Y0455077D01*
X0341814Y0455022D01*
X0341766Y0454977D01*
X034165Y0454816D01*
X0331D01*
X0331Y0454816D01*
X0330688Y0454754D01*
X0330423Y0454577D01*
X0330423Y0454577D01*
X03303Y0454454D01*
X0329424D01*
Y0446948D01*
X0329684D01*
Y04425D01*
X0329746Y0442188D01*
X0329923Y0441923D01*
X0330188Y0441746D01*
X03305Y0441684D01*
X0341184D01*
Y0439397D01*
X0340852Y0439176D01*
X034061Y0438813D01*
X0340525Y0438386D01*
Y0436614D01*
X034061Y0436187D01*
X0340852Y0435824D01*
X0341214Y0435582D01*
X0341642Y0435497D01*
X0348807D01*
X0349234Y0435582D01*
X0349597Y0435824D01*
X0349647Y04359D01*
X035511Y0435698D01*
X0355117Y0435699D01*
X0355125Y0435698D01*
X0355274Y0435725D01*
X0355424Y0435749D01*
X0355431Y0435753D01*
X0355438Y0435754D01*
X0355566Y0435836D01*
X0355695Y0435916D01*
X0355699Y0435922D01*
X0355706Y0435926D01*
X0356066Y0436273D01*
X035607Y0436279D01*
X0356077Y0436283D01*
X0356161Y043641D01*
X0356248Y0436534D01*
X0356249Y0436542D01*
X0356254Y0436548D01*
X0356283Y0436697D01*
X0356315Y0436845D01*
X0356314Y0436853D01*
X0356316Y043686D01*
Y0441684D01*
X03705D01*
X0370812Y0441746D01*
X0371077Y0441923D01*
X0371254Y0442188D01*
X0371316Y04425D01*
Y0443511D01*
X0375257D01*
Y0471489D01*
D02*
G37*
G36*
X0539387Y0464918D02*
X0523613D01*
Y0460835D01*
X0473D01*
X0472298Y0460696D01*
X0471702Y0460298D01*
X0452202Y0440798D01*
X0451804Y0440202D01*
X0451665Y04395D01*
Y0346736D01*
X0450174Y0345245D01*
X045Y034528D01*
X0449227Y0345126D01*
X0448572Y0344688D01*
X0448134Y0344033D01*
X044798Y034326D01*
Y0338142D01*
X0448134Y0337369D01*
X0448572Y0336713D01*
X0449227Y0336276D01*
X045Y0336122D01*
X0450773Y0336276D01*
X0451428Y0336713D01*
X0451866Y0337369D01*
X045202Y0338142D01*
Y0341944D01*
X0452151Y0342031D01*
X0454798Y0344678D01*
X0455196Y0345273D01*
X0455335Y0345976D01*
Y043874D01*
X047376Y0457165D01*
X0523613D01*
Y0453082D01*
X0539387D01*
Y0464918D01*
D02*
G37*
G36*
X0328662Y0454454D02*
X0322338D01*
Y0446948D01*
X0323665D01*
Y0439503D01*
X0322193D01*
X0321766Y0439418D01*
X0321403Y0439176D01*
X0321161Y0438813D01*
X0321076Y0438386D01*
Y0436614D01*
X0321161Y0436187D01*
X0321403Y0435824D01*
X0321766Y0435582D01*
X0322193Y0435497D01*
X0329358D01*
X0329786Y0435582D01*
X0330148Y0435824D01*
X033039Y0436187D01*
X0330475Y0436614D01*
Y0438386D01*
X033039Y0438813D01*
X0330148Y0439176D01*
X0329786Y0439418D01*
X0329358Y0439503D01*
X0327335D01*
Y0446948D01*
X0328662D01*
Y0454454D01*
D02*
G37*
G36*
X0245287Y0480684D02*
X0240957D01*
X0240183Y0480582D01*
X0239461Y0480283D01*
X0238842Y0479808D01*
X0238367Y0479188D01*
X0238068Y0478467D01*
X0237966Y0477693D01*
Y0464307D01*
X0238068Y0463533D01*
X0238367Y0462812D01*
X0238842Y0462192D01*
X0239461Y0461717D01*
X0240183Y0461418D01*
X0240957Y0461316D01*
X0242861D01*
X0245039Y0428181D01*
X0244697Y0427816D01*
X02435D01*
X02435Y0427816D01*
X0243188Y0427754D01*
X0242923Y0427577D01*
X0242923Y0427577D01*
X0237161Y0421814D01*
X0236772Y0421866D01*
X0233228D01*
X0232557Y0421777D01*
X0231931Y0421518D01*
X0231394Y0421106D01*
X0231172Y0420816D01*
X0218828D01*
X0218606Y0421106D01*
X0218069Y0421518D01*
X0217443Y0421777D01*
X0216772Y0421866D01*
X0213228D01*
X0212557Y0421777D01*
X0211931Y0421518D01*
X0211394Y0421106D01*
X0210982Y0420569D01*
X0210723Y0419943D01*
X0210634Y0419272D01*
Y0415728D01*
X0210723Y0415057D01*
X0210982Y0414431D01*
X0211394Y0413894D01*
X0211406Y0413885D01*
X0211185Y0409037D01*
X0211188Y0409019D01*
X0211184Y0409D01*
X0211212Y0408862D01*
X0211233Y0408722D01*
X0211243Y0408706D01*
X0211246Y0408688D01*
X0211325Y0408571D01*
X0211398Y040845D01*
X0211413Y0408439D01*
X0211423Y0408423D01*
X0211923Y0407923D01*
X0212188Y0407746D01*
X02125Y0407684D01*
X02125Y0407684D01*
X0238804D01*
X0242731Y0401867D01*
X0242465Y0401367D01*
X0236042D01*
Y0395633D01*
X0240362D01*
X0241843Y0394152D01*
X0241652Y039369D01*
X0236042D01*
Y0391723D01*
X021789D01*
Y0392075D01*
X0217705Y0393001D01*
X0217181Y0393787D01*
X0216395Y0394312D01*
X0215469Y0394496D01*
X0211531D01*
X0210605Y0394312D01*
X0209819Y0393787D01*
X0209295Y0393001D01*
X020911Y0392075D01*
Y0388925D01*
X0209295Y0387999D01*
X0209819Y0387213D01*
X0210605Y0386688D01*
X0211531Y0386504D01*
X0215469D01*
X0216395Y0386688D01*
X0217181Y0387213D01*
X0217705Y0387999D01*
X021789Y0388925D01*
Y0389277D01*
X0236042D01*
Y0387956D01*
X0238277D01*
Y0382177D01*
X023837Y0381709D01*
X0238635Y0381312D01*
X0243424Y0376522D01*
Y0370747D01*
X0249749D01*
Y0378253D01*
X0245155D01*
X0240723Y0382684D01*
Y0387956D01*
X0242957D01*
Y0392384D01*
X0243419Y0392576D01*
X025046Y0385535D01*
Y0365728D01*
X0250282Y036555D01*
X0249921Y0364677D01*
Y0363732D01*
X0250058Y0363401D01*
X0240362Y0353706D01*
X0236042D01*
Y0347972D01*
X0242957D01*
Y035111D01*
X0249998Y0358151D01*
X025046Y0357959D01*
Y0321304D01*
X0240362Y0311206D01*
X0236042D01*
Y0305472D01*
X0242957D01*
Y030861D01*
X0249998Y0315651D01*
X025046Y0315459D01*
Y0279534D01*
X0250249Y0279376D01*
X0249749Y0279625D01*
Y0286253D01*
X024781D01*
Y0294165D01*
X0247717Y0294634D01*
X0247452Y029503D01*
X0242957Y0299525D01*
Y0303528D01*
X0237951D01*
X0237833Y0303552D01*
X021789D01*
Y0304575D01*
X0217705Y0305501D01*
X0217181Y0306287D01*
X0216395Y0306812D01*
X0215469Y0306996D01*
X0211531D01*
X0210605Y0306812D01*
X0209819Y0306287D01*
X0209295Y0305501D01*
X020911Y0304575D01*
Y0301425D01*
X0209295Y0300499D01*
X0209819Y0299713D01*
X0210605Y0299188D01*
X0211531Y0299004D01*
X0215469D01*
X0216395Y0299188D01*
X0217181Y0299713D01*
X0217705Y0300499D01*
X0217826Y0301105D01*
X0236042D01*
Y0297795D01*
X0241227D01*
X0245363Y0293659D01*
Y0286253D01*
X0243424D01*
Y0278747D01*
X0249197D01*
X0249404Y0278247D01*
X0240362Y0269205D01*
X0236042D01*
Y0263472D01*
X0242957D01*
Y026661D01*
X0249998Y0273651D01*
X025046Y0273459D01*
Y026D01*
Y0240804D01*
X0249139Y0239483D01*
X0248749Y0239799D01*
X0248749Y0240226D01*
Y0247253D01*
X024681D01*
Y0252575D01*
X0246717Y0253043D01*
X0246452Y025344D01*
X0242981Y0256911D01*
Y0256995D01*
X0242957Y0257113D01*
Y0261528D01*
X0236042D01*
Y0259885D01*
X0218739D01*
X0217775Y0260849D01*
X021789Y0261425D01*
Y0264575D01*
X0217705Y0265501D01*
X0217181Y0266287D01*
X0216395Y0266812D01*
X0215469Y0266996D01*
X0211531D01*
X0210605Y0266812D01*
X0209819Y0266287D01*
X0209295Y0265501D01*
X020911Y0264575D01*
Y0261425D01*
X0209295Y0260499D01*
X0209819Y0259713D01*
X0210605Y0259188D01*
X0211531Y0259004D01*
X0215469D01*
X0216045Y0259119D01*
X0217367Y0257796D01*
X0217764Y0257531D01*
X0218232Y0257438D01*
X0236042D01*
Y0255795D01*
X0240722D01*
X0240892Y0255539D01*
X0244363Y0252068D01*
Y0247253D01*
X0242424D01*
Y0239747D01*
X0248252D01*
X0248697Y0239747D01*
X0249013Y0239357D01*
X0240362Y0230705D01*
X0236042D01*
Y0224972D01*
X0242957D01*
Y022811D01*
X0253593Y0238746D01*
X0253991Y0239341D01*
X0254131Y0240043D01*
Y0254916D01*
X0254592Y0255107D01*
X0257498Y0252202D01*
X0258093Y0251804D01*
X0258795Y0251665D01*
X030674D01*
X0311871Y0246534D01*
Y0240816D01*
X0311472D01*
Y0234395D01*
X0310972Y0234188D01*
X0309528Y0235631D01*
Y0240816D01*
X0307198D01*
Y0243911D01*
X030732Y0243961D01*
X0307988Y0244629D01*
X0308349Y0245502D01*
Y0246447D01*
X0307988Y024732D01*
X030732Y0247988D01*
X0306447Y0248349D01*
X0305502D01*
X0304629Y0247988D01*
X0303961Y024732D01*
X03036Y0246447D01*
Y0245502D01*
X0303961Y0244629D01*
X0304629Y0243961D01*
X0304751Y0243911D01*
Y0240816D01*
X0303795D01*
Y0238582D01*
X0297001D01*
Y0240717D01*
X0289298D01*
Y0238582D01*
X0265702D01*
Y0240717D01*
X0257999D01*
Y0233999D01*
X0265702D01*
Y0236135D01*
X0289298D01*
Y0233999D01*
X0297001D01*
Y0236135D01*
X0303795D01*
Y0233901D01*
X0307798D01*
X031282Y0228879D01*
Y0223394D01*
X0310881D01*
Y0215889D01*
X0317206D01*
Y0223394D01*
X0315267D01*
Y0229386D01*
X0315174Y0229854D01*
X0314908Y0230251D01*
X0311759Y0233401D01*
X0311966Y0233901D01*
X0317206D01*
Y0235523D01*
X0320811D01*
X0321513Y0235663D01*
X0322109Y0236061D01*
X0347343Y0261295D01*
X0352253D01*
Y0263233D01*
X0355465D01*
X0355933Y0263326D01*
X035633Y0263592D01*
X0364094Y0271355D01*
X0364972D01*
X0365163Y0270893D01*
X0323635Y0229365D01*
X032337Y0228968D01*
X0323276Y02285D01*
Y0207873D01*
X0322748Y0207731D01*
X0321712Y0207133D01*
X0320867Y0206288D01*
X0320269Y0205252D01*
X031996Y0204098D01*
Y0202902D01*
X0320269Y0201748D01*
X0320867Y0200712D01*
X0321712Y0199867D01*
X0322748Y0199269D01*
X0323902Y019896D01*
X0325098D01*
X0326252Y0199269D01*
X0327288Y0199867D01*
X0328133Y0200712D01*
X0328731Y0201748D01*
X032904Y0202902D01*
Y0204098D01*
X0328731Y0205252D01*
X0328133Y0206288D01*
X0327288Y0207133D01*
X0326252Y0207731D01*
X0325724Y0207873D01*
Y0227993D01*
X0332815Y0235084D01*
X0333277Y0234893D01*
Y0207873D01*
X0332748Y0207731D01*
X0331712Y0207133D01*
X0330867Y0206288D01*
X0330269Y0205252D01*
X032996Y0204098D01*
Y0202902D01*
X0330269Y0201748D01*
X0330867Y0200712D01*
X0331712Y0199867D01*
X0332748Y0199269D01*
X0333902Y019896D01*
X0335098D01*
X0336252Y0199269D01*
X0337288Y0199867D01*
X0338133Y0200712D01*
X0338731Y0201748D01*
X033904Y0202902D01*
Y0204098D01*
X0338731Y0205252D01*
X0338133Y0206288D01*
X0337288Y0207133D01*
X0336252Y0207731D01*
X0335723Y0207873D01*
Y0235096D01*
X0342815Y0242187D01*
X0343277Y0241996D01*
Y0207873D01*
X0342748Y0207731D01*
X0341712Y0207133D01*
X0340867Y0206288D01*
X0340269Y0205252D01*
X033996Y0204098D01*
Y0202902D01*
X0340269Y0201748D01*
X0340867Y0200712D01*
X0341712Y0199867D01*
X0342748Y0199269D01*
X0343902Y019896D01*
X0345098D01*
X0346252Y0199269D01*
X0347288Y0199867D01*
X0348133Y0200712D01*
X0348731Y0201748D01*
X034904Y0202902D01*
Y0204098D01*
X0348731Y0205252D01*
X0348133Y0206288D01*
X0347288Y0207133D01*
X0346252Y0207731D01*
X0345724Y0207873D01*
Y0242564D01*
X0368415Y0265255D01*
X0371372D01*
X0371563Y0264793D01*
X0356094Y0249324D01*
X0355972Y0249375D01*
X0355028D01*
X0354155Y0249013D01*
X0353487Y0248345D01*
X0353125Y0247472D01*
Y0246528D01*
X0353487Y0245655D01*
X0354155Y0244987D01*
X0355028Y0244625D01*
X0355972D01*
X0356845Y0244987D01*
X0357513Y0245655D01*
X0357875Y0246528D01*
Y0247472D01*
X0357824Y0247594D01*
X0375865Y0265635D01*
X037613Y0266032D01*
X0376223Y02665D01*
Y0274709D01*
X037613Y0275178D01*
X0375865Y0275574D01*
X0374132Y0277308D01*
X0373735Y0277573D01*
X0373877Y0277848D01*
X037394Y0277942D01*
X0374048Y0278484D01*
X037394Y0279027D01*
X0373645Y0279468D01*
X037394Y027991D01*
X0374048Y0280453D01*
X037394Y0280995D01*
X0373645Y0281437D01*
X037394Y0281879D01*
X0374048Y0282421D01*
X037394Y0282964D01*
X0373645Y0283405D01*
X037394Y0283847D01*
X0374048Y028439D01*
X037394Y0284932D01*
X0373645Y0285374D01*
X037394Y0285816D01*
X0374048Y0286358D01*
X037394Y0286901D01*
X0373713Y0287241D01*
X0373934Y0287705D01*
X0374423Y0287846D01*
X0376918Y0285351D01*
Y026486D01*
X0376418Y0264499D01*
X0376173Y0264548D01*
X0375631Y026444D01*
X0375171Y0264132D01*
X0374863Y0263672D01*
X0374755Y026313D01*
Y0261179D01*
X0353635Y0240058D01*
X035337Y0239661D01*
X0353276Y0239193D01*
Y0207873D01*
X0352748Y0207731D01*
X0351712Y0207133D01*
X0350867Y0206288D01*
X0350269Y0205252D01*
X034996Y0204098D01*
Y0202902D01*
X0350269Y0201748D01*
X0350867Y0200712D01*
X0351712Y0199867D01*
X0352748Y0199269D01*
X0353902Y019896D01*
X0355098D01*
X0356252Y0199269D01*
X0357288Y0199867D01*
X0358133Y0200712D01*
X0358731Y0201748D01*
X035904Y0202902D01*
Y0204098D01*
X0358731Y0205252D01*
X0358133Y0206288D01*
X0357288Y0207133D01*
X0356252Y0207731D01*
X0355724Y0207873D01*
Y0238686D01*
X0374685Y0257648D01*
X0375171Y02576D01*
X0375631Y0257293D01*
X0376173Y0257185D01*
X0376716Y0257293D01*
X0377157Y0257588D01*
X0377599Y0257293D01*
X0378142Y0257185D01*
X0378387Y0257233D01*
X0378887Y0256872D01*
Y0234617D01*
X0363635Y0219365D01*
X036337Y0218968D01*
X0363277Y02185D01*
Y0207873D01*
X0362748Y0207731D01*
X0361712Y0207133D01*
X0360867Y0206288D01*
X0360269Y0205252D01*
X035996Y0204098D01*
Y0202902D01*
X0360269Y0201748D01*
X0360867Y0200712D01*
X0361712Y0199867D01*
X0362748Y0199269D01*
X0363902Y019896D01*
X0365098D01*
X0366252Y0199269D01*
X0367288Y0199867D01*
X0368133Y0200712D01*
X0368731Y0201748D01*
X036904Y0202902D01*
Y0204098D01*
X0368731Y0205252D01*
X0368133Y0206288D01*
X0367288Y0207133D01*
X0366252Y0207731D01*
X0365723Y0207873D01*
Y0217993D01*
X0380975Y0233245D01*
X0381241Y0233642D01*
X0381334Y023411D01*
Y0256872D01*
X0381834Y0257233D01*
X0382079Y0257185D01*
X0382324Y0257233D01*
X0382824Y0256872D01*
Y0213554D01*
X0376727Y0207457D01*
X0376252Y0207731D01*
X0375098Y020804D01*
X0373902D01*
X0372748Y0207731D01*
X0371712Y0207133D01*
X0370867Y0206288D01*
X0370269Y0205252D01*
X036996Y0204098D01*
Y0202902D01*
X0370269Y0201748D01*
X0370867Y0200712D01*
X0371712Y0199867D01*
X0372748Y0199269D01*
X0373902Y019896D01*
X0375098D01*
X0376252Y0199269D01*
X0377288Y0199867D01*
X0378133Y0200712D01*
X0378731Y0201748D01*
X037904Y0202902D01*
Y0204098D01*
X0378731Y0205252D01*
X0378457Y0205727D01*
X0384912Y0212182D01*
X0385178Y0212579D01*
X0385271Y0213047D01*
Y0229814D01*
X0385733Y0230006D01*
X0397765Y0217973D01*
X0398162Y0217708D01*
X039863Y0217615D01*
X0428543D01*
Y0216972D01*
X0435458D01*
Y0222706D01*
X0428543D01*
Y0220062D01*
X0399137D01*
X0387239Y023196D01*
Y0256872D01*
X0387739Y0257233D01*
X0387984Y0257185D01*
X0388527Y0257293D01*
X0388968Y0257588D01*
X038941Y0257293D01*
X0389953Y0257185D01*
X0390495Y0257293D01*
X0390937Y0257588D01*
X0391379Y0257293D01*
X0391921Y0257185D01*
X0392464Y0257293D01*
X0392905Y0257588D01*
X0393347Y0257293D01*
X039389Y0257185D01*
X0394432Y0257293D01*
X0394892Y02576D01*
X03952Y025806D01*
X0395307Y0258602D01*
Y026313D01*
X03952Y0263672D01*
X0394892Y0264132D01*
X0395028Y0264598D01*
X0395055Y0264625D01*
X0395972D01*
X0396845Y0264987D01*
X0397513Y0265655D01*
X0397875Y0266528D01*
Y0267418D01*
X039964D01*
X0400001Y0266918D01*
X0399952Y0266673D01*
X040006Y0266131D01*
X0400367Y0265671D01*
X0400828Y0265363D01*
X040137Y0265255D01*
X040241D01*
Y026393D01*
X0402289Y0263879D01*
X0401621Y0263211D01*
X0401259Y0262338D01*
Y0261394D01*
X0401621Y0260521D01*
X0402289Y0259853D01*
X0403161Y0259491D01*
X0404106D01*
X0404979Y0259853D01*
X0405647Y0260521D01*
X0406009Y0261394D01*
Y0262338D01*
X0405647Y0263211D01*
X0404979Y0263879D01*
X0404857Y026393D01*
Y0265255D01*
X0405898D01*
X040644Y0265363D01*
X04069Y0265671D01*
X0407207Y0266131D01*
X0407315Y0266673D01*
X0407207Y0267216D01*
X0406912Y0267657D01*
X0407207Y0268099D01*
X0407315Y0268642D01*
X0407207Y0269184D01*
X0406912Y0269626D01*
X0407207Y0270068D01*
X0407315Y027061D01*
X0407207Y0271153D01*
X0406912Y0271595D01*
X0407207Y0272036D01*
X0407315Y0272579D01*
X0407207Y0273121D01*
X0406912Y0273563D01*
X0407207Y0274005D01*
X0407315Y0274547D01*
X0407281Y0274719D01*
X0407677Y0275219D01*
X040955D01*
X0428135Y0256635D01*
X0428532Y025637D01*
X0429Y0256276D01*
X0480493D01*
X051361Y0223159D01*
X051346Y0222598D01*
Y0221402D01*
X0513769Y0220248D01*
X0514367Y0219212D01*
X0515212Y0218367D01*
X0516248Y0217769D01*
X0517402Y021746D01*
X0518598D01*
X0519752Y0217769D01*
X0520788Y0218367D01*
X0521633Y0219212D01*
X0522231Y0220248D01*
X052254Y0221402D01*
Y0222598D01*
X0522231Y0223752D01*
X0521633Y0224788D01*
X0520788Y0225633D01*
X0519752Y0226231D01*
X0518598Y022654D01*
X0517402D01*
X0516248Y0226231D01*
X0515212Y0225633D01*
X0514905Y0225325D01*
X0481865Y0258365D01*
X0481468Y025863D01*
X0481Y0258723D01*
X0429507D01*
X0411595Y0276635D01*
X0411788Y027715D01*
X0412085Y0277185D01*
X0425135Y0264135D01*
X0425532Y026387D01*
X0426Y0263776D01*
X0483493D01*
X0513716Y0233554D01*
X051346Y0232598D01*
Y0231402D01*
X0513769Y0230248D01*
X0514367Y0229212D01*
X0515212Y0228367D01*
X0516248Y0227769D01*
X0517402Y022746D01*
X0518598D01*
X0519752Y0227769D01*
X0520788Y0228367D01*
X0521633Y0229212D01*
X0522231Y0230248D01*
X052254Y0231402D01*
Y0232598D01*
X0522231Y0233752D01*
X0521633Y0234788D01*
X0520788Y0235633D01*
X0519752Y0236231D01*
X0518598Y023654D01*
X0517402D01*
X0516248Y0236231D01*
X0515212Y0235633D01*
X0515155Y0235576D01*
X0484865Y0265865D01*
X0484468Y026613D01*
X0484Y0266224D01*
X0426507D01*
X0413381Y0279349D01*
X0412984Y0279615D01*
X0412516Y0279708D01*
X0407628D01*
X0407267Y0280208D01*
X0407315Y0280453D01*
X0407207Y0280995D01*
X0406912Y0281437D01*
X0407207Y0281879D01*
X0407315Y0282421D01*
X0407267Y0282666D01*
X0407628Y0283166D01*
X0410835D01*
X0426867Y0267135D01*
X0427263Y026687D01*
X0427732Y0266776D01*
X0507606D01*
X0508075Y026687D01*
X0508471Y0267135D01*
X0529307Y028797D01*
X0530075Y0287652D01*
X0531106Y0287516D01*
X0531894D01*
X0532925Y0287652D01*
X0533885Y028805D01*
X0534508Y0288528D01*
X0535008Y0288281D01*
Y028721D01*
X0533081Y0285283D01*
X0532925Y0285348D01*
X0531894Y0285484D01*
X0531106D01*
X0530075Y0285348D01*
X0529114Y028495D01*
X0528289Y0284317D01*
X0527656Y0283492D01*
X0527258Y0282531D01*
X0527123Y02815D01*
X0527258Y0280469D01*
X0527656Y0279508D01*
X0528289Y0278683D01*
X0529114Y027805D01*
X0530075Y0277652D01*
X0531106Y0277516D01*
X0531894D01*
X0532925Y0277652D01*
X0533885Y027805D01*
X0534711Y0278683D01*
X0535344Y0279508D01*
X0535742Y0280469D01*
X0535877Y02815D01*
X0535742Y0282531D01*
X0535677Y0282688D01*
X0538141Y0285152D01*
X0538539Y0285747D01*
X0538679Y028645D01*
Y030355D01*
X0538539Y0304253D01*
X0538141Y0304848D01*
X0535242Y0307747D01*
X0534646Y0308145D01*
X0533944Y0308285D01*
X0527914D01*
X0527211Y0308145D01*
X0526616Y0307747D01*
X0514361Y0295492D01*
X0512253D01*
Y0296819D01*
X0504747D01*
Y0295414D01*
X0500445D01*
X0500345Y0295513D01*
X0499472Y0295875D01*
X0498528D01*
X0497655Y0295513D01*
X0496987Y0294845D01*
X0496625Y0293972D01*
Y0293721D01*
X049574Y0292835D01*
X04555D01*
X0450104Y0298231D01*
X0450269Y0298774D01*
X0450773Y0298874D01*
X0451428Y0299312D01*
X0451866Y0299967D01*
X045202Y030074D01*
Y0305858D01*
X0451866Y0306631D01*
X0451428Y0307287D01*
X0450773Y0307724D01*
X045Y0307878D01*
X0449758Y030783D01*
X0448484Y0309104D01*
X0448087Y030937D01*
X0447619Y0309463D01*
X0437739D01*
X0437271Y030937D01*
X0436874Y0309104D01*
X043001Y0302241D01*
X0416939D01*
X0416471Y0302148D01*
X0416074Y0301882D01*
X041404Y0299849D01*
X0405232D01*
X0405041Y0300311D01*
X0406293Y0301562D01*
X0406558Y0301959D01*
X0406651Y0302427D01*
Y030685D01*
X0411543Y0311741D01*
X0412043Y0311534D01*
Y0306294D01*
X0418958D01*
Y0307326D01*
X0426267D01*
X0426667Y0306926D01*
X0426987Y0306155D01*
X0427655Y0305487D01*
X0428528Y0305125D01*
X0429472D01*
X0430345Y0305487D01*
X0431013Y0306155D01*
X0431375Y0307028D01*
Y0307972D01*
X0431013Y0308845D01*
X0430345Y0309513D01*
X0429472Y0309875D01*
X042891D01*
X0428325Y0310459D01*
X042773Y0310857D01*
X0427028Y0310997D01*
X0418958D01*
Y0312028D01*
X0412537D01*
X0412329Y0312528D01*
X0413773Y0313972D01*
X0418958D01*
Y0318387D01*
X0418981Y0318506D01*
Y0318589D01*
X0425865Y0325473D01*
X042613Y032587D01*
X0426224Y0326339D01*
Y0329436D01*
X0426345Y0329487D01*
X0427013Y0330155D01*
X0427064Y0330276D01*
X0433358D01*
X0433826Y033037D01*
X0434223Y0330635D01*
X0439758Y033617D01*
X044Y0336122D01*
X0440773Y0336276D01*
X0441428Y0336713D01*
X0441866Y0337369D01*
X044202Y0338142D01*
Y034326D01*
X0441889Y0343917D01*
X0441905Y0343954D01*
X0442165Y0344171D01*
X0442298Y0344232D01*
X0443028Y0343501D01*
X044298Y034326D01*
Y0338142D01*
X0443134Y0337369D01*
X0443572Y0336713D01*
X0444227Y0336276D01*
X0445Y0336122D01*
X0445773Y0336276D01*
X0446428Y0336713D01*
X0446866Y0337369D01*
X044702Y0338142D01*
Y034326D01*
X0446866Y0344033D01*
X0446428Y0344688D01*
X0445773Y0345126D01*
X0445Y034528D01*
X0444758Y0345232D01*
X0443484Y0346506D01*
X0443087Y0346771D01*
X0442619Y0346864D01*
X0426138D01*
X042567Y0346771D01*
X0425273Y0346506D01*
X0414109Y0335342D01*
X0403619D01*
X0403151Y0335249D01*
X0402754Y0334984D01*
X0398466Y0330697D01*
X0398201Y03303D01*
X0398108Y0329831D01*
Y0328564D01*
X0397986Y0328513D01*
X0397318Y0327845D01*
X0396957Y0326972D01*
Y0326028D01*
X0397318Y0325155D01*
X0397986Y0324487D01*
X0398108Y0324436D01*
Y0319205D01*
X0395042D01*
Y031479D01*
X0395019Y0314672D01*
Y0313332D01*
X0389635Y0307948D01*
X038937Y0307551D01*
X0389277Y0307083D01*
Y0305464D01*
X0385151Y0301338D01*
X0384885Y0300941D01*
X0384792Y0300473D01*
Y0298128D01*
X0384292Y0297767D01*
X0384047Y0297815D01*
X0383505Y0297708D01*
X0383063Y0297412D01*
X0382621Y0297708D01*
X0382079Y0297815D01*
X0381536Y0297708D01*
X0381095Y0297412D01*
X0380653Y0297708D01*
X038011Y0297815D01*
X0379568Y0297708D01*
X0379108Y02974D01*
X03788Y029694D01*
X0378692Y0296398D01*
Y029187D01*
X03788Y0291328D01*
X0379108Y0290867D01*
X0379568Y029056D01*
X038011Y0290452D01*
X0380653Y029056D01*
X0381095Y0290855D01*
X0381536Y029056D01*
X0382079Y0290452D01*
X0382219Y029048D01*
X0382465Y0290019D01*
X0382034Y0289588D01*
X0381672Y0288715D01*
Y0287771D01*
X0382034Y0286898D01*
X0382702Y028623D01*
X0383575Y0285868D01*
X038452D01*
X0385392Y028623D01*
X0386061Y0286898D01*
X0386422Y0287771D01*
Y0288715D01*
X0386061Y0289588D01*
X0385629Y0290019D01*
X0385876Y029048D01*
X0386016Y0290452D01*
X0386558Y029056D01*
X0387Y0290855D01*
X0387442Y029056D01*
X0387984Y0290452D01*
X0388527Y029056D01*
X0388968Y0290855D01*
X038941Y029056D01*
X0389953Y0290452D01*
X0390495Y029056D01*
X0390937Y0290855D01*
X0391379Y029056D01*
X0391921Y0290452D01*
X0392464Y029056D01*
X0392905Y0290855D01*
X0393347Y029056D01*
X039389Y0290452D01*
X0394432Y029056D01*
X0394874Y0290855D01*
X0395316Y029056D01*
X0395858Y0290452D01*
X0396401Y029056D01*
X0396843Y0290855D01*
X0397284Y029056D01*
X0397827Y0290452D01*
X0398369Y029056D01*
X0398829Y0290867D01*
X0399137Y0291328D01*
X0399245Y029187D01*
Y029291D01*
X0412318D01*
X0412787Y0293004D01*
X0413183Y0293269D01*
X0417191Y0297276D01*
X0432493D01*
X0447635Y0282135D01*
X0448032Y028187D01*
X04485Y0281776D01*
X05115D01*
X0511968Y028187D01*
X0512365Y0282135D01*
X0528643Y0298412D01*
X0529114Y029805D01*
X0530075Y0297652D01*
X0531106Y0297516D01*
X0531894D01*
X0532925Y0297652D01*
X0533885Y029805D01*
X0534508Y0298528D01*
X0535008Y0298281D01*
Y0294719D01*
X0534508Y0294472D01*
X0533885Y029495D01*
X0532925Y0295348D01*
X0531894Y0295484D01*
X0531106D01*
X0530075Y0295348D01*
X0529114Y029495D01*
X0528289Y0294317D01*
X0527656Y0293492D01*
X0527258Y0292531D01*
X0527123Y02915D01*
X0527258Y0290469D01*
X0527577Y0289701D01*
X0507099Y0269223D01*
X0428238D01*
X0412207Y0285255D01*
X041181Y028552D01*
X0411342Y0285613D01*
X0406569D01*
X040644Y02857D01*
X0405898Y0285808D01*
X040137D01*
X0400828Y02857D01*
X0400367Y0285392D01*
X040006Y0284932D01*
X0399952Y028439D01*
X040006Y0283847D01*
X0400355Y0283405D01*
X040006Y0282964D01*
X0399952Y0282421D01*
X040006Y0281879D01*
X0400355Y0281437D01*
X040006Y0280995D01*
X0399952Y0280453D01*
X040006Y027991D01*
X0400355Y0279468D01*
X040006Y0279027D01*
X0399952Y0278484D01*
X040006Y0277942D01*
X0400355Y02775D01*
X040006Y0277058D01*
X0399952Y0276516D01*
X039996Y0276478D01*
X0399499Y0276231D01*
X0398673Y0277057D01*
Y0278815D01*
X0399013Y0279155D01*
X0399375Y0280028D01*
Y0280972D01*
X0399013Y0281845D01*
X0398345Y0282513D01*
X0397472Y0282875D01*
X0396528D01*
X0395655Y0282513D01*
X0394987Y0281845D01*
X0394625Y0280972D01*
Y0280028D01*
X0394833Y0279525D01*
X0394409Y0279242D01*
X0394345Y0279306D01*
X0393472Y0279668D01*
X0392528D01*
X0391655Y0279306D01*
X0390987Y0278638D01*
X0390625Y0277765D01*
Y027682D01*
X0390987Y0275948D01*
X0391098Y0275837D01*
X0390904Y0275324D01*
X0390155Y0275013D01*
X0389487Y0274345D01*
X0389125Y0273472D01*
Y0272528D01*
X0389487Y0271655D01*
X0390155Y0270987D01*
X0391028Y0270625D01*
X0391972D01*
X0392094Y0270676D01*
X0393025Y0269745D01*
X0393422Y026948D01*
X0393862Y0269392D01*
X0393915Y0269295D01*
X0394028Y0268887D01*
X0393487Y0268345D01*
X0393125Y0267472D01*
Y0266528D01*
X0393487Y0265655D01*
X0394132Y0265009D01*
X0394131Y0264972D01*
X039389Y0264548D01*
X0393347Y026444D01*
X0392905Y0264145D01*
X0392464Y026444D01*
X0391921Y0264548D01*
X0391581Y026498D01*
X0391577Y0265218D01*
X0392013Y0265655D01*
X0392375Y0266528D01*
Y0267472D01*
X0392013Y0268345D01*
X0391345Y0269013D01*
X0390472Y0269375D01*
X0389528D01*
X0388655Y0269013D01*
X0387987Y0268345D01*
X0387625Y0267472D01*
Y0266528D01*
X0387987Y0265655D01*
X038842Y0265222D01*
X0388409Y0264945D01*
X0387984Y0264548D01*
X0387442Y026444D01*
X0387Y0264145D01*
X0386558Y026444D01*
X0386016Y0264548D01*
X0385473Y026444D01*
X0385032Y0264145D01*
X038459Y026444D01*
X0384047Y0264548D01*
X0383875Y0264513D01*
X0383375Y0264909D01*
Y0280097D01*
X0383513Y0280154D01*
X0384181Y0280822D01*
X0384542Y0281695D01*
Y028264D01*
X0384181Y0283513D01*
X0383513Y0284181D01*
X038264Y0284542D01*
X0381695D01*
X0380822Y0284181D01*
X0380154Y0283513D01*
X0379865Y0282815D01*
X0379365Y0282915D01*
Y0285858D01*
X0379272Y0286327D01*
X0379007Y0286723D01*
X0375692Y0290038D01*
X0375938Y0290499D01*
X0376173Y0290452D01*
X0376716Y029056D01*
X0377176Y0290867D01*
X0377483Y0291328D01*
X0377591Y029187D01*
Y0296398D01*
X0377483Y029694D01*
X0377397Y029707D01*
Y0302747D01*
X0380619D01*
Y0310253D01*
X0374294D01*
Y0308723D01*
X0373564D01*
X0373513Y0308845D01*
X0372845Y0309513D01*
X0371972Y0309875D01*
X0371028D01*
X0370155Y0309513D01*
X0369876Y0309898D01*
X0374273Y0314295D01*
X0379457D01*
Y0320028D01*
X0372543D01*
Y0316025D01*
X0363735Y0307217D01*
X036347Y030682D01*
X0363376Y0306352D01*
Y028818D01*
X0362915Y0287989D01*
X0360723Y029018D01*
Y031345D01*
X0361312Y0314039D01*
X0361483Y0314295D01*
X0366753D01*
Y0320619D01*
X0360978D01*
X0359731Y0321865D01*
X0359334Y032213D01*
X0358866Y0322223D01*
X035419D01*
Y0325343D01*
X0348653D01*
Y0316657D01*
X035419D01*
Y0319777D01*
X0358359D01*
X0359247Y0318889D01*
Y0315613D01*
X0359224Y0315494D01*
Y0315411D01*
X0358635Y0314822D01*
X035837Y0314425D01*
X0358277Y0313957D01*
Y0289673D01*
X035837Y0289205D01*
X0358635Y0288808D01*
X0363332Y0284111D01*
X036314Y0283649D01*
X0360581D01*
X0356224Y0288007D01*
Y0302453D01*
X035613Y0302921D01*
X0355865Y0303318D01*
X0353205Y0305978D01*
Y0311753D01*
X0351267D01*
Y0312153D01*
X0351174Y0312621D01*
X0350908Y0313018D01*
X0348057Y031587D01*
X034766Y0316135D01*
X0347191Y0316228D01*
X0346506D01*
X0344347Y0318387D01*
Y0325343D01*
X033881D01*
Y0316657D01*
X0342617D01*
X0345134Y031414D01*
X0345531Y0313874D01*
X0345999Y0313781D01*
X0346685D01*
X0348251Y0312215D01*
X034806Y0311753D01*
X0346881D01*
Y0304247D01*
X0351475D01*
X0353777Y0301946D01*
Y02875D01*
X035387Y0287032D01*
X0354135Y0286635D01*
X0358631Y0282138D01*
X035844Y0281676D01*
X0356983D01*
X0349956Y0288704D01*
X0349559Y0288969D01*
X0349091Y0289062D01*
X0337864D01*
X0335787Y0291139D01*
X033539Y0291404D01*
X0334922Y0291497D01*
X0327237D01*
Y0312328D01*
X0317763D01*
Y0301924D01*
X0301253D01*
Y0303863D01*
X0293747D01*
Y0297539D01*
X0301253D01*
Y0299477D01*
X0317763D01*
Y0289074D01*
X0325919D01*
X0326037Y0289051D01*
X0334415D01*
X0336492Y0286973D01*
X0336889Y0286708D01*
X0337357Y0286615D01*
X0348584D01*
X0355611Y0279588D01*
X0356008Y0279322D01*
X0356476Y0279229D01*
X0365846D01*
X0366053Y0278729D01*
X0365048Y0277724D01*
X0352668D01*
X0349365Y0281027D01*
X0348968Y0281292D01*
X03485Y0281385D01*
X0339357D01*
X0338889Y0281292D01*
X0338492Y0281027D01*
X0332415Y027495D01*
X0326037D01*
X0325919Y0274926D01*
X0317763D01*
Y0264523D01*
X0301253D01*
Y0266461D01*
X0293747D01*
Y0260137D01*
X0301253D01*
Y0262076D01*
X0317763D01*
Y0251672D01*
X0327237D01*
Y0272502D01*
X0332922D01*
X033339Y0272596D01*
X0333787Y0272861D01*
X0339864Y0278938D01*
X0347993D01*
X0351296Y0275635D01*
X0351693Y027537D01*
X0352161Y0275276D01*
X0365554D01*
X0366023Y027537D01*
X0366418Y0275634D01*
X036642Y0275635D01*
X0367062Y027557D01*
X03671Y0275513D01*
X036756Y0275206D01*
X0368102Y0275098D01*
X037263D01*
X0372839Y027514D01*
X0373483Y0274496D01*
X0373454Y0274302D01*
X0373411Y0274239D01*
X03729Y0273943D01*
X037263Y0273996D01*
X0368102D01*
X036756Y0273889D01*
X036743Y0273802D01*
X0363587D01*
X0363119Y0273709D01*
X0362722Y0273444D01*
X0354958Y026568D01*
X0352253D01*
Y0267619D01*
X0344747D01*
Y026389D01*
X0320051Y0239194D01*
X0317206D01*
Y0240816D01*
X0315541D01*
Y0247294D01*
X0315402Y0247996D01*
X0315004Y0248592D01*
X0308798Y0254798D01*
X0308202Y0255196D01*
X03075Y0255335D01*
X0259556D01*
X0254131Y026076D01*
Y0278543D01*
Y0320543D01*
Y0362682D01*
X0254309Y036286D01*
X025467Y0363732D01*
Y0364677D01*
X0254309Y036555D01*
X0254131Y0365728D01*
Y0386295D01*
X0253991Y0386998D01*
X0253593Y0387593D01*
X0242957Y0398229D01*
Y0400637D01*
X0243458Y040079D01*
X0246324Y0396544D01*
X0246422Y0396447D01*
X0246514Y0396345D01*
X0246534Y0396335D01*
X024655Y039632D01*
X0246678Y0396268D01*
X0246802Y0396209D01*
X0250802Y0395209D01*
X0250902Y0395204D01*
X0251Y0395184D01*
X02625D01*
X0262812Y0395246D01*
X0263077Y0395423D01*
X0263254Y0395688D01*
X0263316Y0396D01*
Y04005D01*
X0263308Y0400538D01*
X0263312Y0400577D01*
X0261026Y0424815D01*
X0261362Y0425184D01*
X0282247D01*
Y0424924D01*
X0289753D01*
Y0425184D01*
X03085D01*
X0308812Y0425246D01*
X0309077Y0425423D01*
X0309254Y0425688D01*
X0309316Y0426D01*
Y0429012D01*
X0310969Y0430665D01*
X0321642D01*
X0321766Y0430582D01*
X0322193Y0430497D01*
X0329358D01*
X0329786Y0430582D01*
X0330148Y0430825D01*
X033039Y0431187D01*
X0330475Y0431614D01*
Y0433386D01*
X033039Y0433813D01*
X0330148Y0434175D01*
X0329786Y0434418D01*
X0329358Y0434503D01*
X0322193D01*
X0321766Y0434418D01*
X0321642Y0434335D01*
X0310209D01*
X0309816Y0434257D01*
X0309394Y043452D01*
X0309316Y0434624D01*
Y04475D01*
X0309254Y0447812D01*
X0309253Y0447813D01*
Y0448162D01*
X0308949D01*
X0308812Y0448254D01*
X03085Y0448316D01*
X0283666D01*
X027083Y0461151D01*
X0261725Y0471494D01*
X0261705Y0471511D01*
X026169Y0471532D01*
X0261579Y0471607D01*
X0261473Y0471688D01*
X0261447Y0471695D01*
X0261425Y0471709D01*
X0261294Y0471735D01*
X0261165Y047177D01*
X0261139Y0471766D01*
X0261113Y0471771D01*
X0248278D01*
Y0477693D01*
X0248176Y0478467D01*
X0247878Y0479188D01*
X0247402Y0479808D01*
X0246783Y0480283D01*
X0246061Y0480582D01*
X0245287Y0480684D01*
D02*
G37*
G36*
X0442635Y0447528D02*
X043572D01*
Y0441794D01*
X0437342D01*
Y0432406D01*
X0436015D01*
Y0425688D01*
X0442339D01*
Y0432406D01*
X0441012D01*
Y0441794D01*
X0442635D01*
Y0447528D01*
D02*
G37*
G36*
X0329358Y0429503D02*
X0322193D01*
X0321766Y0429418D01*
X0321642Y0429335D01*
X03195D01*
X0318798Y0429196D01*
X0318202Y0428798D01*
X0317202Y0427798D01*
X0317202Y0427798D01*
X0311945Y042254D01*
X0308958D01*
Y0423572D01*
X0302043D01*
Y0417838D01*
X0308958D01*
Y0418869D01*
X0312705D01*
X0313407Y0419009D01*
X0314002Y0419407D01*
X0316203Y0421607D01*
X0316665Y0421416D01*
Y0403752D01*
X0316804Y040305D01*
X0317202Y0402454D01*
X0324294Y0395362D01*
Y0391042D01*
X0330028D01*
Y0397957D01*
X032689D01*
X0320335Y0404512D01*
Y0425665D01*
X0321642D01*
X0321766Y0425582D01*
X0322193Y0425497D01*
X0329358D01*
X0329786Y0425582D01*
X0330148Y0425824D01*
X033039Y0426187D01*
X0330475Y0426614D01*
Y0428386D01*
X033039Y0428813D01*
X0330148Y0429176D01*
X0329786Y0429418D01*
X0329358Y0429503D01*
D02*
G37*
G36*
X02904Y04009D02*
X02826D01*
Y0395695D01*
X0279563Y0392658D01*
X0262457D01*
Y039369D01*
X0255542D01*
Y0387956D01*
X0262457D01*
Y0388988D01*
X0280323D01*
X0281025Y0389127D01*
X0281621Y0389525D01*
X0285195Y03931D01*
X02904D01*
Y04009D01*
D02*
G37*
G36*
X0379457Y042769D02*
X0372543D01*
Y0421956D01*
X0374186D01*
Y0398253D01*
X0372881D01*
Y0390747D01*
X0379205D01*
Y0398253D01*
X0377857D01*
Y0421956D01*
X0379457D01*
Y042769D01*
D02*
G37*
G36*
X0348807Y0429503D02*
X0341642D01*
X0341214Y0429418D01*
X0340852Y0429176D01*
X034061Y0428813D01*
X0340525Y0428386D01*
Y0426614D01*
X034061Y0426187D01*
X0340852Y0425824D01*
X0341214Y0425582D01*
X0341642Y0425497D01*
X0348807D01*
X0349234Y0425582D01*
X0349358Y0425665D01*
X0352702D01*
X035425Y0424118D01*
X0354845Y042372D01*
X0355547Y042358D01*
X0357747D01*
Y0422251D01*
X0362657D01*
X0367121Y0417787D01*
Y0398253D01*
X0365794D01*
Y0390747D01*
X0372119D01*
Y0398253D01*
X0370792D01*
Y0418547D01*
X0370652Y041925D01*
X0370254Y0419845D01*
X0365253Y0424847D01*
Y0428576D01*
X0357747D01*
Y0427251D01*
X0356307D01*
X035476Y0428798D01*
X0354165Y0429196D01*
X0353463Y0429335D01*
X0349358D01*
X0349234Y0429418D01*
X0348807Y0429503D01*
D02*
G37*
G36*
X0329358Y0424503D02*
X0322193D01*
X0321766Y0424418D01*
X0321403Y0424176D01*
X0321161Y0423813D01*
X0321076Y0423386D01*
Y0421614D01*
X0321161Y0421187D01*
X0321403Y0420824D01*
X0321766Y0420582D01*
X0322193Y0420497D01*
X032788D01*
X0352346Y0396031D01*
Y0395862D01*
X0352381Y0395685D01*
Y0390747D01*
X0358705D01*
Y0398253D01*
X0355315D01*
X0330475Y0423093D01*
Y0423386D01*
X033039Y0423813D01*
X0330148Y0424176D01*
X0329786Y0424418D01*
X0329358Y0424503D01*
D02*
G37*
G36*
X0393957Y042769D02*
X0387042D01*
Y0421956D01*
X0387326D01*
Y0397957D01*
X0386295D01*
Y0391042D01*
X038674D01*
X0386947Y0390543D01*
X038524Y0388835D01*
X036576D01*
X0363335Y039126D01*
Y041D01*
X0363196Y0410702D01*
X0362798Y0411298D01*
X0350479Y0423617D01*
X0349883Y0424015D01*
X0349677Y0424056D01*
X0349597Y0424176D01*
X0349234Y0424418D01*
X0348807Y0424503D01*
X0341642D01*
X0341214Y0424418D01*
X0340852Y0424176D01*
X034061Y0423813D01*
X0340525Y0423386D01*
Y0421614D01*
X034061Y0421187D01*
X0340852Y0420824D01*
X0341214Y0420582D01*
X0341642Y0420497D01*
X0345336D01*
X0345406Y0420484D01*
X0348421D01*
X0359665Y040924D01*
Y03905D01*
X0359804Y0389798D01*
X0360202Y0389202D01*
X0363702Y0385702D01*
X0364298Y0385304D01*
X0365Y0385165D01*
X0386D01*
X0386702Y0385304D01*
X0387298Y0385702D01*
X0390312Y0388716D01*
X039071Y0389312D01*
X0390849Y0390014D01*
Y0391042D01*
X0392028D01*
Y0397957D01*
X0390997D01*
Y0421956D01*
X0393957D01*
Y042769D01*
D02*
G37*
G36*
X0353205Y0376253D02*
X0346881D01*
Y0368747D01*
X0348356D01*
Y036604D01*
X0340957D01*
X0340779Y0366218D01*
X0339907Y036658D01*
X0338962D01*
X0338089Y0366218D01*
X0337421Y036555D01*
X0337059Y0364677D01*
Y0363732D01*
X0337421Y036286D01*
X0338089Y0362192D01*
X0338962Y036183D01*
X0339907D01*
X0340779Y0362192D01*
X0340957Y0362369D01*
X0348356D01*
Y0359859D01*
X0347176D01*
Y0353141D01*
X0350905D01*
X0362785Y0341261D01*
X036338Y0340863D01*
X0363499Y034084D01*
Y0337641D01*
X0369824D01*
Y0342185D01*
X0369859Y0342362D01*
Y0343264D01*
X0370676Y0344081D01*
X0371176Y0343874D01*
Y0337641D01*
X0372503D01*
Y0334185D01*
X0372643Y0333483D01*
X0373041Y0332887D01*
X0374165Y0331763D01*
Y0327706D01*
X0372543D01*
Y0321972D01*
X0379457D01*
Y0327706D01*
X0377835D01*
Y0332524D01*
X0377696Y0333226D01*
X0377298Y0333821D01*
X0376174Y0334945D01*
Y0337641D01*
X0377501D01*
Y0344165D01*
X0377501Y0344359D01*
X0377874Y0344665D01*
X039424D01*
X0399202Y0339702D01*
X0399798Y0339304D01*
X04005Y0339165D01*
X0411957D01*
X0412659Y0339304D01*
X0412922Y033948D01*
X041363D01*
X0414403Y0339634D01*
X0415058Y0340072D01*
X0415496Y0340727D01*
X041565Y03415D01*
X0415496Y0342273D01*
X0415058Y0342928D01*
X0414403Y0343366D01*
X041363Y034352D01*
X0410284D01*
X0409511Y0343366D01*
X0408855Y0342928D01*
X0408793Y0342835D01*
X040126D01*
X0396298Y0347798D01*
X0395702Y0348196D01*
X0395Y0348335D01*
X0375248D01*
X0374828Y0348527D01*
Y0356783D01*
X0379209Y0361165D01*
X0388432D01*
Y0355802D01*
X0398497D01*
Y0358184D01*
X04205D01*
X0420812Y0358246D01*
X0421077Y0358423D01*
X0421254Y0358688D01*
X0421316Y0359D01*
Y0360428D01*
X0421568D01*
Y0365572D01*
X0421316D01*
Y03675D01*
X0421254Y0367812D01*
X0421077Y0368077D01*
X0420812Y0368254D01*
X04205Y0368316D01*
X0398497D01*
Y0370198D01*
X0388432D01*
Y0364835D01*
X0378449D01*
X0377747Y0364696D01*
X0377151Y0364298D01*
X0372232Y0359379D01*
X036615D01*
X0365972Y0359414D01*
X0365134D01*
X0353205Y0371343D01*
Y0376253D01*
D02*
G37*
G36*
X0296445Y036752D02*
X0293098D01*
X0292325Y0367366D01*
X029167Y0366928D01*
X0291232Y0366273D01*
X0291078Y03655D01*
X0291232Y0364727D01*
X029167Y0364072D01*
X0292325Y0363634D01*
X0293098Y036348D01*
X0296445D01*
X0297218Y0363634D01*
X0297873Y0364072D01*
X0298311Y0364727D01*
X0298465Y03655D01*
X0298311Y0366273D01*
X0297873Y0366928D01*
X0297218Y0367366D01*
X0296445Y036752D01*
D02*
G37*
G36*
X0297013Y04009D02*
X0295987D01*
X0294995Y0400634D01*
X0294105Y0400121D01*
X0293379Y0399395D01*
X0292866Y0398505D01*
X02926Y0397513D01*
Y0396487D01*
X0292866Y0395495D01*
X0293379Y0394605D01*
X0294105Y0393879D01*
X0294995Y0393366D01*
X0295987Y03931D01*
X0297013D01*
X0297637Y0393267D01*
X0303665Y038724D01*
Y03645D01*
Y0342523D01*
X0303487Y0342345D01*
X0303125Y0341472D01*
Y0340528D01*
X0303487Y0339655D01*
X0304155Y0338987D01*
X0305028Y0338625D01*
X0305972D01*
X0306845Y0338987D01*
X0307513Y0339655D01*
X0307875Y0340528D01*
Y0341472D01*
X0307513Y0342345D01*
X0307335Y0342523D01*
Y0359416D01*
X0307797Y0359607D01*
X0308202Y0359202D01*
X0308798Y0358804D01*
X03095Y0358665D01*
X0313736D01*
X0313782Y0358634D01*
X0314555Y035848D01*
X0317902D01*
X0318675Y0358634D01*
X031933Y0359072D01*
X0319768Y0359727D01*
X0319921Y03605D01*
X0319768Y0361273D01*
X031933Y0361928D01*
X0318675Y0362366D01*
X0317902Y036252D01*
X0314555D01*
X0313782Y0362366D01*
X0313736Y0362335D01*
X031026D01*
X0307335Y036526D01*
Y0388D01*
X0307196Y0388702D01*
X0306798Y0389298D01*
X0300233Y0395863D01*
X03004Y0396487D01*
Y0397513D01*
X0300134Y0398505D01*
X0299621Y0399395D01*
X0298895Y0400121D01*
X0298005Y0400634D01*
X0297013Y04009D01*
D02*
G37*
G36*
X0296445Y036252D02*
X0293098D01*
X0292325Y0362366D01*
X029167Y0361928D01*
X0291232Y0361273D01*
X0291078Y03605D01*
X0291232Y0359727D01*
X029167Y0359072D01*
X0292325Y0358634D01*
X0293098Y035848D01*
X0296445D01*
X0297218Y0358634D01*
X0297873Y0359072D01*
X0298311Y0359727D01*
X0298465Y03605D01*
X0298311Y0361273D01*
X0297873Y0361928D01*
X0297218Y0362366D01*
X0296445Y036252D01*
D02*
G37*
G36*
Y035752D02*
X0293098D01*
X0292325Y0357366D01*
X029167Y0356928D01*
X0291232Y0356273D01*
X0291078Y03555D01*
X0291232Y0354727D01*
X029167Y0354072D01*
X0292325Y0353634D01*
X0293098Y035348D01*
X0296445D01*
X0297218Y0353634D01*
X0297873Y0354072D01*
X0298311Y0354727D01*
X0298465Y03555D01*
X0298311Y0356273D01*
X0297873Y0356928D01*
X0297218Y0357366D01*
X0296445Y035752D01*
D02*
G37*
G36*
X0270472Y0374375D02*
X0269528D01*
X0268655Y0374013D01*
X0267987Y0373345D01*
X0267625Y0372472D01*
Y0371528D01*
X0267987Y0370655D01*
X0268655Y0369987D01*
X0269528Y0369625D01*
X0269779D01*
X0290133Y0349272D01*
X0290728Y0348874D01*
X0291431Y0348734D01*
X0292176D01*
X0292325Y0348634D01*
X0293098Y034848D01*
X0296445D01*
X0297218Y0348634D01*
X0297873Y0349072D01*
X0298311Y0349727D01*
X0298465Y03505D01*
X0298311Y0351273D01*
X0297873Y0351928D01*
X0297218Y0352366D01*
X0296445Y035252D01*
X0293098D01*
X0292518Y0352405D01*
X0292191D01*
X0272375Y0372221D01*
Y0372472D01*
X0272013Y0373345D01*
X0271345Y0374013D01*
X0270472Y0374375D01*
D02*
G37*
G36*
X0277706Y035115D02*
X0271972D01*
Y0344729D01*
X0271472Y0344522D01*
X0270028Y0345966D01*
Y035115D01*
X0264295D01*
Y0344235D01*
X0268298D01*
X0274276Y0338257D01*
Y0336855D01*
X0273508Y0336537D01*
X0272683Y0335904D01*
X027205Y0335079D01*
X0271652Y0334118D01*
X0271516Y0333087D01*
Y0332299D01*
X0271652Y0331268D01*
X027205Y0330307D01*
X0272683Y0329482D01*
X0273508Y0328849D01*
X0274469Y0328451D01*
X02755Y0328315D01*
X0276531Y0328451D01*
X0277492Y0328849D01*
X0278317Y0329482D01*
X027895Y0330307D01*
X0279348Y0331268D01*
X0279484Y0332299D01*
Y0333087D01*
X0279348Y0334118D01*
X027895Y0335079D01*
X0278317Y0335904D01*
X0277492Y0336537D01*
X0276724Y0336855D01*
Y0338764D01*
X027663Y0339232D01*
X0276365Y0339629D01*
X0272259Y0343735D01*
X0272466Y0344235D01*
X0277706D01*
Y0347276D01*
X0280436D01*
X0280487Y0347155D01*
X0281155Y0346487D01*
X0282028Y0346125D01*
X0282972D01*
X0283845Y0346487D01*
X0284513Y0347155D01*
X0284875Y0348028D01*
Y0348972D01*
X0284513Y0349845D01*
X0283845Y0350513D01*
X0282972Y0350875D01*
X0282028D01*
X0281155Y0350513D01*
X0280487Y0349845D01*
X0280436Y0349724D01*
X0277706D01*
Y035115D01*
D02*
G37*
G36*
X0345824Y0359859D02*
X0339499D01*
Y0353141D01*
X0340826D01*
Y0344458D01*
X0339794D01*
Y0337543D01*
X0345528D01*
Y0344458D01*
X0344497D01*
Y0353141D01*
X0345824D01*
Y0359859D01*
D02*
G37*
G36*
X0215469Y0346496D02*
X0211531D01*
X0210605Y0346312D01*
X0209819Y0345787D01*
X0209295Y0345001D01*
X020911Y0344075D01*
Y0340925D01*
X0209295Y0339999D01*
X0209819Y0339213D01*
X0210605Y0338688D01*
X0211531Y0338504D01*
X0215469D01*
X0216395Y0338688D01*
X0217181Y0339213D01*
X0217705Y0339999D01*
X021789Y0340925D01*
Y0341277D01*
X0236042D01*
Y0340295D01*
X0241227D01*
X0245363Y0336159D01*
Y0329753D01*
X0243424D01*
Y0322247D01*
X0249749D01*
Y0329753D01*
X024781D01*
Y0336665D01*
X0247717Y0337134D01*
X0247452Y033753D01*
X0242957Y0342025D01*
Y0346028D01*
X0236042D01*
Y0343724D01*
X021789D01*
Y0344075D01*
X0217705Y0345001D01*
X0217181Y0345787D01*
X0216395Y0346312D01*
X0215469Y0346496D01*
D02*
G37*
G36*
X0287075Y0337083D02*
X0283925D01*
X0282999Y0336898D01*
X0282213Y0336374D01*
X0281688Y0335588D01*
X0281504Y0334661D01*
Y0330724D01*
X0281688Y0329798D01*
X0282213Y0329012D01*
X0282999Y0328487D01*
X0283665Y0328355D01*
Y0326602D01*
X0283508Y0326537D01*
X0282683Y0325904D01*
X028205Y0325079D01*
X0281652Y0324118D01*
X0281516Y0323087D01*
Y0322299D01*
X0281652Y0321268D01*
X028205Y0320307D01*
X0282683Y0319482D01*
X0283508Y0318849D01*
X0284469Y0318451D01*
X02855Y0318316D01*
X0286531Y0318451D01*
X0287492Y0318849D01*
X0288317Y0319482D01*
X028895Y0320307D01*
X0289348Y0321268D01*
X0289484Y0322299D01*
Y0323087D01*
X0289348Y0324118D01*
X028895Y0325079D01*
X0288317Y0325904D01*
X0287492Y0326537D01*
X0287335Y0326602D01*
Y0328355D01*
X0288001Y0328487D01*
X0288787Y0329012D01*
X0289312Y0329798D01*
X0289496Y0330724D01*
Y0334661D01*
X0289312Y0335588D01*
X0288787Y0336374D01*
X0288001Y0336898D01*
X0287075Y0337083D01*
D02*
G37*
G36*
X02755Y032707D02*
X0274469Y0326935D01*
X0273508Y0326537D01*
X0272683Y0325904D01*
X027205Y0325079D01*
X0271652Y0324118D01*
X0271516Y0323087D01*
Y0322299D01*
X0271652Y0321268D01*
X027205Y0320307D01*
X0272683Y0319482D01*
X0272687Y0319418D01*
X0266796Y0313527D01*
X0266531Y031313D01*
X0266438Y0312661D01*
Y030765D01*
X0264794D01*
Y0300735D01*
X0270528D01*
Y030765D01*
X0268885D01*
Y0312155D01*
X0274989Y0318259D01*
X0275065Y0318373D01*
X02755Y0318316D01*
X0276531Y0318451D01*
X0277492Y0318849D01*
X0278317Y0319482D01*
X027895Y0320307D01*
X0279348Y0321268D01*
X0279484Y0322299D01*
Y0323087D01*
X0279348Y0324118D01*
X027895Y0325079D01*
X0278317Y0325904D01*
X0277492Y0326537D01*
X0276531Y0326935D01*
X02755Y032707D01*
D02*
G37*
G36*
X0317902Y035752D02*
X0314555D01*
X0313782Y0357366D01*
X0313127Y0356928D01*
X0312689Y0356273D01*
X0312535Y03555D01*
X0312689Y0354727D01*
X0313127Y0354072D01*
X0313782Y0353634D01*
X0314555Y035348D01*
X0316277D01*
Y035252D01*
X0314555D01*
X0313782Y0352366D01*
X0313127Y0351928D01*
X0312689Y0351273D01*
X0312535Y03505D01*
X0312689Y0349727D01*
X0313127Y0349072D01*
X0313782Y0348634D01*
X0314555Y034848D01*
X0316277D01*
Y0321564D01*
X0316155Y0321513D01*
X0315487Y0320845D01*
X0315125Y0319972D01*
Y0319028D01*
X0315487Y0318155D01*
X0316155Y0317487D01*
X0317028Y0317125D01*
X0317972D01*
X0318845Y0317487D01*
X0319513Y0318155D01*
X0319875Y0319028D01*
Y0319972D01*
X0319513Y0320845D01*
X0318845Y0321513D01*
X0318724Y0321564D01*
Y0348667D01*
X031933Y0349072D01*
X0319768Y0349727D01*
X0319921Y03505D01*
X0319768Y0351273D01*
X031933Y0351928D01*
X0318724Y0352333D01*
Y0353667D01*
X031933Y0354072D01*
X0319768Y0354727D01*
X0319921Y03555D01*
X0319768Y0356273D01*
X031933Y0356928D01*
X0318675Y0357366D01*
X0317902Y035752D01*
D02*
G37*
G36*
X0455Y0307878D02*
X0454227Y0307724D01*
X0453572Y0307287D01*
X0453134Y0306631D01*
X045298Y0305858D01*
Y030074D01*
X0453134Y0299967D01*
X0453572Y0299312D01*
X0454227Y0298874D01*
X0455Y029872D01*
X0455773Y0298874D01*
X0456428Y0299312D01*
X0456866Y0299967D01*
X045702Y030074D01*
Y0305858D01*
X0456866Y0306631D01*
X0456428Y0307287D01*
X0455773Y0307724D01*
X0455Y0307878D01*
D02*
G37*
G36*
X0425753Y0295706D02*
X0418247D01*
Y0291805D01*
X0405888D01*
X040542Y0291711D01*
X0405023Y0291446D01*
X0403321Y0289745D01*
X040137D01*
X0400828Y0289637D01*
X0400367Y0289329D01*
X040006Y0288869D01*
X0399952Y0288327D01*
X040006Y0287784D01*
X0400367Y0287324D01*
X0400828Y0287017D01*
X040137Y0286909D01*
X0405898D01*
X040644Y0287017D01*
X04069Y0287324D01*
X0407207Y0287784D01*
X0407315Y0288327D01*
X040721Y0288858D01*
X0407208Y028887D01*
X0407483Y0289358D01*
X0420038D01*
X0420156Y0289381D01*
X0425753D01*
Y0291165D01*
X0427477D01*
X0427655Y0290987D01*
X0428528Y0290625D01*
X0429472D01*
X0430345Y0290987D01*
X0431013Y0291655D01*
X0431375Y0292528D01*
Y0293472D01*
X0431013Y0294345D01*
X0430345Y0295013D01*
X0429472Y0295375D01*
X0428528D01*
X0427655Y0295013D01*
X0427477Y0294835D01*
X0425753D01*
Y0295706D01*
D02*
G37*
G36*
X0278205Y030765D02*
X0272472D01*
Y0300735D01*
X0274276D01*
Y0269064D01*
X0274155Y0269013D01*
X0273487Y0268345D01*
X0273125Y0267472D01*
Y0266528D01*
X0273487Y0265655D01*
X0274155Y0264987D01*
X0275028Y0264625D01*
X0275972D01*
X0276845Y0264987D01*
X0277513Y0265655D01*
X0277875Y0266528D01*
Y0267472D01*
X0277513Y0268345D01*
X0276845Y0269013D01*
X0276724Y0269064D01*
Y0300735D01*
X0278205D01*
Y030765D01*
D02*
G37*
G36*
X0518598Y026654D02*
X0517402D01*
X0516248Y0266231D01*
X0515212Y0265633D01*
X0514367Y0264788D01*
X0513769Y0263752D01*
X051346Y0262598D01*
Y0261402D01*
X0513769Y0260248D01*
X0514367Y0259212D01*
X0515212Y0258367D01*
X0516248Y0257769D01*
X0517402Y025746D01*
X0518598D01*
X0519752Y0257769D01*
X0520788Y0258367D01*
X0521633Y0259212D01*
X0522231Y0260248D01*
X052254Y0261402D01*
Y0262598D01*
X0522231Y0263752D01*
X0521633Y0264788D01*
X0520788Y0265633D01*
X0519752Y0266231D01*
X0518598Y026654D01*
D02*
G37*
G36*
Y025654D02*
X0517402D01*
X0516248Y0256231D01*
X0515212Y0255633D01*
X0514367Y0254788D01*
X0513769Y0253752D01*
X051346Y0252598D01*
Y0251402D01*
X0513769Y0250248D01*
X0514367Y0249212D01*
X0515212Y0248367D01*
X0516248Y0247769D01*
X0517402Y024746D01*
X0518598D01*
X0519752Y0247769D01*
X0520788Y0248367D01*
X0521633Y0249212D01*
X0522231Y0250248D01*
X052254Y0251402D01*
Y0252598D01*
X0522231Y0253752D01*
X0521633Y0254788D01*
X0520788Y0255633D01*
X0519752Y0256231D01*
X0518598Y025654D01*
D02*
G37*
G36*
X0449528Y0215725D02*
X0443991D01*
Y0214005D01*
X0437D01*
X043698Y0214001D01*
X0435458D01*
Y0215028D01*
X0428543D01*
Y0209295D01*
X0435458D01*
Y021033D01*
X0443991D01*
Y0208613D01*
X0449528D01*
Y0215725D01*
D02*
G37*
G36*
X0397827Y0264548D02*
X0397284Y026444D01*
X0396824Y0264132D01*
X0396517Y0263672D01*
X0396409Y026313D01*
Y0258602D01*
X0396517Y025806D01*
X0396824Y02576D01*
X0397284Y0257293D01*
X0397437Y0257262D01*
X0405863Y0248836D01*
Y0247253D01*
X0403924D01*
Y0239747D01*
X0410249D01*
Y0240776D01*
X0417436D01*
X0417487Y0240655D01*
X0418155Y0239987D01*
X0419028Y0239625D01*
X0419972D01*
X0420845Y0239987D01*
X0421023Y0240165D01*
X0425866D01*
X0432275Y0233756D01*
Y0228649D01*
X0443127D01*
Y0236351D01*
X043487D01*
X0431519Y0239703D01*
X043171Y0240165D01*
X0463007D01*
X0486351Y0216821D01*
X0486031Y0215624D01*
Y0214376D01*
X0486353Y0213172D01*
X0486977Y0212091D01*
X0487859Y0211209D01*
X0488939Y0210586D01*
X0490144Y0210263D01*
X0491391D01*
X0492596Y0210586D01*
X0493676Y0211209D01*
X0494558Y0212091D01*
X0495182Y0213172D01*
X0495505Y0214376D01*
Y0215624D01*
X0495182Y0216828D01*
X0494558Y0217909D01*
X0493676Y0218791D01*
X0492596Y0219414D01*
X0491391Y0219737D01*
X0490144D01*
X0488947Y0219416D01*
X0465065Y0243298D01*
X046447Y0243696D01*
X0463768Y0243835D01*
X0421023D01*
X0420845Y0244013D01*
X0419972Y0244375D01*
X0419028D01*
X0418155Y0244013D01*
X0417487Y0243345D01*
X0417436Y0243224D01*
X0410249D01*
Y0247253D01*
X040831D01*
Y0249342D01*
X0408217Y0249811D01*
X0407952Y0250208D01*
X0399245Y0258915D01*
Y026313D01*
X0399137Y0263672D01*
X0398829Y0264132D01*
X0398369Y026444D01*
X0397827Y0264548D01*
D02*
G37*
G36*
X0455725Y0236351D02*
X0444873D01*
Y0228649D01*
X0448665D01*
Y0224387D01*
X0447731D01*
Y0217275D01*
X0453268D01*
Y0218995D01*
X0466854D01*
X0469029Y0216821D01*
X0468708Y0215624D01*
Y0214376D01*
X0469031Y0213172D01*
X0469654Y0212091D01*
X0470536Y0211209D01*
X0471616Y0210586D01*
X0472821Y0210263D01*
X0474068D01*
X0475273Y0210586D01*
X0476354Y0211209D01*
X0477235Y0212091D01*
X0477859Y0213172D01*
X0478182Y0214376D01*
Y0215624D01*
X0477859Y0216828D01*
X0477235Y0217909D01*
X0476354Y0218791D01*
X0475273Y0219414D01*
X0474068Y0219737D01*
X0472821D01*
X0471624Y0219416D01*
X0468912Y0222128D01*
X0468317Y0222526D01*
X0467614Y0222666D01*
X0453268D01*
Y0224387D01*
X0452335D01*
Y0228649D01*
X0455725D01*
Y0236351D01*
D02*
G37*
G36*
X0518598Y021654D02*
X0517402D01*
X0516248Y0216231D01*
X0515212Y0215633D01*
X0514367Y0214788D01*
X0513769Y0213752D01*
X051346Y0212598D01*
Y0211402D01*
X0513769Y0210248D01*
X0514367Y0209212D01*
X0515212Y0208367D01*
X0516248Y0207769D01*
X0517402Y020746D01*
X0518598D01*
X0519752Y0207769D01*
X0520788Y0208367D01*
X0521633Y0209212D01*
X0522231Y0210248D01*
X052254Y0211402D01*
Y0212598D01*
X0522231Y0213752D01*
X0521633Y0214788D01*
X0520788Y0215633D01*
X0519752Y0216231D01*
X0518598Y021654D01*
D02*
G37*
G36*
X0215968Y0224996D02*
X0212032D01*
X0211105Y0224812D01*
X0210319Y0224287D01*
X0209794Y0223501D01*
X020961Y0222575D01*
Y0219425D01*
X0209794Y0218499D01*
X0210319Y0217713D01*
X0211105Y0217188D01*
X0212032Y0217004D01*
X0215968D01*
X0216895Y0217188D01*
X0217681Y0217713D01*
X0218205Y0218499D01*
X021839Y0219425D01*
Y0219777D01*
X0236042D01*
Y0217295D01*
X0242957D01*
Y0217295D01*
X0243324Y0217446D01*
X0244363Y0216407D01*
Y0209253D01*
X0242424D01*
Y0201747D01*
X0248749D01*
Y0209253D01*
X024681D01*
Y0216913D01*
X0246717Y0217382D01*
X0246452Y0217778D01*
X0243754Y0220476D01*
X0243357Y0220742D01*
X0242957Y0220821D01*
Y0223028D01*
X0236042D01*
Y0222223D01*
X021839D01*
Y0222575D01*
X0218205Y0223501D01*
X0217681Y0224287D01*
X0216895Y0224812D01*
X0215968Y0224996D01*
D02*
G37*
G36*
X0395098Y020804D02*
X0393902D01*
X0392748Y0207731D01*
X0391712Y0207133D01*
X0390867Y0206288D01*
X0390269Y0205252D01*
X038996Y0204098D01*
Y0202902D01*
X0390269Y0201748D01*
X0390867Y0200712D01*
X0391712Y0199867D01*
X0392748Y0199269D01*
X0393902Y019896D01*
X0395098D01*
X0396252Y0199269D01*
X0397288Y0199867D01*
X0398133Y0200712D01*
X0398731Y0201748D01*
X039904Y0202902D01*
Y0204098D01*
X0398731Y0205252D01*
X0398133Y0206288D01*
X0397288Y0207133D01*
X0396252Y0207731D01*
X0395098Y020804D01*
D02*
G37*
%LPD*%
G36*
X04085Y047D02*
Y0444D01*
X0382D01*
X03815Y04445D01*
X0382Y047D01*
X04075D01*
X0408Y04705D01*
X04085Y047D01*
D02*
G37*
G36*
X03555Y0454D02*
X03705D01*
Y04425D01*
X03555D01*
Y043686D01*
X035514Y0436513D01*
X0342Y0437D01*
Y04425D01*
X03305D01*
Y04535D01*
X0331Y0454D01*
X0342167D01*
X0342135Y0454094D01*
X0342428Y04545D01*
X03555D01*
Y0454D01*
D02*
G37*
G36*
X0282979Y0446116D02*
X0283Y0447D01*
X02835Y04475D01*
X03085D01*
Y0426D01*
X0260094D01*
X02625Y04005D01*
Y0396D01*
X0251D01*
X0247Y0397D01*
X0239237Y04085D01*
X02125D01*
X0212Y0409D01*
X02125Y042D01*
X02365D01*
X02435Y0427D01*
X0245934D01*
X0243068Y0470591D01*
X024341Y0470956D01*
X0261113D01*
X0282979Y0446116D01*
D02*
G37*
G36*
X04205Y0359D02*
X03955D01*
Y03675D01*
X04205D01*
Y0359D01*
D02*
G37*
D14*
X03905Y03315D02*
G03*
X039Y0332I-00005J0D01*
G01*
X0432Y0212161D02*
X0432004Y0212165D01*
X0446756D01*
X044676Y0212169D01*
X04545Y01905D02*
X053D01*
X03845D02*
X04545D01*
X045424Y019076D02*
Y0212169D01*
X0437D02*
X044676D01*
X0467614Y0220831D02*
X0473445Y0215D01*
X04505Y0220831D02*
X0467614D01*
X04505D02*
Y0232299D01*
X0450299Y02325D02*
X04505Y0232299D01*
X0426626Y0242D02*
X0463768D01*
X0490768Y0215D01*
X0426626Y0242D02*
X0436126Y02325D01*
X04195Y0242D02*
X0426626D01*
X0436126Y02325D02*
X0437701D01*
X053Y01905D02*
X05515Y0212D01*
X03055Y0341D02*
Y03645D01*
X0350339Y033501D02*
Y0340409D01*
X0427028Y0309161D02*
X0428689Y03075D01*
X0429D01*
X04155Y0309161D02*
X0427028D01*
X03985Y0303D02*
Y0308661D01*
X04535Y04395D02*
X0473Y0459D01*
X04535Y0345976D02*
Y04395D01*
X045Y0340701D02*
Y0343162D01*
X0450167Y0343329D01*
X0450853D01*
X04535Y0345976D01*
X04075Y048D02*
X041324Y047426D01*
Y04625D02*
Y047426D01*
X0361Y048D02*
X04075D01*
X030609Y0428382D02*
X0310209Y04325D01*
X0325776D01*
X0227972Y0484D02*
X0264D01*
X0286Y0452087D02*
Y0462D01*
X0264Y0484D02*
X0286Y0462D01*
Y0452087D02*
X03055D01*
X0518Y0242D02*
X0546D01*
X05515Y02475D01*
X02635Y04205D02*
X0264Y0421D01*
X0286D01*
X0259Y03985D02*
Y0428087D01*
X0246154Y04175D02*
X025674Y0428087D01*
X0286691Y0416809D02*
X03065Y0397D01*
X0286Y0421D02*
X0286691Y0420309D01*
Y0416809D02*
Y0420309D01*
X0406153Y0432394D02*
X04095Y0429047D01*
X04235D01*
X0302Y01905D02*
X03845D01*
Y02035D01*
X0473Y0459D02*
X05315D01*
X04472Y0382188D02*
Y0444906D01*
X0418996Y0353984D02*
X04472Y0382188D01*
X0439768Y0452339D02*
X04472Y0444906D01*
X029315Y019935D02*
X0302Y01905D01*
X029315Y019935D02*
Y0219642D01*
X0293642D01*
X0545295Y0309705D02*
X05515Y03035D01*
X0533295Y0309705D02*
X0545295D01*
X05515Y02475D02*
Y03035D01*
Y0212D02*
Y02475D01*
X02395Y0274311D02*
Y02825D01*
X02385Y0273311D02*
X02395Y0274311D01*
X02385Y0273D02*
Y0273311D01*
X041337Y043913D02*
Y044687D01*
Y043913D02*
X04135Y0439D01*
X041324Y0447D02*
X041337Y044687D01*
X039Y04385D02*
X03905Y0438D01*
Y04325D02*
Y0438D01*
X0335957Y03655D02*
X0342957Y03725D01*
X0326Y03655D02*
X0335957D01*
X0339434Y0364205D02*
X0350191D01*
X0316228Y03655D02*
X0326D01*
Y0343D02*
Y03655D01*
X02855Y0322693D02*
Y0332693D01*
X0361453Y0373047D02*
X0389047D01*
X03825Y0332D02*
X039D01*
X0422Y0293D02*
X0429D01*
X05315Y03115D02*
X0533295Y0309705D01*
X0326Y0343D02*
X0335161Y0333839D01*
X0349167D01*
X0350339Y033501D01*
X0294702Y0350569D02*
X0294772Y03505D01*
X0291431Y0350569D02*
X0294702D01*
X027Y0372D02*
X0291431Y0350569D01*
X03975Y0447D02*
Y04625D01*
Y0395161D02*
Y0447D01*
X0406153D01*
X035036Y0469359D02*
X0361Y048D01*
X03485Y0463299D02*
X035036Y0465159D01*
Y0469359D01*
X0475Y0300911D02*
X0475167Y0300743D01*
X05085D01*
X0475Y0300911D02*
Y0303299D01*
X0509091Y0300743D02*
X0519847Y03115D01*
X05315D01*
X05085Y0300743D02*
X0509091D01*
X05315Y03115D02*
Y0343646D01*
X0342957Y03725D02*
Y0373091D01*
X03065Y0397D02*
X0316228Y0387272D01*
Y03655D02*
Y0387272D01*
X0416535Y0353984D02*
X0418728D01*
X0439177Y0452339D02*
X0439768D01*
X0384543Y030709D02*
X03905Y0313047D01*
X0384543Y03065D02*
Y030709D01*
X03905Y0313047D02*
Y03265D01*
X041363Y03365D02*
X04195Y034237D01*
X0418728Y0353984D02*
X04195Y0353213D01*
Y034237D02*
Y0353213D01*
X0411957Y03365D02*
X041363D01*
X0383672Y03265D02*
X03905D01*
X03825Y0327672D02*
X0383672Y03265D01*
X03825Y0327672D02*
Y0332D01*
Y03365D01*
X03905D01*
X03825D02*
Y03415D01*
X03905D01*
Y03365D02*
X0411957D01*
X04005Y0341D02*
X0411957D01*
X0395Y03465D02*
X04005Y0341D01*
X03705Y03465D02*
X0395D01*
X0366661Y0341D02*
X0368024Y0342362D01*
Y0344024D01*
X03705Y03465D01*
X0366661Y0341D02*
Y0341197D01*
X0411957Y0341D02*
Y03415D01*
X0422Y0292543D02*
Y0293D01*
X0499Y02935D02*
X0499078Y0293578D01*
X04965Y0291D02*
X0499Y02935D01*
X0455Y03295D02*
X046D01*
X0455D02*
Y0340701D01*
X0475Y03295D02*
Y0340701D01*
X047Y03295D02*
X0475D01*
Y0313328D02*
Y03295D01*
X047D02*
Y0340701D01*
X0465Y03295D02*
X047D01*
X0465D02*
Y0340701D01*
X046Y03295D02*
X0465D01*
X046D02*
Y0340701D01*
X0473828Y03145D02*
X0475Y0313328D01*
X0465Y0303299D02*
Y03145D01*
X047D01*
X0461172D02*
X0465D01*
X046Y0313328D02*
X0461172Y03145D01*
X046Y0303299D02*
Y0313328D01*
X0475Y0303299D02*
Y0313328D01*
X047Y03145D02*
X0473828D01*
X047Y0303299D02*
Y03145D01*
X0445Y030074D02*
X045474Y0291D01*
X04965D01*
X0445Y030074D02*
Y0303299D01*
X0499078Y0293578D02*
X0508422D01*
X05085Y0293657D01*
X05315Y02815D02*
X0531894D01*
X0536843Y028645D01*
Y030355D01*
X0533944Y030645D02*
X0536843Y030355D01*
X0515121Y0293657D02*
X0527914Y030645D01*
X0533944D01*
X05085Y0293657D02*
X0515121D01*
X03055Y03645D02*
Y0388D01*
X02965Y0397D02*
X03055Y0388D01*
X030609Y0452087D02*
X0317303Y0463299D01*
X03055Y0452087D02*
X030609D01*
X0317303Y0463299D02*
X03485D01*
X02195Y0475528D02*
X0227972Y0484D01*
X02195Y0471D02*
Y0475528D01*
Y0466472D02*
X0226493Y0459479D01*
X02195Y0466472D02*
Y0471D01*
X0226493Y0455376D02*
Y0459479D01*
Y0455376D02*
X022957Y0452299D01*
X0232295D01*
X0235Y0449594D01*
Y04275D02*
Y0449594D01*
X0215Y04275D02*
X0235D01*
X02065Y0419D02*
X0215Y04275D01*
X02065Y0387106D02*
Y0419D01*
Y0387106D02*
X0213106Y03805D01*
X02135D01*
X0208157Y033745D02*
X0213106Y03325D01*
X02135D01*
X0208157Y033745D02*
Y037555D01*
X0213106Y03805D01*
X0208157Y029795D02*
X0213106Y0293D01*
X0208157Y029795D02*
Y032755D01*
X0213106Y03325D01*
Y0293D02*
X02135D01*
X0213894D01*
X0224394Y02825D02*
X02395D01*
X0213894Y0293D02*
X0224394Y02825D01*
X0208157Y025795D02*
X0213106Y0253D01*
X0208157Y025795D02*
Y028805D01*
X0213106Y0293D01*
Y0253D02*
X02135D01*
X02065Y0218106D02*
Y0246394D01*
Y0218106D02*
X0213606Y0211D01*
X02065Y0246394D02*
X0213106Y0253D01*
X0213606Y0211D02*
X0214D01*
X0214394D02*
X0219894Y02055D01*
X0214Y0211D02*
X0214394D01*
X0219894Y02055D02*
X02385D01*
X0320811Y0237358D02*
X0347909Y0264457D01*
X03485D01*
X0314339Y0237358D02*
X0320811D01*
X0313706Y0237991D02*
Y0247294D01*
X03075Y02535D02*
X0313706Y0247294D01*
X0258795Y02535D02*
X03075D01*
X0252295Y026D02*
X0258795Y02535D01*
X0313706Y0237991D02*
X0314339Y0237358D01*
X0252295Y026D02*
Y0278543D01*
Y0240043D02*
Y026D01*
X02395Y0227839D02*
X024009D01*
X0252295Y0240043D01*
X024009Y0266339D02*
X0252295Y0278543D01*
X02395Y0266339D02*
X024009D01*
X0252295Y0278543D02*
Y0320543D01*
X02395Y0308339D02*
X024009D01*
X0252295Y0320543D01*
Y0364205D01*
X0213894Y03805D02*
X0219894Y03745D01*
X02395D01*
X02135Y03805D02*
X0213894D01*
X02395Y0350839D02*
X024009D01*
X0252075Y0362823D01*
X0252295Y0364205D02*
Y0386295D01*
X02395Y03985D02*
X024009D01*
X0252295Y0386295D01*
X0350191Y0364205D02*
Y0371762D01*
Y0356648D02*
Y0364205D01*
X03055Y03645D02*
X03095Y03605D01*
X0316228D01*
X0280323Y0390823D02*
X02865Y0397D01*
X0259Y0390823D02*
X0280323D01*
X0259Y0428087D02*
X0286D01*
X025674D02*
X0259D01*
X0235Y04175D02*
X0246154D01*
X0215D02*
X0235D01*
X0374339Y0334185D02*
X0376Y0332524D01*
Y0324839D02*
Y0332524D01*
X0374339Y0334185D02*
Y0341D01*
X0342661D02*
Y03565D01*
X0342661Y03565D02*
X0342661Y03565D01*
X0365299Y0342559D02*
X0366661Y0341197D01*
X0350339Y0356303D02*
Y03565D01*
Y0356303D02*
X0364083Y0342559D01*
X0365299D01*
X0350191Y0371762D02*
X0364374Y0357579D01*
X0350043Y0371909D02*
X0350191Y0371762D01*
Y0356648D02*
X0350339Y03565D01*
X03485Y0386D02*
X0361453Y0373047D01*
X0348457Y0386354D02*
Y03945D01*
X0389047Y0373047D02*
X0408547Y0392547D01*
X04105Y039391D02*
Y03945D01*
X0409138Y0392547D02*
X04105Y039391D01*
X0408547Y0392547D02*
X0409138D01*
X04105Y03945D02*
Y0408953D01*
X04095Y0409953D02*
X04105Y0408953D01*
X0417587Y0372787D02*
Y03945D01*
X0416815Y0372016D02*
X0417587Y0372787D01*
X0416535Y0372016D02*
X0416815D01*
X0393465Y0363D02*
X0416535D01*
X03695Y0354051D02*
X0378449Y0363D01*
X0393465D01*
X03695Y0353953D02*
Y0354051D01*
X0364374Y0357579D02*
X0365972D01*
X0350043Y0371909D02*
Y03725D01*
X0365972Y0357579D02*
X03695Y0354051D01*
X0334839Y0381209D02*
X0342957Y0373091D01*
X0334839Y0381209D02*
Y03945D01*
X0348457D01*
X0389014Y0394353D02*
X0389161Y03945D01*
X0386Y0387D02*
X0389014Y0390014D01*
X0365Y0387D02*
X0386D01*
X0389014Y0390014D02*
Y0394353D01*
X0389161Y03945D02*
Y0423756D01*
X03615Y03905D02*
X0365Y0387D01*
X03615Y03905D02*
Y041D01*
X0349181Y0422319D02*
X03615Y041D01*
X0345406Y0422319D02*
X0349181D01*
X0345224Y04225D02*
X0345406Y0422319D01*
X0355547Y0425415D02*
X0361498D01*
X0345224Y04275D02*
X0353463D01*
X0361498Y0425415D02*
X03615Y0425413D01*
X0353463Y04275D02*
X0355547Y0425415D01*
X0368957Y03945D02*
Y0418547D01*
X036209Y0425413D02*
X0368957Y0418547D01*
X03615Y0425413D02*
X036209D01*
X0376022Y0394522D02*
Y0424801D01*
Y0394522D02*
X0376043Y03945D01*
X0376Y0424823D02*
X0376022Y0424801D01*
X0390228Y0424823D02*
X03905D01*
X0389161Y0423756D02*
X0390228Y0424823D01*
X0376Y04325D02*
X03905D01*
X03615D02*
X0376D01*
X0345224D02*
X03615D01*
X04235Y0429047D02*
X04315D01*
X04235Y0401004D02*
Y0429047D01*
X0417587Y03945D02*
Y0395091D01*
X04235Y0401004D01*
X041324Y04625D02*
X0428425D01*
X0438587Y0452339D02*
X0439177D01*
X0428425Y04625D02*
X0438587Y0452339D01*
X041324Y0447D02*
Y04625D01*
X0439177Y0429047D02*
Y0444661D01*
X0406153Y0432394D02*
Y0447D01*
X03975Y04625D02*
X0406153D01*
X0390779D02*
X03975D01*
X0396839Y03945D02*
X03975Y0395161D01*
X0386661Y0457106D02*
Y0458382D01*
X0390779Y04625D01*
X0349328Y0437681D02*
X03505Y0438853D01*
X03485Y0450701D02*
X03505Y0448701D01*
X0345224Y04375D02*
X0345406Y0437681D01*
X0349328D01*
X03505Y0438853D02*
Y0448701D01*
X03485Y0450701D02*
X036522D01*
X0369339Y0454819D01*
Y04575D01*
X0332587Y0450701D02*
X03485D01*
X03255Y0437681D02*
Y0450701D01*
X0325681Y04375D02*
X0325776D01*
X03255Y0437681D02*
X0325681Y04375D01*
X0328472Y04225D02*
X0354181Y0396791D01*
Y0395862D02*
X0355543Y03945D01*
X0325776Y04225D02*
X0328472D01*
X0354181Y0395862D02*
Y0396791D01*
X0312705Y0420705D02*
X03185Y04265D01*
Y0403752D02*
Y04265D01*
X03195Y04275D01*
X03185Y0403752D02*
X0327161Y0395091D01*
Y03945D02*
Y0395091D01*
X03055Y0420705D02*
X0312705D01*
X03195Y04275D02*
X0325776D01*
X03055Y0428382D02*
X030609D01*
X0286148Y0428234D02*
X0305352D01*
X03055Y0428382D01*
X0286Y0428087D02*
X0286148Y0428234D01*
X0286Y0428087D02*
Y0445D01*
X03055D01*
X0284386D02*
X0286D01*
X0243122Y0468549D02*
X0246364Y0465307D01*
X0264079D01*
X0243122Y0468549D02*
Y0471D01*
X0264079Y0465307D02*
X0284386Y0445D01*
D17*
X039863Y0218839D02*
X0432D01*
X045424Y019076D02*
X04545Y01905D01*
X0481Y02575D02*
X0516919Y0221581D01*
X0429Y02575D02*
X0481D01*
X0410057Y0276443D02*
X0429Y02575D01*
X0386016Y0231453D02*
X039863Y0218839D01*
X0407087Y02435D02*
X0408587Y0242D01*
X04195D01*
X0392691Y0286358D02*
X0403634D01*
X0390833Y02845D02*
X0392691Y0286358D01*
X0378142Y0290029D02*
X038367Y02845D01*
X0403634Y0286358D02*
X0421098D01*
X0382152Y0260939D02*
Y0282152D01*
X0382167Y0282167D01*
X038367Y02845D02*
X0390833D01*
X0382079Y0260866D02*
X0382152Y0260939D01*
X0393Y0277293D02*
X0393207D01*
X0397921Y0272579D01*
X0378142Y0260866D02*
Y0285858D01*
X03685Y02955D02*
X0378142Y0285858D01*
X0384047Y0288243D02*
Y0294134D01*
X0306364Y02715D02*
X0307D01*
X02975Y0270386D02*
X030525D01*
X0306364Y02715D01*
X0350339Y0340409D02*
Y0341D01*
X0363Y0324543D02*
Y0328105D01*
X0352363Y0338742D02*
X0363Y0328105D01*
X0352006Y0338742D02*
X0352363D01*
X0350339Y0340409D02*
X0352006Y0338742D01*
X0437739Y0308239D02*
X0447619D01*
X045Y0305858D01*
Y0303299D02*
Y0305858D01*
X0430517Y0301017D02*
X0437739Y0308239D01*
X0390954Y0300225D02*
X0403225D01*
X0416939Y0301017D02*
X0430517D01*
X0414547Y0298625D02*
X0416939Y0301017D01*
X0390026Y0297034D02*
X0391617Y0298625D01*
X0389953Y0294134D02*
X0390026Y0294207D01*
X0391617Y0298625D02*
X0414547D01*
X0388057Y0297328D02*
X0390954Y0300225D01*
X0390026Y0294207D02*
Y0297034D01*
X0388057Y0294207D02*
Y0297328D01*
X0411957Y03315D02*
X0425D01*
X0399331Y03265D02*
Y0329831D01*
Y031717D02*
Y03265D01*
X0411957D01*
X03985Y0316339D02*
X0399331Y031717D01*
X0408953Y0326201D02*
X0411658D01*
X0411957Y03265D01*
X0399331Y0329831D02*
X0403619Y0334119D01*
X0414616D01*
X0405427Y0302427D02*
Y0307357D01*
X0403225Y0300225D02*
X0405427Y0302427D01*
X0387984Y0294134D02*
X0388057Y0294207D01*
X0405427Y0307357D02*
X041491Y0316839D01*
X04155D01*
X03905Y0307083D02*
X0396242Y0312825D01*
X03905Y0304957D02*
Y0307083D01*
X0386016Y0300473D02*
X03905Y0304957D01*
X0386016Y0294134D02*
Y0300473D01*
X0396242Y0312825D02*
Y0314672D01*
X0397909Y0316339D01*
X03985D01*
X0425Y03315D02*
X0433358D01*
X0417758Y0319096D02*
X0425Y0326339D01*
Y03315D01*
X04155Y0316839D02*
X041609D01*
X0417758Y0318506D01*
Y0319096D01*
X0426138Y0345641D02*
X0442619D01*
X0414616Y0334119D02*
X0426138Y0345641D01*
X0442619D02*
X0445Y034326D01*
Y0340701D02*
Y034326D01*
X0433358Y03315D02*
X044Y0338142D01*
Y0340701D01*
X0484Y0265D02*
X0517975Y0231025D01*
X0426Y0265D02*
X0484D01*
X0293642Y0219642D02*
X0306957D01*
X0378142Y0290029D02*
Y0294134D01*
X0421098Y0286358D02*
X0422Y0285457D01*
X0403634Y028439D02*
X0411342D01*
X0427732Y0268D02*
X0507606D01*
X0411342Y028439D02*
X0427732Y0268D01*
X03225Y0263299D02*
Y0270189D01*
X0326037Y0273726D01*
X0332922D01*
X0339357Y0280161D01*
X0339Y02715D02*
X0339043Y0271543D01*
X03485D01*
X0266Y03805D02*
X02865D01*
X0258Y03725D02*
X0266Y03805D01*
X0258Y0340587D02*
Y03725D01*
Y0340587D02*
X02655Y0333087D01*
Y0332693D02*
Y0333087D01*
Y0322693D02*
Y0332693D01*
X02385Y01995D02*
Y02055D01*
X02395Y01985D02*
X0259D01*
X02385Y01995D02*
X02395Y01985D01*
X0259D02*
X026185Y020135D01*
Y0219642D01*
X0399Y02425D02*
X04Y02435D01*
X0399Y0234D02*
Y02425D01*
X0403707Y0276443D02*
X0410057D01*
X03355Y0316047D02*
Y032246D01*
X034204Y0329D01*
X0358543D01*
X0363Y0324543D01*
X0383996Y0305953D02*
X0384543Y03065D01*
X0378215Y0297034D02*
X0383996Y0302816D01*
Y0305953D01*
X0378215Y0294207D02*
Y0297034D01*
X0378142Y0294134D02*
X0378215Y0294207D01*
X03715Y03075D02*
X0377457D01*
Y03065D02*
Y03075D01*
X0376173Y0294134D02*
Y03065D01*
X0377457D01*
X0403634Y0288327D02*
X0405888Y0290581D01*
X0420038D01*
X0422Y0292543D01*
X04485Y0283D02*
X05115D01*
X0433Y02985D02*
X04485Y0283D01*
X0416684Y02985D02*
X0433D01*
X05115Y0283D02*
X053Y03015D01*
X05315D01*
X0366537Y0270537D02*
X0370293D01*
X03245Y02035D02*
Y02285D01*
X0366537Y0270537D01*
X0238661Y0221D02*
X024005Y0219611D01*
X0245587Y02055D02*
Y0216913D01*
X0242889Y0219611D02*
X0245587Y0216913D01*
X024005Y0219611D02*
X0242889D01*
X0214Y0221D02*
X0238661D01*
X0246587Y02825D02*
Y0294165D01*
X024009Y0300661D02*
X0246587Y0294165D01*
X02395Y0300661D02*
X024009D01*
X02135Y0303D02*
X0214172Y0302328D01*
X0237833D02*
X02395Y0300661D01*
X0214172Y0302328D02*
X0237833D01*
X02395Y0382177D02*
X0246587Y0375091D01*
Y03745D02*
Y0375091D01*
X02395Y0382177D02*
Y0390823D01*
X02135Y03905D02*
X0239177D01*
X02395Y0390823D01*
X0213894Y0263D02*
X0218232Y0258661D01*
X02135Y0263D02*
X0213894D01*
X0218232Y0258661D02*
X02395D01*
X0213894Y0253D02*
X0223394Y02435D01*
X02135Y0253D02*
X0213894D01*
X0223394Y02435D02*
X02385D01*
X0241757Y0256404D02*
Y0256995D01*
X02395Y0258661D02*
X024009D01*
X0241757Y0256995D01*
Y0256404D02*
X0245587Y0252575D01*
Y02435D02*
Y0252575D01*
X0403634Y0261866D02*
Y0266673D01*
X03955Y0267D02*
X0397142Y0268642D01*
X0403634D01*
X03915Y0273D02*
X039389Y027061D01*
X0403634D01*
X0397921Y0272579D02*
X0403634D01*
X039745Y027655D02*
Y028005D01*
X039938Y027462D02*
X0403561D01*
X039745Y027655D02*
X039938Y027462D01*
X0403561D02*
X0403634Y0274547D01*
X0397Y02805D02*
X039745Y028005D01*
X0213894Y03325D02*
X0220394Y0326D01*
X02395D01*
X02135Y03325D02*
X0213894D01*
X0238839Y03425D02*
X02395Y0343161D01*
X02135Y03425D02*
X0238839D01*
X024009Y0343161D02*
X0246587Y0336665D01*
Y0326D02*
Y0336665D01*
X02395Y0343161D02*
X024009D01*
X03175Y03195D02*
Y0354778D01*
X0316778Y03555D02*
X03175Y0354778D01*
X0316228Y03555D02*
X0316778D01*
X0350043Y030741D02*
X0355Y0302453D01*
X03595Y0289673D02*
Y0313957D01*
X0355Y02875D02*
Y0302453D01*
X0362409Y0317457D02*
X0363D01*
X0350043Y030741D02*
Y0308D01*
X0360447Y0314904D02*
Y0315494D01*
X03595Y0313957D02*
X0360447Y0314904D01*
X03595Y0289673D02*
X0364783Y028439D01*
X0350043Y0308D02*
Y0312153D01*
X0274839Y0347693D02*
X0275646Y03485D01*
X02825D01*
X0267161Y0347102D02*
X02755Y0338764D01*
Y0332693D02*
Y0338764D01*
X0267161Y0347102D02*
Y0347693D01*
X02755Y0320811D02*
Y0322693D01*
X0267661Y0304193D02*
Y0312661D01*
X0274124Y0319435D02*
X02755Y0320811D01*
X0274124Y0319124D02*
Y0319435D01*
X0267661Y0312661D02*
X0274124Y0319124D01*
X0275339Y0304193D02*
X02755Y0304031D01*
Y0267D02*
Y0304031D01*
X0389976Y0260937D02*
X039Y0260913D01*
X0389976Y0260937D02*
Y0266976D01*
X039Y0267D01*
X0389953Y0260866D02*
X039Y0260913D01*
X026185Y0219642D02*
X029315D01*
Y0237358D02*
X0306661D01*
X026185D02*
X029315D01*
X0314043Y0219642D02*
Y0229386D01*
X0306661Y0236768D02*
X0314043Y0229386D01*
X0306661Y0236768D02*
Y0237358D01*
X0305975Y0238045D02*
Y0245975D01*
Y0238045D02*
X0306661Y0237358D01*
X03555Y0247D02*
X0375Y02665D01*
Y0274709D01*
X0373267Y0276443D02*
X0375Y0274709D01*
X0370439Y0276443D02*
X0373267D01*
X0370366Y0276516D02*
X0370439Y0276443D01*
X0386016Y0231453D02*
Y0260866D01*
X0407087Y02435D02*
Y0249342D01*
X0397827Y0258602D02*
Y0260866D01*
Y0258602D02*
X0407087Y0249342D01*
X0395858Y0248232D02*
Y0260866D01*
Y0248232D02*
X04Y0244091D01*
Y02435D02*
Y0244091D01*
X0384047Y0213047D02*
Y0260866D01*
X03745Y02035D02*
X0384047Y0213047D01*
X03645Y02185D02*
X038011Y023411D01*
X03645Y02035D02*
Y02185D01*
X038011Y023411D02*
Y0260866D01*
X03545Y0239193D02*
X0376173Y0260866D01*
X03545Y02035D02*
Y0239193D01*
X03445Y02035D02*
Y0243071D01*
X0368102Y0266673D02*
X0370366D01*
X03445Y0243071D02*
X0368102Y0266673D01*
X0367466Y0268569D02*
X0370293D01*
X0370366Y0268642D01*
X03345Y0235603D02*
X0367466Y0268569D01*
X03345Y02035D02*
Y0235603D01*
X0370293Y0270537D02*
X0370366Y027061D01*
X03485Y0264457D02*
X0355465D01*
X0363587Y0272579D01*
X0370366D01*
X0352095Y0274547D02*
X0370366D01*
X0349091Y0271543D02*
X0352095Y0274547D01*
X03485Y0271543D02*
X0349091D01*
X0365554Y02765D02*
X0367361Y0278306D01*
X0352161Y02765D02*
X0365554D01*
X03485Y0280161D02*
X0352161Y02765D01*
X03225Y0293811D02*
X0326037Y0290274D01*
X0337357Y0287839D02*
X03485D01*
X03225Y0293811D02*
Y0300701D01*
X0326037Y0290274D02*
X0334922D01*
X0337357Y0287839D01*
X0339357Y0280161D02*
X03485D01*
X02975Y0270386D02*
Y0293614D01*
Y0270386D02*
X02975Y0270386D01*
Y0263299D02*
X03225D01*
X02975Y0300701D02*
X03225D01*
X0349091Y0287839D02*
X0356476Y0280453D01*
X0370366D01*
X03485Y0287839D02*
X0349091D01*
X0370293Y0278411D02*
X0370366Y0278484D01*
X0367655Y0278306D02*
X036776Y0278411D01*
X0367361Y0278306D02*
X0367655D01*
X036776Y0278411D02*
X0370293D01*
X0360447Y0315494D02*
X0362409Y0317457D01*
X0364783Y028439D02*
X0370366D01*
X0365069Y0286367D02*
X0370357D01*
X03646Y0286836D02*
Y0306352D01*
Y0286836D02*
X0365069Y0286367D01*
X03646Y0306352D02*
X037541Y0317161D01*
X0355Y02875D02*
X0360074Y0282425D01*
X0370362D01*
X0370366Y0282421D01*
X0370357Y0286367D02*
X0370366Y0286358D01*
X0362409Y0317457D02*
X0363D01*
X0351421Y0321D02*
X0358866D01*
X0362409Y0317457D01*
X0345999Y0315005D02*
X0347191D01*
X0341579Y0319425D02*
Y0321D01*
Y0319425D02*
X0345999Y0315005D01*
X0347191D02*
X0350043Y0312153D01*
X03355Y0316047D02*
X0342957Y0308591D01*
Y0308D02*
Y0308591D01*
X037541Y0317161D02*
X0376D01*
X0412318Y0294134D02*
X0416684Y02985D01*
X0397827Y0294134D02*
X0412318D01*
X0531106Y02915D02*
X05315D01*
X0507606Y0268D02*
X0531106Y02915D01*
X0412516Y0278484D02*
X0426Y0265D01*
X0403634Y0278484D02*
X0412516D01*
X0403634Y0276516D02*
X0403707Y0276443D01*
D19*
X044676Y0212169D02*
D03*
X045424D02*
D03*
X04505Y0220831D02*
D03*
D20*
X0450299Y02325D02*
D03*
X0437701D02*
D03*
D21*
X0432Y0212161D02*
D03*
Y0219839D02*
D03*
X04155Y0309161D02*
D03*
Y0316839D02*
D03*
X03985Y0308661D02*
D03*
Y0316339D02*
D03*
X0376Y0317161D02*
D03*
Y0324839D02*
D03*
X03905Y0424823D02*
D03*
Y04325D02*
D03*
X0439177Y0452339D02*
D03*
Y0444661D02*
D03*
X0376Y0424823D02*
D03*
Y04325D02*
D03*
X03055Y0420705D02*
D03*
Y0428382D02*
D03*
X02395Y0350839D02*
D03*
Y0343161D02*
D03*
Y0308339D02*
D03*
Y0300661D02*
D03*
Y03985D02*
D03*
Y0390823D02*
D03*
Y0266339D02*
D03*
Y0258661D02*
D03*
Y0227839D02*
D03*
Y0220161D02*
D03*
X0259Y03985D02*
D03*
Y0390823D02*
D03*
D22*
X0341579Y0321D02*
D03*
X0351421D02*
D03*
D23*
X0350043Y0308D02*
D03*
X0342957D02*
D03*
X0246587Y03745D02*
D03*
X02395D02*
D03*
X0417587Y03945D02*
D03*
X04105D02*
D03*
X0384543Y03065D02*
D03*
X0377457D02*
D03*
X0314043Y0219642D02*
D03*
X0306957D02*
D03*
X041324Y04625D02*
D03*
X0406153D02*
D03*
X041324Y0447D02*
D03*
X0406153D02*
D03*
X0368957Y03945D02*
D03*
X0376043D02*
D03*
X0355543Y03945D02*
D03*
X0348457D02*
D03*
X0332587Y0450701D02*
D03*
X03255D02*
D03*
X0342957Y03725D02*
D03*
X0350043D02*
D03*
X0246587Y0326D02*
D03*
X02395D02*
D03*
X0246587Y02825D02*
D03*
X02395D02*
D03*
X0245587Y02435D02*
D03*
X02385D02*
D03*
X0245587Y02055D02*
D03*
X02385D02*
D03*
X0407087Y02435D02*
D03*
X04D02*
D03*
D24*
X03485Y0271543D02*
D03*
Y0264457D02*
D03*
X0363Y0317457D02*
D03*
Y0324543D02*
D03*
X03615Y0425413D02*
D03*
Y04325D02*
D03*
X03055Y0452087D02*
D03*
Y0445D02*
D03*
X0286Y0421D02*
D03*
Y0428087D02*
D03*
Y0452087D02*
D03*
Y0445D02*
D03*
X05085Y0300743D02*
D03*
Y0293657D02*
D03*
X0422Y0292543D02*
D03*
Y0285457D02*
D03*
X02975Y0293614D02*
D03*
Y0300701D02*
D03*
X02975Y0270386D02*
D03*
Y0263299D02*
D03*
D25*
X0370366Y0288327D02*
D03*
Y0286358D02*
D03*
Y028439D02*
D03*
Y0282421D02*
D03*
Y0280453D02*
D03*
Y0278484D02*
D03*
Y0276516D02*
D03*
Y0274547D02*
D03*
Y0272579D02*
D03*
Y027061D02*
D03*
Y0268642D02*
D03*
Y0266673D02*
D03*
X0403634D02*
D03*
Y0268642D02*
D03*
Y027061D02*
D03*
Y0272579D02*
D03*
Y0274547D02*
D03*
Y0276516D02*
D03*
Y0278484D02*
D03*
Y0280453D02*
D03*
Y0282421D02*
D03*
Y028439D02*
D03*
Y0286358D02*
D03*
Y0288327D02*
D03*
D26*
X0376173Y0260866D02*
D03*
X0378142D02*
D03*
X038011D02*
D03*
X0382079D02*
D03*
X0384047D02*
D03*
X0386016D02*
D03*
X0387984D02*
D03*
X0389953D02*
D03*
X0391921D02*
D03*
X039389D02*
D03*
X0395858D02*
D03*
X0397827D02*
D03*
Y0294134D02*
D03*
X0395858D02*
D03*
X039389D02*
D03*
X0391921D02*
D03*
X0389953D02*
D03*
X0387984D02*
D03*
X0386016D02*
D03*
X0384047D02*
D03*
X0382079D02*
D03*
X038011D02*
D03*
X0378142D02*
D03*
X0376173D02*
D03*
D27*
X0366661Y0341D02*
D03*
X0374339D02*
D03*
X0350339Y03565D02*
D03*
X0342661D02*
D03*
X04315Y0429047D02*
D03*
X0439177D02*
D03*
D28*
X0350339Y0341D02*
D03*
X0342661D02*
D03*
X0396839Y03945D02*
D03*
X0389161D02*
D03*
X0327161D02*
D03*
X0334839D02*
D03*
X0275339Y0304193D02*
D03*
X0267661D02*
D03*
X0267161Y0347693D02*
D03*
X0274839D02*
D03*
X0306661Y0237358D02*
D03*
X0314339D02*
D03*
D29*
X0386661Y0457106D02*
D03*
X0369339Y04575D02*
D03*
D30*
X04095Y0409953D02*
D03*
Y0429047D02*
D03*
X03695Y0373047D02*
D03*
Y0353953D02*
D03*
D31*
X03485Y0450701D02*
D03*
Y0463299D02*
D03*
D32*
X0345224Y04375D02*
D03*
Y04325D02*
D03*
Y04275D02*
D03*
Y04225D02*
D03*
X0325776D02*
D03*
Y04275D02*
D03*
Y04325D02*
D03*
Y04375D02*
D03*
D33*
X0393465Y0363D02*
D03*
D34*
X0416535Y0372016D02*
D03*
Y0363D02*
D03*
Y0353984D02*
D03*
D35*
X044Y0303299D02*
D03*
X0445D02*
D03*
X045D02*
D03*
X0455D02*
D03*
X046D02*
D03*
X0465D02*
D03*
X047D02*
D03*
X0475D02*
D03*
X044Y0340701D02*
D03*
X0445D02*
D03*
X045D02*
D03*
X0455D02*
D03*
X046D02*
D03*
X0465D02*
D03*
X047D02*
D03*
X0475D02*
D03*
D36*
X05315Y0459D02*
D03*
Y0343646D02*
D03*
D37*
X03905Y03415D02*
D03*
Y03365D02*
D03*
Y03315D02*
D03*
Y03265D02*
D03*
X0411957Y03415D02*
D03*
Y03365D02*
D03*
Y03315D02*
D03*
Y03265D02*
D03*
X0294772Y03655D02*
D03*
Y03605D02*
D03*
Y03555D02*
D03*
Y03505D02*
D03*
X0316228Y03655D02*
D03*
Y03605D02*
D03*
Y03555D02*
D03*
Y03505D02*
D03*
D38*
X03225Y0300701D02*
D03*
Y0263299D02*
D03*
D39*
X026185Y0237358D02*
D03*
Y0219642D02*
D03*
X029315Y0237358D02*
D03*
Y0219642D02*
D03*
D77*
X0473445Y0215D02*
D03*
X0490768D02*
D03*
D78*
X0214Y0221D02*
D03*
X02135Y0303D02*
D03*
Y03905D02*
D03*
Y03425D02*
D03*
Y0263D02*
D03*
D79*
X0214Y0211D02*
D03*
X02135Y0293D02*
D03*
Y03805D02*
D03*
Y03325D02*
D03*
Y0253D02*
D03*
D80*
X0235Y04175D02*
D03*
X0215D02*
D03*
D81*
X0235Y04275D02*
D03*
X0215D02*
D03*
D82*
X0243122Y0471D02*
D03*
D83*
X0232295Y0452299D02*
D03*
D84*
X02195Y0471D02*
D03*
D85*
X03945Y02035D02*
D03*
X03845D02*
D03*
X03745D02*
D03*
X03645D02*
D03*
X03545D02*
D03*
X03445D02*
D03*
X03345D02*
D03*
X03245D02*
D03*
X0518Y0262D02*
D03*
Y0252D02*
D03*
Y0242D02*
D03*
Y0232D02*
D03*
Y0222D02*
D03*
Y0212D02*
D03*
D86*
X02755Y0332693D02*
D03*
X02855Y0322693D02*
D03*
X02755D02*
D03*
X02655Y0332693D02*
D03*
Y0322693D02*
D03*
D87*
X02855Y0332693D02*
D03*
D88*
X03065Y0397D02*
D03*
X02965D02*
D03*
D89*
X02865D02*
D03*
D90*
X05315Y03115D02*
D03*
D91*
Y03015D02*
D03*
Y02915D02*
D03*
Y02815D02*
D03*
D92*
X03055Y0341D02*
D03*
X0382167Y0282167D02*
D03*
X0393Y0277293D02*
D03*
X0384047Y0288243D02*
D03*
X0307Y02715D02*
D03*
X0425Y03315D02*
D03*
X0399331Y03265D02*
D03*
X03985Y0303D02*
D03*
X02635Y04205D02*
D03*
X02385Y0273D02*
D03*
X0339Y02715D02*
D03*
X04135Y0439D02*
D03*
X039Y04385D02*
D03*
X02865Y03805D02*
D03*
X0339434Y0364205D02*
D03*
X0399Y0234D02*
D03*
X04195Y0242D02*
D03*
X027Y0372D02*
D03*
X03975Y0447D02*
D03*
X03715Y03075D02*
D03*
X0429D02*
D03*
Y0293D02*
D03*
X0499Y02935D02*
D03*
X0252295Y0364205D02*
D03*
X0403634Y0261866D02*
D03*
X03955Y0267D02*
D03*
X03915Y0273D02*
D03*
X0397Y02805D02*
D03*
X03175Y03195D02*
D03*
X03685Y02955D02*
D03*
X02825Y03485D02*
D03*
X02755Y0267D02*
D03*
X039D02*
D03*
X0305975Y0245975D02*
D03*
X03555Y0247D02*
D03*
M02*
