G04*
G04 #@! TF.GenerationSoftware,Altium Limited,Altium Designer,22.6.1 (34)*
G04*
G04 Layer_Color=16711935*
%FSTAX25Y25*%
%MOIN*%
G70*
G04*
G04 #@! TF.SameCoordinates,070C6B67-E07D-408F-9274-D07C1108151A*
G04*
G04*
G04 #@! TF.FilePolarity,Negative*
G04*
G01*
G75*
%ADD61C,0.08677*%
G04:AMPARAMS|DCode=62|XSize=78.87mil|YSize=70.99mil|CornerRadius=19.75mil|HoleSize=0mil|Usage=FLASHONLY|Rotation=0.000|XOffset=0mil|YOffset=0mil|HoleType=Round|Shape=RoundedRectangle|*
%AMROUNDEDRECTD62*
21,1,0.07887,0.03150,0,0,0.0*
21,1,0.03937,0.07099,0,0,0.0*
1,1,0.03950,0.01968,-0.01575*
1,1,0.03950,-0.01968,-0.01575*
1,1,0.03950,-0.01968,0.01575*
1,1,0.03950,0.01968,0.01575*
%
%ADD62ROUNDEDRECTD62*%
%ADD63O,0.07887X0.07099*%
G04:AMPARAMS|DCode=64|XSize=78.87mil|YSize=78.87mil|CornerRadius=21.72mil|HoleSize=0mil|Usage=FLASHONLY|Rotation=180.000|XOffset=0mil|YOffset=0mil|HoleType=Round|Shape=RoundedRectangle|*
%AMROUNDEDRECTD64*
21,1,0.07887,0.03543,0,0,180.0*
21,1,0.03543,0.07887,0,0,180.0*
1,1,0.04343,-0.01772,0.01772*
1,1,0.04343,0.01772,0.01772*
1,1,0.04343,0.01772,-0.01772*
1,1,0.04343,-0.01772,-0.01772*
%
%ADD64ROUNDEDRECTD64*%
%ADD65C,0.07887*%
G04:AMPARAMS|DCode=66|XSize=94.61mil|YSize=185.17mil|CornerRadius=25.65mil|HoleSize=0mil|Usage=FLASHONLY|Rotation=0.000|XOffset=0mil|YOffset=0mil|HoleType=Round|Shape=RoundedRectangle|*
%AMROUNDEDRECTD66*
21,1,0.09461,0.13386,0,0,0.0*
21,1,0.04331,0.18517,0,0,0.0*
1,1,0.05131,0.02165,-0.06693*
1,1,0.05131,-0.02165,-0.06693*
1,1,0.05131,-0.02165,0.06693*
1,1,0.05131,0.02165,0.06693*
%
%ADD66ROUNDEDRECTD66*%
%ADD67O,0.18517X0.09461*%
%ADD68O,0.09461X0.18517*%
%ADD69C,0.08284*%
%ADD70O,0.07099X0.07887*%
G04:AMPARAMS|DCode=71|XSize=70.99mil|YSize=78.87mil|CornerRadius=19.75mil|HoleSize=0mil|Usage=FLASHONLY|Rotation=180.000|XOffset=0mil|YOffset=0mil|HoleType=Round|Shape=RoundedRectangle|*
%AMROUNDEDRECTD71*
21,1,0.07099,0.03937,0,0,180.0*
21,1,0.03150,0.07887,0,0,180.0*
1,1,0.03950,-0.01575,0.01968*
1,1,0.03950,0.01575,0.01968*
1,1,0.03950,0.01575,-0.01968*
1,1,0.03950,-0.01575,-0.01968*
%
%ADD71ROUNDEDRECTD71*%
%ADD72C,0.07000*%
%ADD73R,0.07000X0.07000*%
G04:AMPARAMS|DCode=74|XSize=70.99mil|YSize=78.87mil|CornerRadius=19.75mil|HoleSize=0mil|Usage=FLASHONLY|Rotation=270.000|XOffset=0mil|YOffset=0mil|HoleType=Round|Shape=RoundedRectangle|*
%AMROUNDEDRECTD74*
21,1,0.07099,0.03937,0,0,270.0*
21,1,0.03150,0.07887,0,0,270.0*
1,1,0.03950,-0.01968,-0.01575*
1,1,0.03950,-0.01968,0.01575*
1,1,0.03950,0.01968,0.01575*
1,1,0.03950,0.01968,-0.01575*
%
%ADD74ROUNDEDRECTD74*%
%ADD75O,0.07887X0.07099*%
%ADD76C,0.03950*%
D61*
X0473445Y0215D02*
D03*
X0490768D02*
D03*
D62*
X0214Y0221D02*
D03*
X02135Y0303D02*
D03*
Y03905D02*
D03*
Y03425D02*
D03*
Y0263D02*
D03*
D63*
X0214Y0211D02*
D03*
X02135Y0293D02*
D03*
Y03805D02*
D03*
Y03325D02*
D03*
Y0253D02*
D03*
D64*
X0235Y04175D02*
D03*
X0215D02*
D03*
D65*
X0235Y04275D02*
D03*
X0215D02*
D03*
D66*
X0243122Y0471D02*
D03*
D67*
X0232295Y0452299D02*
D03*
D68*
X02195Y0471D02*
D03*
D69*
X03945Y02035D02*
D03*
X03845D02*
D03*
X03745D02*
D03*
X03645D02*
D03*
X03545D02*
D03*
X03445D02*
D03*
X03345D02*
D03*
X03245D02*
D03*
X0518Y0262D02*
D03*
Y0252D02*
D03*
Y0242D02*
D03*
Y0232D02*
D03*
Y0222D02*
D03*
Y0212D02*
D03*
D70*
X02755Y0332693D02*
D03*
X02855Y0322693D02*
D03*
X02755D02*
D03*
X02655Y0332693D02*
D03*
Y0322693D02*
D03*
D71*
X02855Y0332693D02*
D03*
D72*
X03065Y0397D02*
D03*
X02965D02*
D03*
D73*
X02865D02*
D03*
D74*
X05315Y03115D02*
D03*
D75*
Y03015D02*
D03*
Y02915D02*
D03*
Y02815D02*
D03*
D76*
X03055Y0341D02*
D03*
X0382167Y0282167D02*
D03*
X0307Y02715D02*
D03*
M02*
