G04*
G04 #@! TF.GenerationSoftware,Altium Limited,Altium Designer,22.6.1 (34)*
G04*
G04 Layer_Color=8388736*
%FSTAX25Y25*%
%MOIN*%
G70*
G04*
G04 #@! TF.SameCoordinates,070C6B67-E07D-408F-9274-D07C1108151A*
G04*
G04*
G04 #@! TF.FilePolarity,Negative*
G04*
G01*
G75*
%ADD40R,0.04737X0.06312*%
%ADD41R,0.10052X0.06902*%
%ADD42R,0.06115X0.04934*%
%ADD43R,0.04737X0.07887*%
%ADD44R,0.05524X0.06706*%
%ADD45R,0.06706X0.05524*%
%ADD46O,0.06509X0.01981*%
%ADD47O,0.01981X0.06509*%
%ADD48R,0.05524X0.05918*%
%ADD49R,0.04934X0.06115*%
%ADD50R,0.11036X0.27178*%
%ADD51R,0.09855X0.10052*%
%ADD52R,0.06902X0.10052*%
G04:AMPARAMS|DCode=53|XSize=85.56mil|YSize=31.62mil|CornerRadius=6.95mil|HoleSize=0mil|Usage=FLASHONLY|Rotation=0.000|XOffset=0mil|YOffset=0mil|HoleType=Round|Shape=RoundedRectangle|*
%AMROUNDEDRECTD53*
21,1,0.08556,0.01772,0,0,0.0*
21,1,0.07165,0.03162,0,0,0.0*
1,1,0.01391,0.03583,-0.00886*
1,1,0.01391,-0.03583,-0.00886*
1,1,0.01391,-0.03583,0.00886*
1,1,0.01391,0.03583,0.00886*
%
%ADD53ROUNDEDRECTD53*%
%ADD54R,0.09265X0.13595*%
%ADD55R,0.09265X0.04343*%
%ADD56O,0.03162X0.08280*%
%ADD57R,0.14973X0.11036*%
%ADD58O,0.06509X0.03162*%
%ADD59R,0.08674X0.22453*%
%ADD60R,0.06902X0.05918*%
%ADD61C,0.08677*%
G04:AMPARAMS|DCode=62|XSize=78.87mil|YSize=70.99mil|CornerRadius=19.75mil|HoleSize=0mil|Usage=FLASHONLY|Rotation=0.000|XOffset=0mil|YOffset=0mil|HoleType=Round|Shape=RoundedRectangle|*
%AMROUNDEDRECTD62*
21,1,0.07887,0.03150,0,0,0.0*
21,1,0.03937,0.07099,0,0,0.0*
1,1,0.03950,0.01968,-0.01575*
1,1,0.03950,-0.01968,-0.01575*
1,1,0.03950,-0.01968,0.01575*
1,1,0.03950,0.01968,0.01575*
%
%ADD62ROUNDEDRECTD62*%
%ADD63O,0.07887X0.07099*%
G04:AMPARAMS|DCode=64|XSize=78.87mil|YSize=78.87mil|CornerRadius=21.72mil|HoleSize=0mil|Usage=FLASHONLY|Rotation=180.000|XOffset=0mil|YOffset=0mil|HoleType=Round|Shape=RoundedRectangle|*
%AMROUNDEDRECTD64*
21,1,0.07887,0.03543,0,0,180.0*
21,1,0.03543,0.07887,0,0,180.0*
1,1,0.04343,-0.01772,0.01772*
1,1,0.04343,0.01772,0.01772*
1,1,0.04343,0.01772,-0.01772*
1,1,0.04343,-0.01772,-0.01772*
%
%ADD64ROUNDEDRECTD64*%
%ADD65C,0.07887*%
G04:AMPARAMS|DCode=66|XSize=94.61mil|YSize=185.17mil|CornerRadius=25.65mil|HoleSize=0mil|Usage=FLASHONLY|Rotation=0.000|XOffset=0mil|YOffset=0mil|HoleType=Round|Shape=RoundedRectangle|*
%AMROUNDEDRECTD66*
21,1,0.09461,0.13386,0,0,0.0*
21,1,0.04331,0.18517,0,0,0.0*
1,1,0.05131,0.02165,-0.06693*
1,1,0.05131,-0.02165,-0.06693*
1,1,0.05131,-0.02165,0.06693*
1,1,0.05131,0.02165,0.06693*
%
%ADD66ROUNDEDRECTD66*%
%ADD67O,0.18517X0.09461*%
%ADD68O,0.09461X0.18517*%
%ADD69C,0.08284*%
%ADD70O,0.07099X0.07887*%
G04:AMPARAMS|DCode=71|XSize=70.99mil|YSize=78.87mil|CornerRadius=19.75mil|HoleSize=0mil|Usage=FLASHONLY|Rotation=180.000|XOffset=0mil|YOffset=0mil|HoleType=Round|Shape=RoundedRectangle|*
%AMROUNDEDRECTD71*
21,1,0.07099,0.03937,0,0,180.0*
21,1,0.03150,0.07887,0,0,180.0*
1,1,0.03950,-0.01575,0.01968*
1,1,0.03950,0.01575,0.01968*
1,1,0.03950,0.01575,-0.01968*
1,1,0.03950,-0.01575,-0.01968*
%
%ADD71ROUNDEDRECTD71*%
%ADD72C,0.07000*%
%ADD73R,0.07000X0.07000*%
G04:AMPARAMS|DCode=74|XSize=70.99mil|YSize=78.87mil|CornerRadius=19.75mil|HoleSize=0mil|Usage=FLASHONLY|Rotation=270.000|XOffset=0mil|YOffset=0mil|HoleType=Round|Shape=RoundedRectangle|*
%AMROUNDEDRECTD74*
21,1,0.07099,0.03937,0,0,270.0*
21,1,0.03150,0.07887,0,0,270.0*
1,1,0.03950,-0.01968,-0.01575*
1,1,0.03950,-0.01968,0.01575*
1,1,0.03950,0.01968,0.01575*
1,1,0.03950,0.01968,-0.01575*
%
%ADD74ROUNDEDRECTD74*%
%ADD75O,0.07887X0.07099*%
%ADD76C,0.03950*%
D40*
X044676Y0212169D02*
D03*
X045424D02*
D03*
X04505Y0220831D02*
D03*
D41*
X0450299Y02325D02*
D03*
X0437701D02*
D03*
D42*
X0432Y0212161D02*
D03*
Y0219839D02*
D03*
X04155Y0309161D02*
D03*
Y0316839D02*
D03*
X03985Y0308661D02*
D03*
Y0316339D02*
D03*
X0376Y0317161D02*
D03*
Y0324839D02*
D03*
X03905Y0424823D02*
D03*
Y04325D02*
D03*
X0439177Y0452339D02*
D03*
Y0444661D02*
D03*
X0376Y0424823D02*
D03*
Y04325D02*
D03*
X03055Y0420705D02*
D03*
Y0428382D02*
D03*
X02395Y0350839D02*
D03*
Y0343161D02*
D03*
Y0308339D02*
D03*
Y0300661D02*
D03*
Y03985D02*
D03*
Y0390823D02*
D03*
Y0266339D02*
D03*
Y0258661D02*
D03*
Y0227839D02*
D03*
Y0220161D02*
D03*
X0259Y03985D02*
D03*
Y0390823D02*
D03*
D43*
X0341579Y0321D02*
D03*
X0351421D02*
D03*
D44*
X0350043Y0308D02*
D03*
X0342957D02*
D03*
X0246587Y03745D02*
D03*
X02395D02*
D03*
X0417587Y03945D02*
D03*
X04105D02*
D03*
X0384543Y03065D02*
D03*
X0377457D02*
D03*
X0314043Y0219642D02*
D03*
X0306957D02*
D03*
X041324Y04625D02*
D03*
X0406153D02*
D03*
X041324Y0447D02*
D03*
X0406153D02*
D03*
X0368957Y03945D02*
D03*
X0376043D02*
D03*
X0355543Y03945D02*
D03*
X0348457D02*
D03*
X0332587Y0450701D02*
D03*
X03255D02*
D03*
X0342957Y03725D02*
D03*
X0350043D02*
D03*
X0246587Y0326D02*
D03*
X02395D02*
D03*
X0246587Y02825D02*
D03*
X02395D02*
D03*
X0245587Y02435D02*
D03*
X02385D02*
D03*
X0245587Y02055D02*
D03*
X02385D02*
D03*
X0407087Y02435D02*
D03*
X04D02*
D03*
D45*
X03485Y0271543D02*
D03*
Y0264457D02*
D03*
X0363Y0317457D02*
D03*
Y0324543D02*
D03*
X03615Y0425413D02*
D03*
Y04325D02*
D03*
X03055Y0452087D02*
D03*
Y0445D02*
D03*
X0286Y0421D02*
D03*
Y0428087D02*
D03*
Y0452087D02*
D03*
Y0445D02*
D03*
X05085Y0300743D02*
D03*
Y0293657D02*
D03*
X0422Y0292543D02*
D03*
Y0285457D02*
D03*
X02975Y0293614D02*
D03*
Y0300701D02*
D03*
X02975Y0270386D02*
D03*
Y0263299D02*
D03*
D46*
X0370366Y0288327D02*
D03*
Y0286358D02*
D03*
Y028439D02*
D03*
Y0282421D02*
D03*
Y0280453D02*
D03*
Y0278484D02*
D03*
Y0276516D02*
D03*
Y0274547D02*
D03*
Y0272579D02*
D03*
Y027061D02*
D03*
Y0268642D02*
D03*
Y0266673D02*
D03*
X0403634D02*
D03*
Y0268642D02*
D03*
Y027061D02*
D03*
Y0272579D02*
D03*
Y0274547D02*
D03*
Y0276516D02*
D03*
Y0278484D02*
D03*
Y0280453D02*
D03*
Y0282421D02*
D03*
Y028439D02*
D03*
Y0286358D02*
D03*
Y0288327D02*
D03*
D47*
X0376173Y0260866D02*
D03*
X0378142D02*
D03*
X038011D02*
D03*
X0382079D02*
D03*
X0384047D02*
D03*
X0386016D02*
D03*
X0387984D02*
D03*
X0389953D02*
D03*
X0391921D02*
D03*
X039389D02*
D03*
X0395858D02*
D03*
X0397827D02*
D03*
Y0294134D02*
D03*
X0395858D02*
D03*
X039389D02*
D03*
X0391921D02*
D03*
X0389953D02*
D03*
X0387984D02*
D03*
X0386016D02*
D03*
X0384047D02*
D03*
X0382079D02*
D03*
X038011D02*
D03*
X0378142D02*
D03*
X0376173D02*
D03*
D48*
X0366661Y0341D02*
D03*
X0374339D02*
D03*
X0350339Y03565D02*
D03*
X0342661D02*
D03*
X04315Y0429047D02*
D03*
X0439177D02*
D03*
D49*
X0350339Y0341D02*
D03*
X0342661D02*
D03*
X0396839Y03945D02*
D03*
X0389161D02*
D03*
X0327161D02*
D03*
X0334839D02*
D03*
X0275339Y0304193D02*
D03*
X0267661D02*
D03*
X0267161Y0347693D02*
D03*
X0274839D02*
D03*
X0306661Y0237358D02*
D03*
X0314339D02*
D03*
D50*
X0386661Y0457106D02*
D03*
X0369339Y04575D02*
D03*
D51*
X04095Y0409953D02*
D03*
Y0429047D02*
D03*
X03695Y0373047D02*
D03*
Y0353953D02*
D03*
D52*
X03485Y0450701D02*
D03*
Y0463299D02*
D03*
D53*
X0345224Y04375D02*
D03*
Y04325D02*
D03*
Y04275D02*
D03*
Y04225D02*
D03*
X0325776D02*
D03*
Y04275D02*
D03*
Y04325D02*
D03*
Y04375D02*
D03*
D54*
X0393465Y0363D02*
D03*
D55*
X0416535Y0372016D02*
D03*
Y0363D02*
D03*
Y0353984D02*
D03*
D56*
X044Y0303299D02*
D03*
X0445D02*
D03*
X045D02*
D03*
X0455D02*
D03*
X046D02*
D03*
X0465D02*
D03*
X047D02*
D03*
X0475D02*
D03*
X044Y0340701D02*
D03*
X0445D02*
D03*
X045D02*
D03*
X0455D02*
D03*
X046D02*
D03*
X0465D02*
D03*
X047D02*
D03*
X0475D02*
D03*
D57*
X05315Y0459D02*
D03*
Y0343646D02*
D03*
D58*
X03905Y03415D02*
D03*
Y03365D02*
D03*
Y03315D02*
D03*
Y03265D02*
D03*
X0411957Y03415D02*
D03*
Y03365D02*
D03*
Y03315D02*
D03*
Y03265D02*
D03*
X0294772Y03655D02*
D03*
Y03605D02*
D03*
Y03555D02*
D03*
Y03505D02*
D03*
X0316228Y03655D02*
D03*
Y03605D02*
D03*
Y03555D02*
D03*
Y03505D02*
D03*
D59*
X03225Y0300701D02*
D03*
Y0263299D02*
D03*
D60*
X026185Y0237358D02*
D03*
Y0219642D02*
D03*
X029315Y0237358D02*
D03*
Y0219642D02*
D03*
D61*
X0473445Y0215D02*
D03*
X0490768D02*
D03*
D62*
X0214Y0221D02*
D03*
X02135Y0303D02*
D03*
Y03905D02*
D03*
Y03425D02*
D03*
Y0263D02*
D03*
D63*
X0214Y0211D02*
D03*
X02135Y0293D02*
D03*
Y03805D02*
D03*
Y03325D02*
D03*
Y0253D02*
D03*
D64*
X0235Y04175D02*
D03*
X0215D02*
D03*
D65*
X0235Y04275D02*
D03*
X0215D02*
D03*
D66*
X0243122Y0471D02*
D03*
D67*
X0232295Y0452299D02*
D03*
D68*
X02195Y0471D02*
D03*
D69*
X03945Y02035D02*
D03*
X03845D02*
D03*
X03745D02*
D03*
X03645D02*
D03*
X03545D02*
D03*
X03445D02*
D03*
X03345D02*
D03*
X03245D02*
D03*
X0518Y0262D02*
D03*
Y0252D02*
D03*
Y0242D02*
D03*
Y0232D02*
D03*
Y0222D02*
D03*
Y0212D02*
D03*
D70*
X02755Y0332693D02*
D03*
X02855Y0322693D02*
D03*
X02755D02*
D03*
X02655Y0332693D02*
D03*
Y0322693D02*
D03*
D71*
X02855Y0332693D02*
D03*
D72*
X03065Y0397D02*
D03*
X02965D02*
D03*
D73*
X02865D02*
D03*
D74*
X05315Y03115D02*
D03*
D75*
Y03015D02*
D03*
Y02915D02*
D03*
Y02815D02*
D03*
D76*
X03055Y0341D02*
D03*
X0382167Y0282167D02*
D03*
X0307Y02715D02*
D03*
M02*
