G04*
G04 #@! TF.GenerationSoftware,Altium Limited,Altium Designer,22.6.1 (34)*
G04*
G04 Layer_Physical_Order=2*
G04 Layer_Color=16711680*
%FSTAX25Y25*%
%MOIN*%
G70*
G04*
G04 #@! TF.SameCoordinates,070C6B67-E07D-408F-9274-D07C1108151A*
G04*
G04*
G04 #@! TF.FilePolarity,Positive*
G04*
G01*
G75*
%ADD14C,0.02000*%
%ADD17C,0.00800*%
%ADD77C,0.07874*%
G04:AMPARAMS|DCode=78|XSize=70.87mil|YSize=62.99mil|CornerRadius=15.75mil|HoleSize=0mil|Usage=FLASHONLY|Rotation=0.000|XOffset=0mil|YOffset=0mil|HoleType=Round|Shape=RoundedRectangle|*
%AMROUNDEDRECTD78*
21,1,0.07087,0.03150,0,0,0.0*
21,1,0.03937,0.06299,0,0,0.0*
1,1,0.03150,0.01968,-0.01575*
1,1,0.03150,-0.01968,-0.01575*
1,1,0.03150,-0.01968,0.01575*
1,1,0.03150,0.01968,0.01575*
%
%ADD78ROUNDEDRECTD78*%
%ADD79O,0.07087X0.06299*%
G04:AMPARAMS|DCode=80|XSize=70.87mil|YSize=70.87mil|CornerRadius=17.72mil|HoleSize=0mil|Usage=FLASHONLY|Rotation=180.000|XOffset=0mil|YOffset=0mil|HoleType=Round|Shape=RoundedRectangle|*
%AMROUNDEDRECTD80*
21,1,0.07087,0.03543,0,0,180.0*
21,1,0.03543,0.07087,0,0,180.0*
1,1,0.03543,-0.01772,0.01772*
1,1,0.03543,0.01772,0.01772*
1,1,0.03543,0.01772,-0.01772*
1,1,0.03543,-0.01772,-0.01772*
%
%ADD80ROUNDEDRECTD80*%
%ADD81C,0.07087*%
G04:AMPARAMS|DCode=82|XSize=86.61mil|YSize=177.17mil|CornerRadius=21.65mil|HoleSize=0mil|Usage=FLASHONLY|Rotation=0.000|XOffset=0mil|YOffset=0mil|HoleType=Round|Shape=RoundedRectangle|*
%AMROUNDEDRECTD82*
21,1,0.08661,0.13386,0,0,0.0*
21,1,0.04331,0.17717,0,0,0.0*
1,1,0.04331,0.02165,-0.06693*
1,1,0.04331,-0.02165,-0.06693*
1,1,0.04331,-0.02165,0.06693*
1,1,0.04331,0.02165,0.06693*
%
%ADD82ROUNDEDRECTD82*%
%ADD83O,0.17717X0.08661*%
%ADD84O,0.08661X0.17717*%
%ADD85C,0.07480*%
%ADD86O,0.06299X0.07087*%
G04:AMPARAMS|DCode=87|XSize=62.99mil|YSize=70.87mil|CornerRadius=15.75mil|HoleSize=0mil|Usage=FLASHONLY|Rotation=180.000|XOffset=0mil|YOffset=0mil|HoleType=Round|Shape=RoundedRectangle|*
%AMROUNDEDRECTD87*
21,1,0.06299,0.03937,0,0,180.0*
21,1,0.03150,0.07087,0,0,180.0*
1,1,0.03150,-0.01575,0.01968*
1,1,0.03150,0.01575,0.01968*
1,1,0.03150,0.01575,-0.01968*
1,1,0.03150,-0.01575,-0.01968*
%
%ADD87ROUNDEDRECTD87*%
%ADD88C,0.06200*%
%ADD89R,0.06200X0.06200*%
G04:AMPARAMS|DCode=90|XSize=62.99mil|YSize=70.87mil|CornerRadius=15.75mil|HoleSize=0mil|Usage=FLASHONLY|Rotation=270.000|XOffset=0mil|YOffset=0mil|HoleType=Round|Shape=RoundedRectangle|*
%AMROUNDEDRECTD90*
21,1,0.06299,0.03937,0,0,270.0*
21,1,0.03150,0.07087,0,0,270.0*
1,1,0.03150,-0.01968,-0.01575*
1,1,0.03150,-0.01968,0.01575*
1,1,0.03150,0.01968,0.01575*
1,1,0.03150,0.01968,-0.01575*
%
%ADD90ROUNDEDRECTD90*%
%ADD91O,0.07087X0.06299*%
%ADD92C,0.03150*%
G36*
X0574174Y0177325D02*
X0202825D01*
X0202825Y0492174D01*
X0574174D01*
X0574174Y0177325D01*
D02*
G37*
%LPC*%
G36*
X0245287Y0480684D02*
X0240957D01*
X0240183Y0480582D01*
X0239461Y0480283D01*
X0238842Y0479808D01*
X0238367Y0479188D01*
X0238068Y0478467D01*
X0237966Y0477693D01*
Y0464307D01*
X0238068Y0463533D01*
X0238367Y0462812D01*
X0238842Y0462192D01*
X0239461Y0461717D01*
X0240183Y0461418D01*
X0240957Y0461316D01*
X0245287D01*
X0246061Y0461418D01*
X0246783Y0461717D01*
X0247402Y0462192D01*
X0247878Y0462812D01*
X0248176Y0463533D01*
X0248278Y0464307D01*
Y0477693D01*
X0248176Y0478467D01*
X0247878Y0479188D01*
X0247402Y0479808D01*
X0246783Y0480283D01*
X0246061Y0480582D01*
X0245287Y0480684D01*
D02*
G37*
G36*
X0236772Y0421866D02*
X0233228D01*
X0232557Y0421777D01*
X0231931Y0421518D01*
X0231394Y0421106D01*
X0230982Y0420569D01*
X0230723Y0419943D01*
X0230634Y0419272D01*
Y0415728D01*
X0230723Y0415057D01*
X0230982Y0414431D01*
X0231394Y0413894D01*
X0231931Y0413482D01*
X0232557Y0413223D01*
X0233228Y0413134D01*
X0236772D01*
X0237443Y0413223D01*
X0238069Y0413482D01*
X0238606Y0413894D01*
X0239018Y0414431D01*
X0239277Y0415057D01*
X0239366Y0415728D01*
Y0419272D01*
X0239277Y0419943D01*
X0239018Y0420569D01*
X0238606Y0421106D01*
X0238069Y0421518D01*
X0237443Y0421777D01*
X0236772Y0421866D01*
D02*
G37*
G36*
X0216772D02*
X0213228D01*
X0212557Y0421777D01*
X0211931Y0421518D01*
X0211394Y0421106D01*
X0210982Y0420569D01*
X0210723Y0419943D01*
X0210634Y0419272D01*
Y0415728D01*
X0210723Y0415057D01*
X0210982Y0414431D01*
X0211394Y0413894D01*
X0211931Y0413482D01*
X0212557Y0413223D01*
X0213228Y0413134D01*
X0216772D01*
X0217443Y0413223D01*
X0218069Y0413482D01*
X0218606Y0413894D01*
X0219018Y0414431D01*
X0219277Y0415057D01*
X0219366Y0415728D01*
Y0419272D01*
X0219277Y0419943D01*
X0219018Y0420569D01*
X0218606Y0421106D01*
X0218069Y0421518D01*
X0217443Y0421777D01*
X0216772Y0421866D01*
D02*
G37*
G36*
X0297013Y04009D02*
X0295987D01*
X0294995Y0400634D01*
X0294105Y0400121D01*
X0293379Y0399395D01*
X0292866Y0398505D01*
X02926Y0397513D01*
Y0396487D01*
X0292866Y0395495D01*
X0293379Y0394605D01*
X0294105Y0393879D01*
X0294995Y0393366D01*
X0295987Y03931D01*
X0297013D01*
X0298005Y0393366D01*
X0298895Y0393879D01*
X0299621Y0394605D01*
X0300134Y0395495D01*
X03004Y0396487D01*
Y0397513D01*
X0300134Y0398505D01*
X0299621Y0399395D01*
X0298895Y0400121D01*
X0298005Y0400634D01*
X0297013Y04009D01*
D02*
G37*
G36*
X02904D02*
X02826D01*
Y03931D01*
X02904D01*
Y04009D01*
D02*
G37*
G36*
X0425472Y0333875D02*
X0424528D01*
X0423655Y0333513D01*
X0422987Y0332845D01*
X0422625Y0331972D01*
Y0331028D01*
X0422987Y0330155D01*
X0423655Y0329487D01*
X0424528Y0329125D01*
X0425472D01*
X0426345Y0329487D01*
X0427013Y0330155D01*
X0427375Y0331028D01*
Y0331972D01*
X0427013Y0332845D01*
X0426345Y0333513D01*
X0425472Y0333875D01*
D02*
G37*
G36*
X0397972Y0449375D02*
X0397028D01*
X0396155Y0449013D01*
X0395977Y0448835D01*
X0275D01*
X0274298Y0448696D01*
X0273702Y0448298D01*
X0269202Y0443798D01*
X0268804Y0443202D01*
X0268665Y04425D01*
Y0374017D01*
X0268655Y0374013D01*
X0267987Y0373345D01*
X0267625Y0372472D01*
Y0371528D01*
X0267987Y0370655D01*
X0268655Y0369987D01*
X0269528Y0369625D01*
X0270472D01*
X0271345Y0369987D01*
X0272013Y0370655D01*
X0272375Y0371528D01*
Y0372472D01*
X0272335Y0372568D01*
Y044174D01*
X027576Y0445165D01*
X0395977D01*
X0396155Y0444987D01*
X0397028Y0444625D01*
X0397972D01*
X0398845Y0444987D01*
X0399023Y0445165D01*
X043474D01*
X0500539Y0379365D01*
Y0329263D01*
X0500039Y0329056D01*
X0463593Y0365502D01*
X0462998Y03659D01*
X0462295Y036604D01*
X0340957D01*
X0340779Y0366218D01*
X0339907Y036658D01*
X0338962D01*
X0338089Y0366218D01*
X0337911Y036604D01*
X0253818D01*
X0253641Y0366218D01*
X0252768Y036658D01*
X0251823D01*
X025095Y0366218D01*
X0250282Y036555D01*
X0249921Y0364677D01*
Y0363732D01*
X0250282Y036286D01*
X025095Y0362192D01*
X0251823Y036183D01*
X0252768D01*
X0253641Y0362192D01*
X0253818Y0362369D01*
X0269665D01*
Y0347087D01*
X0269804Y0346384D01*
X0270202Y0345789D01*
X0281504Y0334487D01*
Y0330724D01*
X0281688Y0329798D01*
X0282213Y0329012D01*
X0282999Y0328487D01*
X0283925Y0328303D01*
X0287075D01*
X0288001Y0328487D01*
X0288787Y0329012D01*
X0289312Y0329798D01*
X0289496Y0330724D01*
Y0334661D01*
X0289312Y0335588D01*
X0288787Y0336374D01*
X0288001Y0336898D01*
X0287075Y0337083D01*
X0284099D01*
X0273335Y0347847D01*
Y0362369D01*
X0337911D01*
X0338089Y0362192D01*
X0338962Y036183D01*
X0339907D01*
X0340779Y0362192D01*
X0340957Y0362369D01*
X0461535D01*
X0497165Y032674D01*
Y0295023D01*
X0496987Y0294845D01*
X0496983Y0294835D01*
X0430835D01*
Y0303D01*
Y0305977D01*
X0431013Y0306155D01*
X0431375Y0307028D01*
Y0307972D01*
X0431013Y0308845D01*
X0430345Y0309513D01*
X0429472Y0309875D01*
X0428528D01*
X0427655Y0309513D01*
X0426987Y0308845D01*
X0426625Y0307972D01*
Y0307028D01*
X0426987Y0306155D01*
X0427165Y0305977D01*
Y0304835D01*
X0400023D01*
X0399845Y0305013D01*
X0398972Y0305375D01*
X0398028D01*
X0397155Y0305013D01*
X0396977Y0304835D01*
X037676D01*
X0373875Y0307721D01*
Y0307972D01*
X0373513Y0308845D01*
X0372845Y0309513D01*
X0371972Y0309875D01*
X0371028D01*
X0370155Y0309513D01*
X0369487Y0308845D01*
X0369125Y0307972D01*
Y0307028D01*
X0369487Y0306155D01*
X0370155Y0305487D01*
X0371028Y0305125D01*
X0371279D01*
X0374702Y0301702D01*
X0375298Y0301304D01*
X0376Y0301165D01*
X0396977D01*
X0397155Y0300987D01*
X0398028Y0300625D01*
X0398972D01*
X0399845Y0300987D01*
X0400023Y0301165D01*
X0427165D01*
Y0294523D01*
X0426987Y0294345D01*
X0426625Y0293472D01*
Y0292528D01*
X0426987Y0291655D01*
X0427165Y0291477D01*
Y025226D01*
X0419279Y0244375D01*
X0419028D01*
X0418155Y0244013D01*
X0417487Y0243345D01*
X0417125Y0242472D01*
Y0241528D01*
X0417487Y0240655D01*
X0417665Y0240477D01*
Y022926D01*
X039616Y0207755D01*
X0395098Y020804D01*
X0393902D01*
X0392748Y0207731D01*
X0391712Y0207133D01*
X0390867Y0206288D01*
X0390269Y0205252D01*
X038996Y0204098D01*
Y0202902D01*
X0390269Y0201748D01*
X0390867Y0200712D01*
X0391712Y0199867D01*
X0392748Y0199269D01*
X0393902Y019896D01*
X0395098D01*
X0396252Y0199269D01*
X0397288Y0199867D01*
X0398133Y0200712D01*
X0398731Y0201748D01*
X039904Y0202902D01*
Y0204098D01*
X0398756Y020516D01*
X0420798Y0227202D01*
X0421196Y0227798D01*
X0421335Y02285D01*
Y0240477D01*
X0421513Y0240655D01*
X0421875Y0241528D01*
Y0241779D01*
X0430298Y0250202D01*
X0430696Y0250798D01*
X0430835Y02515D01*
Y0291165D01*
X0497687D01*
X049819Y0291265D01*
X0498528Y0291125D01*
X0499472D01*
X0500039Y029136D01*
X0500539Y0291028D01*
Y0266125D01*
X0500679Y0265423D01*
X0501077Y0264827D01*
X0513186Y0252718D01*
X0513238Y0252684D01*
X051346Y0252462D01*
Y0251402D01*
X0513769Y0250248D01*
X0514367Y0249212D01*
X0515212Y0248367D01*
X0516248Y0247769D01*
X0517402Y024746D01*
X0518598D01*
X0519752Y0247769D01*
X0520788Y0248367D01*
X0521633Y0249212D01*
X0522231Y0250248D01*
X052254Y0251402D01*
Y0252598D01*
X0522231Y0253752D01*
X0521633Y0254788D01*
X0520788Y0255633D01*
X0519752Y0256231D01*
X0518598Y025654D01*
X0517402D01*
X0516248Y0256231D01*
X0515371Y0255725D01*
X050421Y0266885D01*
Y0380125D01*
X050407Y0380827D01*
X0503673Y0381423D01*
X0436798Y0448298D01*
X0436202Y0448696D01*
X04355Y0448835D01*
X0399023D01*
X0398845Y0449013D01*
X0397972Y0449375D01*
D02*
G37*
G36*
X02755Y033707D02*
X0274469Y0336935D01*
X0273508Y0336537D01*
X0272683Y0335904D01*
X027205Y0335079D01*
X0271652Y0334118D01*
X0271516Y0333087D01*
Y0332299D01*
X0271652Y0331268D01*
X027205Y0330307D01*
X0272683Y0329482D01*
X0273508Y0328849D01*
X0274469Y0328451D01*
X02755Y0328315D01*
X0276531Y0328451D01*
X0277492Y0328849D01*
X0278317Y0329482D01*
X027895Y0330307D01*
X0279348Y0331268D01*
X0279484Y0332299D01*
Y0333087D01*
X0279348Y0334118D01*
X027895Y0335079D01*
X0278317Y0335904D01*
X0277492Y0336537D01*
X0276531Y0336935D01*
X02755Y033707D01*
D02*
G37*
G36*
X0399804Y0328875D02*
X0398859D01*
X0397986Y0328513D01*
X0397318Y0327845D01*
X0396957Y0326972D01*
Y0326028D01*
X0397318Y0325155D01*
X0397986Y0324487D01*
X0398859Y0324125D01*
X0399804D01*
X0400677Y0324487D01*
X0401345Y0325155D01*
X0401706Y0326028D01*
Y0326972D01*
X0401345Y0327845D01*
X0400677Y0328513D01*
X0399804Y0328875D01*
D02*
G37*
G36*
X02855Y032707D02*
X0284469Y0326935D01*
X0283508Y0326537D01*
X0282683Y0325904D01*
X028205Y0325079D01*
X0281652Y0324118D01*
X0281516Y0323087D01*
Y0322299D01*
X0281652Y0321268D01*
X028205Y0320307D01*
X0282683Y0319482D01*
X0283508Y0318849D01*
X0284469Y0318451D01*
X02855Y0318316D01*
X0286531Y0318451D01*
X0287492Y0318849D01*
X0288317Y0319482D01*
X028895Y0320307D01*
X0289348Y0321268D01*
X0289484Y0322299D01*
Y0323087D01*
X0289348Y0324118D01*
X028895Y0325079D01*
X0288317Y0325904D01*
X0287492Y0326537D01*
X0286531Y0326935D01*
X02855Y032707D01*
D02*
G37*
G36*
X02755D02*
X0274469Y0326935D01*
X0273508Y0326537D01*
X0272683Y0325904D01*
X027205Y0325079D01*
X0271652Y0324118D01*
X0271516Y0323087D01*
Y0322299D01*
X0271652Y0321268D01*
X027205Y0320307D01*
X0272683Y0319482D01*
X0273508Y0318849D01*
X0274469Y0318451D01*
X02755Y0318316D01*
X0276531Y0318451D01*
X0277492Y0318849D01*
X0278317Y0319482D01*
X027895Y0320307D01*
X0279348Y0321268D01*
X0279484Y0322299D01*
Y0323087D01*
X0279348Y0324118D01*
X027895Y0325079D01*
X0278317Y0325904D01*
X0277492Y0326537D01*
X0276531Y0326935D01*
X02755Y032707D01*
D02*
G37*
G36*
X0531894Y0305484D02*
X0531106D01*
X0530075Y0305348D01*
X0529114Y030495D01*
X0528289Y0304317D01*
X0527656Y0303492D01*
X0527258Y0302531D01*
X0527123Y03015D01*
X0527258Y0300469D01*
X0527656Y0299508D01*
X0528289Y0298683D01*
X0529114Y029805D01*
X0530075Y0297652D01*
X0531106Y0297516D01*
X0531894D01*
X0532925Y0297652D01*
X0533885Y029805D01*
X0534711Y0298683D01*
X0535344Y0299508D01*
X0535742Y0300469D01*
X0535877Y03015D01*
X0535742Y0302531D01*
X0535344Y0303492D01*
X0534711Y0304317D01*
X0533885Y030495D01*
X0532925Y0305348D01*
X0531894Y0305484D01*
D02*
G37*
G36*
Y0295484D02*
X0531106D01*
X0530075Y0295348D01*
X0529114Y029495D01*
X0528289Y0294317D01*
X0527656Y0293492D01*
X0527258Y0292531D01*
X0527123Y02915D01*
X0527258Y0290469D01*
X0527656Y0289508D01*
X0528289Y0288683D01*
X0529114Y028805D01*
X0530075Y0287652D01*
X0531106Y0287516D01*
X0531894D01*
X0532925Y0287652D01*
X0533885Y028805D01*
X0534711Y0288683D01*
X0535344Y0289508D01*
X0535742Y0290469D01*
X0535877Y02915D01*
X0535742Y0292531D01*
X0535344Y0293492D01*
X0534711Y0294317D01*
X0533885Y029495D01*
X0532925Y0295348D01*
X0531894Y0295484D01*
D02*
G37*
G36*
X0282972Y0350875D02*
X0282028D01*
X0281155Y0350513D01*
X0280487Y0349845D01*
X0280125Y0348972D01*
Y0348028D01*
X0280487Y0347155D01*
X0281155Y0346487D01*
X0282028Y0346125D01*
X0282972D01*
X0283845Y0346487D01*
X0284513Y0347155D01*
X0284564Y0347276D01*
X0323088D01*
X0381672Y0288692D01*
Y0287771D01*
X0382034Y0286898D01*
X0382702Y028623D01*
X0383575Y0285868D01*
X038452D01*
X0385392Y028623D01*
X0386061Y0286898D01*
X0386422Y0287771D01*
Y0288715D01*
X0386061Y0289588D01*
X0385392Y0290256D01*
X038452Y0290618D01*
X0383575D01*
X0383315Y029051D01*
X032446Y0349365D01*
X0324063Y034963D01*
X0323594Y0349724D01*
X0284564D01*
X0284513Y0349845D01*
X0283845Y0350513D01*
X0282972Y0350875D01*
D02*
G37*
G36*
X0215469Y0394496D02*
X0211531D01*
X0210605Y0394312D01*
X0209819Y0393787D01*
X0209295Y0393001D01*
X020911Y0392075D01*
Y0388925D01*
X0209295Y0387999D01*
X0209819Y0387213D01*
X0210605Y0386688D01*
X0211531Y0386504D01*
X0215469D01*
X0216395Y0386688D01*
X0217181Y0387213D01*
X0217705Y0387999D01*
X0217779Y0388367D01*
X0218257Y0388512D01*
X0250276Y0356493D01*
Y03155D01*
X025037Y0315032D01*
X0250635Y0314635D01*
X0285984Y0279285D01*
X0285793Y0278823D01*
X0282907D01*
X021864Y0343091D01*
X0218243Y0343356D01*
X021789Y0343426D01*
Y0344075D01*
X0217705Y0345001D01*
X0217181Y0345787D01*
X0216395Y0346312D01*
X0215469Y0346496D01*
X0211531D01*
X0210605Y0346312D01*
X0209819Y0345787D01*
X0209295Y0345001D01*
X020911Y0344075D01*
Y0340925D01*
X0209295Y0339999D01*
X0209819Y0339213D01*
X0210605Y0338688D01*
X0211531Y0338504D01*
X0215469D01*
X0216395Y0338688D01*
X0217181Y0339213D01*
X0217649Y0339914D01*
X0218192Y0340077D01*
X0280584Y0277685D01*
X0280393Y0277223D01*
X0264507D01*
X0237865Y0303865D01*
X0237468Y030413D01*
X0237Y0304223D01*
X021789D01*
Y0304575D01*
X0217705Y0305501D01*
X0217181Y0306287D01*
X0216395Y0306812D01*
X0215469Y0306996D01*
X0211531D01*
X0210605Y0306812D01*
X0209819Y0306287D01*
X0209295Y0305501D01*
X020911Y0304575D01*
Y0301425D01*
X0209295Y0300499D01*
X0209819Y0299713D01*
X0210605Y0299188D01*
X0211531Y0299004D01*
X0215469D01*
X0216395Y0299188D01*
X0217181Y0299713D01*
X0217705Y0300499D01*
X021789Y0301425D01*
Y0301777D01*
X0236493D01*
X0263135Y0275135D01*
X0263532Y027487D01*
X0264Y0274777D01*
X0387993D01*
X0389176Y0273594D01*
X0389125Y0273472D01*
Y0272528D01*
X0389487Y0271655D01*
X0390155Y0270987D01*
X0391028Y0270625D01*
X0391972D01*
X0392845Y0270987D01*
X0393513Y0271655D01*
X0393875Y0272528D01*
Y0273472D01*
X0393513Y0274345D01*
X0393402Y0274456D01*
X0393596Y0274969D01*
X0394345Y027528D01*
X0395013Y0275948D01*
X0395375Y027682D01*
Y0277765D01*
X0395167Y0278268D01*
X0395591Y0278551D01*
X0395655Y0278487D01*
X0396528Y0278125D01*
X0397472D01*
X0398345Y0278487D01*
X0399013Y0279155D01*
X0399375Y0280028D01*
Y0280972D01*
X0399013Y0281845D01*
X0398345Y0282513D01*
X0397472Y0282875D01*
X0396528D01*
X0395655Y0282513D01*
X0394987Y0281845D01*
X0394936Y0281723D01*
X0389236D01*
X0388768Y028163D01*
X0388371Y0281365D01*
X0387622Y0280616D01*
X0384628D01*
X0384302Y0281116D01*
X0384542Y0281695D01*
Y028264D01*
X0384181Y0283513D01*
X0383513Y0284181D01*
X038264Y0284542D01*
X0381695D01*
X0381573Y0284492D01*
X0376907Y0289158D01*
Y0292241D01*
X0376814Y0292709D01*
X0376549Y0293106D01*
X0327789Y0341865D01*
X0327392Y034213D01*
X0326924Y0342224D01*
X0307564D01*
X0307513Y0342345D01*
X0306845Y0343013D01*
X0305972Y0343375D01*
X0305028D01*
X0304155Y0343013D01*
X0303487Y0342345D01*
X0303125Y0341472D01*
Y0340528D01*
X0303487Y0339655D01*
X0304155Y0338987D01*
X0305028Y0338625D01*
X0305972D01*
X0306845Y0338987D01*
X0307513Y0339655D01*
X0307564Y0339776D01*
X0326417D01*
X0367857Y0298337D01*
X0367734Y0297753D01*
X0367155Y0297513D01*
X0366487Y0296845D01*
X0366436Y0296724D01*
X0342007D01*
X0319824Y0318906D01*
X0319875Y0319028D01*
Y0319972D01*
X0319513Y0320845D01*
X0318845Y0321513D01*
X0317972Y0321875D01*
X0317028D01*
X0316155Y0321513D01*
X0315487Y0320845D01*
X0315125Y0319972D01*
Y0319028D01*
X0315487Y0318155D01*
X0316155Y0317487D01*
X0317028Y0317125D01*
X0317972D01*
X0318094Y0317176D01*
X0340635Y0294635D01*
X0341032Y029437D01*
X03415Y0294276D01*
X0366436D01*
X0366487Y0294155D01*
X0367155Y0293487D01*
X0368028Y0293125D01*
X0368972D01*
X0369845Y0293487D01*
X0370513Y0294155D01*
X0370753Y0294734D01*
X0371337Y0294857D01*
X037446Y0291734D01*
Y0288651D01*
X0374553Y0288183D01*
X0374818Y0287786D01*
X0379843Y0282762D01*
X0379793Y028264D01*
Y0281695D01*
X0380032Y0281116D01*
X0379707Y0280616D01*
X0288114D01*
X0252724Y0316007D01*
Y0357D01*
X025263Y0357468D01*
X0252365Y0357865D01*
X0218865Y0391365D01*
X0218468Y039163D01*
X0218Y0391723D01*
X021789D01*
Y0392075D01*
X0217705Y0393001D01*
X0217181Y0393787D01*
X0216395Y0394312D01*
X0215469Y0394496D01*
D02*
G37*
G36*
X0531894Y0285484D02*
X0531106D01*
X0530075Y0285348D01*
X0529114Y028495D01*
X0528289Y0284317D01*
X0527656Y0283492D01*
X0527258Y0282531D01*
X0527123Y02815D01*
X0527258Y0280469D01*
X0527656Y0279508D01*
X0528289Y0278683D01*
X0529114Y027805D01*
X0530075Y0277652D01*
X0531106Y0277516D01*
X0531894D01*
X0532925Y0277652D01*
X0533885Y027805D01*
X0534711Y0278683D01*
X0535344Y0279508D01*
X0535742Y0280469D01*
X0535877Y02815D01*
X0535742Y0282531D01*
X0535344Y0283492D01*
X0534711Y0284317D01*
X0533885Y028495D01*
X0532925Y0285348D01*
X0531894Y0285484D01*
D02*
G37*
G36*
X0395972Y0269375D02*
X0395028D01*
X0394155Y0269013D01*
X0393487Y0268345D01*
X0393125Y0267472D01*
Y0266528D01*
X0393176Y0266406D01*
X0392646Y0265877D01*
X0392222Y026616D01*
X0392375Y0266528D01*
Y0267472D01*
X0392013Y0268345D01*
X0391345Y0269013D01*
X0390472Y0269375D01*
X0389528D01*
X0388655Y0269013D01*
X0387987Y0268345D01*
X0387936Y0268224D01*
X0277564D01*
X0277513Y0268345D01*
X0276845Y0269013D01*
X0275972Y0269375D01*
X0275028D01*
X0274155Y0269013D01*
X0273487Y0268345D01*
X0273125Y0267472D01*
Y0266528D01*
X0273487Y0265655D01*
X0274155Y0264987D01*
X0275028Y0264625D01*
X0275972D01*
X0276845Y0264987D01*
X0277513Y0265655D01*
X0277564Y0265776D01*
X0387936D01*
X0387987Y0265655D01*
X0388655Y0264987D01*
X0389528Y0264625D01*
X0390472D01*
X039084Y0264777D01*
X0391123Y0264354D01*
X0383493Y0256723D01*
X0221507D01*
X021771Y026052D01*
X021789Y0261425D01*
Y0264575D01*
X0217705Y0265501D01*
X0217181Y0266287D01*
X0216395Y0266812D01*
X0215469Y0266996D01*
X0211531D01*
X0210605Y0266812D01*
X0209819Y0266287D01*
X0209295Y0265501D01*
X020911Y0264575D01*
Y0261425D01*
X0209295Y0260499D01*
X0209819Y0259713D01*
X0210605Y0259188D01*
X0211531Y0259004D01*
X0215469D01*
X0215717Y0259053D01*
X0220135Y0254635D01*
X0220532Y025437D01*
X0221Y0254276D01*
X0384D01*
X0384468Y025437D01*
X0384865Y0254635D01*
X0394906Y0264676D01*
X0395028Y0264625D01*
X0395972D01*
X0396845Y0264987D01*
X0397513Y0265655D01*
X0397875Y0266528D01*
Y0267472D01*
X0397513Y0268345D01*
X0396845Y0269013D01*
X0395972Y0269375D01*
D02*
G37*
G36*
X0404106Y0264241D02*
X0403161D01*
X0402289Y0263879D01*
X0401621Y0263211D01*
X0401259Y0262338D01*
Y0261394D01*
X0401309Y0261272D01*
X0391761Y0251724D01*
X0243894D01*
X0243425Y025163D01*
X0243028Y0251365D01*
X0216545Y0224882D01*
X0215968Y0224996D01*
X0212032D01*
X0211105Y0224812D01*
X0210319Y0224287D01*
X0209794Y0223501D01*
X020961Y0222575D01*
Y0219425D01*
X0209794Y0218499D01*
X0210319Y0217713D01*
X0211105Y0217188D01*
X0212032Y0217004D01*
X0215968D01*
X0216895Y0217188D01*
X0217681Y0217713D01*
X0218205Y0218499D01*
X021839Y0219425D01*
Y0222575D01*
X0218275Y0223151D01*
X0244401Y0249276D01*
X0353711D01*
X0353918Y0248777D01*
X0353487Y0248345D01*
X0353436Y0248223D01*
X0307D01*
X0306832Y024819D01*
X0306447Y0248349D01*
X0305502D01*
X0304629Y0247988D01*
X0303961Y024732D01*
X03036Y0246447D01*
Y0245502D01*
X0303961Y0244629D01*
X0304629Y0243961D01*
X0305502Y02436D01*
X0306447D01*
X030732Y0243961D01*
X0307988Y0244629D01*
X0308349Y0245502D01*
Y0245777D01*
X0353436D01*
X0353487Y0245655D01*
X0354155Y0244987D01*
X0355028Y0244625D01*
X0355972D01*
X0356845Y0244987D01*
X0357513Y0245655D01*
X0357875Y0246528D01*
Y0247472D01*
X0357513Y0248345D01*
X0357082Y0248777D01*
X0357289Y0249276D01*
X0392268D01*
X0392736Y024937D01*
X0393133Y0249635D01*
X040304Y0259542D01*
X0403161Y0259491D01*
X0404106D01*
X0404979Y0259853D01*
X0405647Y0260521D01*
X0406009Y0261394D01*
Y0262338D01*
X0405647Y0263211D01*
X0404979Y0263879D01*
X0404106Y0264241D01*
D02*
G37*
G36*
X0518598Y026654D02*
X0517402D01*
X0516248Y0266231D01*
X0515212Y0265633D01*
X0514367Y0264788D01*
X0513769Y0263752D01*
X051346Y0262598D01*
Y0261402D01*
X0513769Y0260248D01*
X0514367Y0259212D01*
X0515212Y0258367D01*
X0516248Y0257769D01*
X0517402Y025746D01*
X0518598D01*
X0519752Y0257769D01*
X0520788Y0258367D01*
X0521633Y0259212D01*
X0522231Y0260248D01*
X052254Y0261402D01*
Y0262598D01*
X0522231Y0263752D01*
X0521633Y0264788D01*
X0520788Y0265633D01*
X0519752Y0266231D01*
X0518598Y026654D01*
D02*
G37*
G36*
Y023654D02*
X0517402D01*
X0516248Y0236231D01*
X0515212Y0235633D01*
X0514367Y0234788D01*
X0513769Y0233752D01*
X051346Y0232598D01*
Y0231402D01*
X0513769Y0230248D01*
X0514367Y0229212D01*
X0515212Y0228367D01*
X0516248Y0227769D01*
X0517402Y022746D01*
X0518598D01*
X0519752Y0227769D01*
X0520788Y0228367D01*
X0521633Y0229212D01*
X0522231Y0230248D01*
X052254Y0231402D01*
Y0232598D01*
X0522231Y0233752D01*
X0521633Y0234788D01*
X0520788Y0235633D01*
X0519752Y0236231D01*
X0518598Y023654D01*
D02*
G37*
G36*
Y022654D02*
X0517402D01*
X0516248Y0226231D01*
X0515212Y0225633D01*
X0514367Y0224788D01*
X0513769Y0223752D01*
X051346Y0222598D01*
Y0221402D01*
X0513769Y0220248D01*
X0514367Y0219212D01*
X0515212Y0218367D01*
X0516248Y0217769D01*
X0517402Y021746D01*
X0518598D01*
X0519752Y0217769D01*
X0520788Y0218367D01*
X0521633Y0219212D01*
X0522231Y0220248D01*
X052254Y0221402D01*
Y0222598D01*
X0522231Y0223752D01*
X0521633Y0224788D01*
X0520788Y0225633D01*
X0519752Y0226231D01*
X0518598Y022654D01*
D02*
G37*
G36*
X0491391Y0219737D02*
X0490144D01*
X0488939Y0219414D01*
X0487859Y0218791D01*
X0486977Y0217909D01*
X0486353Y0216828D01*
X0486031Y0215624D01*
Y0214376D01*
X0486353Y0213172D01*
X0486977Y0212091D01*
X0487859Y0211209D01*
X0488939Y0210586D01*
X0490144Y0210263D01*
X0491391D01*
X0492596Y0210586D01*
X0493676Y0211209D01*
X0494558Y0212091D01*
X0495182Y0213172D01*
X0495505Y0214376D01*
Y0215624D01*
X0495182Y0216828D01*
X0494558Y0217909D01*
X0493676Y0218791D01*
X0492596Y0219414D01*
X0491391Y0219737D01*
D02*
G37*
G36*
X0474068D02*
X0472821D01*
X0471616Y0219414D01*
X0470536Y0218791D01*
X0469654Y0217909D01*
X0469031Y0216828D01*
X0468708Y0215624D01*
Y0214376D01*
X0469031Y0213172D01*
X0469654Y0212091D01*
X0470536Y0211209D01*
X0471616Y0210586D01*
X0472821Y0210263D01*
X0474068D01*
X0475273Y0210586D01*
X0476354Y0211209D01*
X0477235Y0212091D01*
X0477859Y0213172D01*
X0478182Y0214376D01*
Y0215624D01*
X0477859Y0216828D01*
X0477235Y0217909D01*
X0476354Y0218791D01*
X0475273Y0219414D01*
X0474068Y0219737D01*
D02*
G37*
G36*
X0518598Y021654D02*
X0517402D01*
X0516248Y0216231D01*
X0515212Y0215633D01*
X0514367Y0214788D01*
X0513769Y0213752D01*
X051346Y0212598D01*
Y0211402D01*
X0513769Y0210248D01*
X0514367Y0209212D01*
X0515212Y0208367D01*
X0516248Y0207769D01*
X0517402Y020746D01*
X0518598D01*
X0519752Y0207769D01*
X0520788Y0208367D01*
X0521633Y0209212D01*
X0522231Y0210248D01*
X052254Y0211402D01*
Y0212598D01*
X0522231Y0213752D01*
X0521633Y0214788D01*
X0520788Y0215633D01*
X0519752Y0216231D01*
X0518598Y021654D01*
D02*
G37*
G36*
X0375098Y020804D02*
X0373902D01*
X0372748Y0207731D01*
X0371712Y0207133D01*
X0370867Y0206288D01*
X0370269Y0205252D01*
X036996Y0204098D01*
Y0202902D01*
X0370269Y0201748D01*
X0370867Y0200712D01*
X0371712Y0199867D01*
X0372748Y0199269D01*
X0373902Y019896D01*
X0375098D01*
X0376252Y0199269D01*
X0377288Y0199867D01*
X0378133Y0200712D01*
X0378731Y0201748D01*
X037904Y0202902D01*
Y0204098D01*
X0378731Y0205252D01*
X0378133Y0206288D01*
X0377288Y0207133D01*
X0376252Y0207731D01*
X0375098Y020804D01*
D02*
G37*
G36*
X0365098D02*
X0363902D01*
X0362748Y0207731D01*
X0361712Y0207133D01*
X0360867Y0206288D01*
X0360269Y0205252D01*
X035996Y0204098D01*
Y0202902D01*
X0360269Y0201748D01*
X0360867Y0200712D01*
X0361712Y0199867D01*
X0362748Y0199269D01*
X0363902Y019896D01*
X0365098D01*
X0366252Y0199269D01*
X0367288Y0199867D01*
X0368133Y0200712D01*
X0368731Y0201748D01*
X036904Y0202902D01*
Y0204098D01*
X0368731Y0205252D01*
X0368133Y0206288D01*
X0367288Y0207133D01*
X0366252Y0207731D01*
X0365098Y020804D01*
D02*
G37*
G36*
X0355098D02*
X0353902D01*
X0352748Y0207731D01*
X0351712Y0207133D01*
X0350867Y0206288D01*
X0350269Y0205252D01*
X034996Y0204098D01*
Y0202902D01*
X0350269Y0201748D01*
X0350867Y0200712D01*
X0351712Y0199867D01*
X0352748Y0199269D01*
X0353902Y019896D01*
X0355098D01*
X0356252Y0199269D01*
X0357288Y0199867D01*
X0358133Y0200712D01*
X0358731Y0201748D01*
X035904Y0202902D01*
Y0204098D01*
X0358731Y0205252D01*
X0358133Y0206288D01*
X0357288Y0207133D01*
X0356252Y0207731D01*
X0355098Y020804D01*
D02*
G37*
G36*
X0345098D02*
X0343902D01*
X0342748Y0207731D01*
X0341712Y0207133D01*
X0340867Y0206288D01*
X0340269Y0205252D01*
X033996Y0204098D01*
Y0202902D01*
X0340269Y0201748D01*
X0340867Y0200712D01*
X0341712Y0199867D01*
X0342748Y0199269D01*
X0343902Y019896D01*
X0345098D01*
X0346252Y0199269D01*
X0347288Y0199867D01*
X0348133Y0200712D01*
X0348731Y0201748D01*
X034904Y0202902D01*
Y0204098D01*
X0348731Y0205252D01*
X0348133Y0206288D01*
X0347288Y0207133D01*
X0346252Y0207731D01*
X0345098Y020804D01*
D02*
G37*
G36*
X0335098D02*
X0333902D01*
X0332748Y0207731D01*
X0331712Y0207133D01*
X0330867Y0206288D01*
X0330269Y0205252D01*
X032996Y0204098D01*
Y0202902D01*
X0330269Y0201748D01*
X0330867Y0200712D01*
X0331712Y0199867D01*
X0332748Y0199269D01*
X0333902Y019896D01*
X0335098D01*
X0336252Y0199269D01*
X0337288Y0199867D01*
X0338133Y0200712D01*
X0338731Y0201748D01*
X033904Y0202902D01*
Y0204098D01*
X0338731Y0205252D01*
X0338133Y0206288D01*
X0337288Y0207133D01*
X0336252Y0207731D01*
X0335098Y020804D01*
D02*
G37*
G36*
X0325098D02*
X0323902D01*
X0322748Y0207731D01*
X0321712Y0207133D01*
X0320867Y0206288D01*
X0320269Y0205252D01*
X031996Y0204098D01*
Y0202902D01*
X0320269Y0201748D01*
X0320867Y0200712D01*
X0321712Y0199867D01*
X0322748Y0199269D01*
X0323902Y019896D01*
X0325098D01*
X0326252Y0199269D01*
X0327288Y0199867D01*
X0328133Y0200712D01*
X0328731Y0201748D01*
X032904Y0202902D01*
Y0204098D01*
X0328731Y0205252D01*
X0328133Y0206288D01*
X0327288Y0207133D01*
X0326252Y0207731D01*
X0325098Y020804D01*
D02*
G37*
%LPD*%
D14*
X03985Y0303D02*
X0429D01*
X0376D02*
X03985D01*
X03715Y03075D02*
X0376Y0303D01*
X0514484Y0254016D02*
X0514501D01*
X0502375Y0266125D02*
X0514484Y0254016D01*
X0502375Y0266125D02*
Y0380125D01*
X0516Y02525D02*
Y0252518D01*
X0514501Y0254016D02*
X0516Y0252518D01*
X0242Y04205D02*
X02635D01*
X0235Y04275D02*
X0242Y04205D01*
X0413Y04385D02*
X04135Y0439D01*
X039Y04385D02*
X0413D01*
X04355Y0447D02*
X0502375Y0380125D01*
X03975Y0447D02*
X04355D01*
X0275D02*
X03975D01*
X0305328Y038072D02*
X03065Y0381891D01*
Y0397D01*
X028672Y038072D02*
X0305328D01*
X02865Y03805D02*
X028672Y038072D01*
X0252295Y0364205D02*
X02715D01*
X02855Y0332693D02*
Y0333087D01*
X02715Y0347087D02*
X02855Y0333087D01*
X02715Y0347087D02*
Y0364205D01*
X0399Y0218D02*
Y0234D01*
X03845Y02035D02*
X0399Y0218D01*
X03945Y02035D02*
X04195Y02285D01*
Y0242D01*
X0429Y02515D01*
Y0293D01*
X0497687D01*
X02705Y03725D02*
Y04425D01*
X0275Y0447D01*
X027Y0372D02*
X02705Y03725D01*
X0429Y0303D02*
Y03075D01*
Y0293D02*
Y0303D01*
X0462295Y0364205D02*
X0499Y03275D01*
Y02935D02*
Y03275D01*
X02715Y0364205D02*
X0462295D01*
D17*
X03055Y0341D02*
X0326924D01*
X0375684Y0292241D01*
Y0288651D02*
Y0292241D01*
Y0288651D02*
X0382167Y0282167D01*
X0287607Y0279393D02*
X0388129D01*
X0389236Y02805D01*
X02515Y03155D02*
X0287607Y0279393D01*
X0389236Y02805D02*
X0397D01*
X0389263Y02775D02*
X0392793D01*
X0393Y0277293D01*
X0323594Y03485D02*
X0383852Y0288243D01*
X0384047D01*
X0240143Y02715D02*
X0307D01*
X0339D01*
X02385Y0273D02*
X0238643D01*
X0240143Y02715D01*
X02825Y03485D02*
X0323594D01*
X0221Y02555D02*
X0384D01*
X02135Y0263D02*
X0221Y02555D01*
X0384D02*
X03955Y0267D01*
X0214394Y0221D02*
X0243894Y02505D01*
X0392268D02*
X0403634Y0261866D01*
X0243894Y02505D02*
X0392268D01*
X0214Y0221D02*
X0214394D01*
X0217775Y0342225D02*
X02824Y02776D01*
X0389163D02*
X0389263Y02775D01*
X0237Y0303D02*
X0264Y0276D01*
X03885D02*
X03915Y0273D01*
X0264Y0276D02*
X03885D01*
X02824Y02776D02*
X0389163D01*
X02135Y0303D02*
X0237D01*
X0213775Y0342225D02*
X0217775D01*
X02135Y03425D02*
X0213775Y0342225D01*
X02515Y03155D02*
Y0357D01*
X0218Y03905D02*
X02515Y0357D01*
X02135Y03905D02*
X0218D01*
X03415Y02955D02*
X03685D01*
X03175Y03195D02*
X03415Y02955D01*
X02755Y0267D02*
X039D01*
X0305975Y0245975D02*
X0307Y0247D01*
X03555D01*
D77*
X0473445Y0215D02*
D03*
X0490768D02*
D03*
D78*
X0214Y0221D02*
D03*
X02135Y0303D02*
D03*
Y03905D02*
D03*
Y03425D02*
D03*
Y0263D02*
D03*
D79*
X0214Y0211D02*
D03*
X02135Y0293D02*
D03*
Y03805D02*
D03*
Y03325D02*
D03*
Y0253D02*
D03*
D80*
X0235Y04175D02*
D03*
X0215D02*
D03*
D81*
X0235Y04275D02*
D03*
X0215D02*
D03*
D82*
X0243122Y0471D02*
D03*
D83*
X0232295Y0452299D02*
D03*
D84*
X02195Y0471D02*
D03*
D85*
X03945Y02035D02*
D03*
X03845D02*
D03*
X03745D02*
D03*
X03645D02*
D03*
X03545D02*
D03*
X03445D02*
D03*
X03345D02*
D03*
X03245D02*
D03*
X0518Y0262D02*
D03*
Y0252D02*
D03*
Y0242D02*
D03*
Y0232D02*
D03*
Y0222D02*
D03*
Y0212D02*
D03*
D86*
X02755Y0332693D02*
D03*
X02855Y0322693D02*
D03*
X02755D02*
D03*
X02655Y0332693D02*
D03*
Y0322693D02*
D03*
D87*
X02855Y0332693D02*
D03*
D88*
X03065Y0397D02*
D03*
X02965D02*
D03*
D89*
X02865D02*
D03*
D90*
X05315Y03115D02*
D03*
D91*
Y03015D02*
D03*
Y02915D02*
D03*
Y02815D02*
D03*
D92*
X03055Y0341D02*
D03*
X0382167Y0282167D02*
D03*
X0393Y0277293D02*
D03*
X0384047Y0288243D02*
D03*
X0307Y02715D02*
D03*
X0425Y03315D02*
D03*
X0399331Y03265D02*
D03*
X03985Y0303D02*
D03*
X02635Y04205D02*
D03*
X02385Y0273D02*
D03*
X0339Y02715D02*
D03*
X04135Y0439D02*
D03*
X039Y04385D02*
D03*
X02865Y03805D02*
D03*
X0339434Y0364205D02*
D03*
X0399Y0234D02*
D03*
X04195Y0242D02*
D03*
X027Y0372D02*
D03*
X03975Y0447D02*
D03*
X03715Y03075D02*
D03*
X0429D02*
D03*
Y0293D02*
D03*
X0499Y02935D02*
D03*
X0252295Y0364205D02*
D03*
X0403634Y0261866D02*
D03*
X03955Y0267D02*
D03*
X03915Y0273D02*
D03*
X0397Y02805D02*
D03*
X03175Y03195D02*
D03*
X03685Y02955D02*
D03*
X02825Y03485D02*
D03*
X02755Y0267D02*
D03*
X039D02*
D03*
X0305975Y0245975D02*
D03*
X03555Y0247D02*
D03*
M02*
