G04*
G04 #@! TF.GenerationSoftware,Altium Limited,Altium Designer,22.6.1 (34)*
G04*
G04 Layer_Color=8421504*
%FSTAX25Y25*%
%MOIN*%
G70*
G04*
G04 #@! TF.SameCoordinates,070C6B67-E07D-408F-9274-D07C1108151A*
G04*
G04*
G04 #@! TF.FilePolarity,Positive*
G04*
G01*
G75*
%ADD19R,0.03937X0.05512*%
%ADD20R,0.09252X0.06102*%
%ADD21R,0.05315X0.04134*%
%ADD22R,0.03937X0.07087*%
%ADD23R,0.04724X0.05906*%
%ADD24R,0.05906X0.04724*%
%ADD25O,0.05709X0.01181*%
%ADD26O,0.01181X0.05709*%
%ADD27R,0.04724X0.05118*%
%ADD28R,0.04134X0.05315*%
%ADD29R,0.10236X0.26378*%
%ADD30R,0.09055X0.09252*%
%ADD31R,0.06102X0.09252*%
G04:AMPARAMS|DCode=32|XSize=77.56mil|YSize=23.62mil|CornerRadius=2.95mil|HoleSize=0mil|Usage=FLASHONLY|Rotation=0.000|XOffset=0mil|YOffset=0mil|HoleType=Round|Shape=RoundedRectangle|*
%AMROUNDEDRECTD32*
21,1,0.07756,0.01772,0,0,0.0*
21,1,0.07165,0.02362,0,0,0.0*
1,1,0.00591,0.03583,-0.00886*
1,1,0.00591,-0.03583,-0.00886*
1,1,0.00591,-0.03583,0.00886*
1,1,0.00591,0.03583,0.00886*
%
%ADD32ROUNDEDRECTD32*%
%ADD33R,0.08465X0.12795*%
%ADD34R,0.08465X0.03543*%
%ADD35O,0.02362X0.07480*%
%ADD36R,0.14173X0.10236*%
%ADD37O,0.05709X0.02362*%
%ADD38R,0.07874X0.21654*%
%ADD39R,0.06102X0.05118*%
D19*
X044676Y0212169D02*
D03*
X045424D02*
D03*
X04505Y0220831D02*
D03*
D20*
X0450299Y02325D02*
D03*
X0437701D02*
D03*
D21*
X0432Y0212161D02*
D03*
Y0219839D02*
D03*
X04155Y0309161D02*
D03*
Y0316839D02*
D03*
X03985Y0308661D02*
D03*
Y0316339D02*
D03*
X0376Y0317161D02*
D03*
Y0324839D02*
D03*
X03905Y0424823D02*
D03*
Y04325D02*
D03*
X0439177Y0452339D02*
D03*
Y0444661D02*
D03*
X0376Y0424823D02*
D03*
Y04325D02*
D03*
X03055Y0420705D02*
D03*
Y0428382D02*
D03*
X02395Y0350839D02*
D03*
Y0343161D02*
D03*
Y0308339D02*
D03*
Y0300661D02*
D03*
Y03985D02*
D03*
Y0390823D02*
D03*
Y0266339D02*
D03*
Y0258661D02*
D03*
Y0227839D02*
D03*
Y0220161D02*
D03*
X0259Y03985D02*
D03*
Y0390823D02*
D03*
D22*
X0341579Y0321D02*
D03*
X0351421D02*
D03*
D23*
X0350043Y0308D02*
D03*
X0342957D02*
D03*
X0246587Y03745D02*
D03*
X02395D02*
D03*
X0417587Y03945D02*
D03*
X04105D02*
D03*
X0384543Y03065D02*
D03*
X0377457D02*
D03*
X0314043Y0219642D02*
D03*
X0306957D02*
D03*
X041324Y04625D02*
D03*
X0406153D02*
D03*
X041324Y0447D02*
D03*
X0406153D02*
D03*
X0368957Y03945D02*
D03*
X0376043D02*
D03*
X0355543Y03945D02*
D03*
X0348457D02*
D03*
X0332587Y0450701D02*
D03*
X03255D02*
D03*
X0342957Y03725D02*
D03*
X0350043D02*
D03*
X0246587Y0326D02*
D03*
X02395D02*
D03*
X0246587Y02825D02*
D03*
X02395D02*
D03*
X0245587Y02435D02*
D03*
X02385D02*
D03*
X0245587Y02055D02*
D03*
X02385D02*
D03*
X0407087Y02435D02*
D03*
X04D02*
D03*
D24*
X03485Y0271543D02*
D03*
Y0264457D02*
D03*
X0363Y0317457D02*
D03*
Y0324543D02*
D03*
X03615Y0425413D02*
D03*
Y04325D02*
D03*
X03055Y0452087D02*
D03*
Y0445D02*
D03*
X0286Y0421D02*
D03*
Y0428087D02*
D03*
Y0452087D02*
D03*
Y0445D02*
D03*
X05085Y0300743D02*
D03*
Y0293657D02*
D03*
X0422Y0292543D02*
D03*
Y0285457D02*
D03*
X02975Y0293614D02*
D03*
Y0300701D02*
D03*
X02975Y0270386D02*
D03*
Y0263299D02*
D03*
D25*
X0370366Y0288327D02*
D03*
Y0286358D02*
D03*
Y028439D02*
D03*
Y0282421D02*
D03*
Y0280453D02*
D03*
Y0278484D02*
D03*
Y0276516D02*
D03*
Y0274547D02*
D03*
Y0272579D02*
D03*
Y027061D02*
D03*
Y0268642D02*
D03*
Y0266673D02*
D03*
X0403634D02*
D03*
Y0268642D02*
D03*
Y027061D02*
D03*
Y0272579D02*
D03*
Y0274547D02*
D03*
Y0276516D02*
D03*
Y0278484D02*
D03*
Y0280453D02*
D03*
Y0282421D02*
D03*
Y028439D02*
D03*
Y0286358D02*
D03*
Y0288327D02*
D03*
D26*
X0376173Y0260866D02*
D03*
X0378142D02*
D03*
X038011D02*
D03*
X0382079D02*
D03*
X0384047D02*
D03*
X0386016D02*
D03*
X0387984D02*
D03*
X0389953D02*
D03*
X0391921D02*
D03*
X039389D02*
D03*
X0395858D02*
D03*
X0397827D02*
D03*
Y0294134D02*
D03*
X0395858D02*
D03*
X039389D02*
D03*
X0391921D02*
D03*
X0389953D02*
D03*
X0387984D02*
D03*
X0386016D02*
D03*
X0384047D02*
D03*
X0382079D02*
D03*
X038011D02*
D03*
X0378142D02*
D03*
X0376173D02*
D03*
D27*
X0366661Y0341D02*
D03*
X0374339D02*
D03*
X0350339Y03565D02*
D03*
X0342661D02*
D03*
X04315Y0429047D02*
D03*
X0439177D02*
D03*
D28*
X0350339Y0341D02*
D03*
X0342661D02*
D03*
X0396839Y03945D02*
D03*
X0389161D02*
D03*
X0327161D02*
D03*
X0334839D02*
D03*
X0275339Y0304193D02*
D03*
X0267661D02*
D03*
X0267161Y0347693D02*
D03*
X0274839D02*
D03*
X0306661Y0237358D02*
D03*
X0314339D02*
D03*
D29*
X0386661Y0457106D02*
D03*
X0369339Y04575D02*
D03*
D30*
X04095Y0409953D02*
D03*
Y0429047D02*
D03*
X03695Y0373047D02*
D03*
Y0353953D02*
D03*
D31*
X03485Y0450701D02*
D03*
Y0463299D02*
D03*
D32*
X0345224Y04375D02*
D03*
Y04325D02*
D03*
Y04275D02*
D03*
Y04225D02*
D03*
X0325776D02*
D03*
Y04275D02*
D03*
Y04325D02*
D03*
Y04375D02*
D03*
D33*
X0393465Y0363D02*
D03*
D34*
X0416535Y0372016D02*
D03*
Y0363D02*
D03*
Y0353984D02*
D03*
D35*
X044Y0303299D02*
D03*
X0445D02*
D03*
X045D02*
D03*
X0455D02*
D03*
X046D02*
D03*
X0465D02*
D03*
X047D02*
D03*
X0475D02*
D03*
X044Y0340701D02*
D03*
X0445D02*
D03*
X045D02*
D03*
X0455D02*
D03*
X046D02*
D03*
X0465D02*
D03*
X047D02*
D03*
X0475D02*
D03*
D36*
X05315Y0459D02*
D03*
Y0343646D02*
D03*
D37*
X03905Y03415D02*
D03*
Y03365D02*
D03*
Y03315D02*
D03*
Y03265D02*
D03*
X0411957Y03415D02*
D03*
Y03365D02*
D03*
Y03315D02*
D03*
Y03265D02*
D03*
X0294772Y03655D02*
D03*
Y03605D02*
D03*
Y03555D02*
D03*
Y03505D02*
D03*
X0316228Y03655D02*
D03*
Y03605D02*
D03*
Y03555D02*
D03*
Y03505D02*
D03*
D38*
X03225Y0300701D02*
D03*
Y0263299D02*
D03*
D39*
X026185Y0237358D02*
D03*
Y0219642D02*
D03*
X029315Y0237358D02*
D03*
Y0219642D02*
D03*
M02*
